<?xml version="1.0" standalone="no"?>
<!DOCTYPE svg PUBLIC "-//W3C//DTD SVG 20010904//EN"
 "http://www.w3.org/TR/2001/REC-SVG-20010904/DTD/svg10.dtd">
<svg version="1.0" xmlns="http://www.w3.org/2000/svg"
 width="512.000000pt" height="512.000000pt" viewBox="0 0 512.000000 512.000000"
 preserveAspectRatio="xMidYMid meet">
<metadata>
Created by potrace 1.11, written by Peter Selinger 2001-2013
</metadata>
<g transform="translate(0.000000,512.000000) scale(0.100000,-0.100000)"
fill="#000000" stroke="none">
<path d="M2350 5100 c0 -5 5 -10 11 -10 5 0 7 5 4 10 -3 6 -8 10 -11 10 -2 0
-4 -4 -4 -10z"/>
<path d="M2256 5086 c7 -18 23 -20 44 -5 12 9 12 10 -4 5 -10 -4 -25 -1 -32 5
-12 10 -13 9 -8 -5z"/>
<path d="M2765 5084 c9 -9 19 -13 23 -10 3 4 0 11 -8 16 -24 15 -33 11 -15 -6z"/>
<path d="M2819 5088 c-1 -7 -1 -15 -1 -18 0 -3 -107 -6 -238 -5 -131 0 -236 3
-234 6 1 3 -3 6 -11 6 -8 0 -12 -4 -9 -8 2 -4 -4 -8 -13 -8 -10 1 -31 -2 -46
-5 -19 -4 -26 -3 -22 4 3 5 2 10 -3 10 -6 0 -13 -8 -16 -17 -6 -15 -8 -15 -16
-3 -6 8 -10 10 -10 5 0 -6 -8 -11 -17 -11 -10 -1 -31 -5 -48 -9 -25 -7 -28 -6
-20 6 6 8 2 6 -7 -4 -10 -11 -18 -14 -18 -8 0 7 -8 6 -23 -4 -13 -8 -33 -13
-45 -10 -12 2 -22 0 -22 -6 0 -5 -4 -9 -10 -9 -5 0 -7 8 -3 18 4 12 -1 10 -17
-7 -15 -15 -25 -20 -28 -13 -2 7 -8 12 -13 12 -6 0 -8 -4 -5 -9 5 -7 -17 -16
-99 -37 -5 -1 -30 -9 -54 -18 -52 -19 -75 -21 -65 -4 4 7 3 8 -4 4 -6 -4 -8
-14 -5 -24 6 -15 5 -15 -10 -3 -15 12 -17 11 -17 -4 0 -17 -1 -17 -22 1 -12
10 -18 14 -15 7 4 -6 4 -13 0 -16 -5 -2 -2 -2 5 0 7 1 10 -2 7 -7 -3 -6 -15
-10 -27 -10 -14 0 -18 5 -14 16 3 9 2 12 -4 9 -6 -4 -9 -14 -8 -22 2 -9 -3
-18 -10 -20 -8 -3 -10 2 -6 14 3 10 -2 7 -10 -7 -8 -14 -16 -20 -16 -15 0 6
-7 1 -15 -9 -8 -11 -18 -16 -22 -13 -3 4 -15 -1 -26 -10 -10 -10 -20 -16 -21
-14 0 3 -14 -4 -29 -14 -23 -15 -33 -16 -48 -7 -26 16 -37 15 -14 -1 12 -10
14 -16 7 -21 -7 -4 -12 -3 -12 2 0 6 -14 -3 -31 -19 -17 -16 -35 -29 -40 -29
-18 0 -24 -3 -37 -19 -11 -13 -12 -13 -7 -1 4 9 1 8 -8 -3 -8 -10 -17 -15 -20
-10 -6 10 14 40 28 41 5 0 10 5 11 12 2 6 1 7 -3 0 -2 -5 -9 -8 -13 -5 -10 6
-34 -32 -35 -54 0 -7 -15 -22 -33 -31 -19 -10 -41 -25 -51 -34 -10 -9 -22 -16
-28 -16 -6 0 -14 -6 -16 -12 -4 -10 -8 -9 -16 2 -8 12 -6 16 12 22 21 6 21 6
1 7 -28 1 -35 -8 -24 -29 8 -14 4 -22 -18 -36 -15 -9 -33 -26 -40 -36 -7 -10
-20 -18 -28 -18 -8 0 -14 -4 -14 -10 0 -5 -5 -10 -11 -10 -5 0 -7 6 -3 13 4 7
3 9 -2 4 -5 -5 -10 -13 -10 -18 -1 -5 -2 -13 -3 -19 0 -5 -6 -10 -12 -10 -6 0
-8 7 -5 16 3 9 2 12 -5 9 -6 -4 -8 -13 -5 -20 7 -19 -39 -59 -56 -49 -16 11
-42 15 -33 6 4 -4 11 -8 16 -8 5 -1 11 -2 14 -3 3 0 -2 -13 -12 -27 -15 -23
-18 -24 -29 -10 -10 14 -12 14 -12 -7 0 -24 -46 -80 -56 -69 -3 3 -6 0 -6 -6
0 -18 -57 -75 -69 -68 -6 4 -11 2 -11 -3 0 -6 5 -11 11 -11 5 0 7 -5 3 -11 -4
-8 -13 -4 -26 12 -14 18 -17 20 -11 5 5 -14 3 -17 -7 -11 -9 5 -11 4 -6 -4 4
-6 12 -9 17 -6 5 4 9 0 9 -8 0 -8 -7 -17 -15 -21 -8 -3 -15 -11 -15 -19 0 -7
-11 -24 -24 -36 -18 -17 -25 -19 -30 -9 -3 7 -3 3 -1 -8 4 -14 0 -24 -10 -28
-9 -3 -13 -11 -9 -18 5 -7 2 -9 -8 -5 -12 4 -14 1 -11 -14 3 -11 0 -19 -6 -19
-7 0 -10 4 -6 9 3 5 0 13 -6 17 -8 5 -9 3 -4 -6 6 -10 4 -12 -8 -7 -10 3 -17
2 -17 -3 0 -6 7 -10 16 -10 9 0 14 -6 11 -12 -2 -7 -10 -12 -16 -10 -7 1 -11
-3 -10 -10 3 -25 -1 -38 -12 -38 -6 0 -8 10 -5 23 3 12 3 16 0 9 -3 -6 -10 -9
-16 -6 -6 4 -5 -3 2 -16 12 -23 6 -55 -9 -46 -5 3 -12 -1 -15 -10 -4 -10 -2
-13 7 -9 6 4 4 0 -6 -8 -10 -9 -18 -17 -17 -19 6 -14 -24 -60 -45 -68 -31 -12
-33 -20 -2 -14 12 2 16 2 10 -2 -7 -3 -13 -11 -13 -19 0 -7 -7 -18 -15 -25 -8
-7 -12 -17 -8 -23 4 -6 1 -7 -6 -3 -8 5 -12 3 -10 -5 3 -24 -25 -80 -38 -75
-7 3 -17 -4 -23 -15 -6 -10 -7 -18 -3 -17 15 5 14 -13 -3 -57 -9 -25 -21 -45
-27 -45 -6 0 -8 -3 -4 -6 3 -3 1 -18 -5 -33 -5 -14 -12 -35 -14 -46 -3 -11 -7
-27 -9 -35 -2 -8 -4 -18 -4 -22 -1 -5 -5 -8 -10 -8 -5 0 -7 10 -5 23 4 21 4
20 -6 -2 -8 -18 -7 -26 1 -31 8 -6 8 -14 -2 -31 -11 -22 -16 -38 -21 -76 -1
-7 -5 -13 -10 -13 -5 0 -6 -4 -3 -10 3 -5 1 -10 -4 -10 -6 0 -11 -5 -11 -11 0
-6 6 -7 13 -2 6 4 4 -6 -7 -21 -10 -16 -13 -25 -7 -22 14 9 14 5 -4 -37 -8
-20 -12 -42 -9 -50 3 -8 -2 -17 -10 -20 -9 -4 -16 -12 -16 -19 0 -9 3 -9 10 2
12 18 5 -35 -10 -74 -6 -17 -5 -26 3 -30 9 -3 9 -5 0 -5 -7 -1 -10 -8 -6 -18
5 -12 3 -14 -8 -8 -11 7 -12 6 -2 -6 6 -8 9 -20 5 -26 -4 -6 -7 -39 -6 -72 0
-34 -3 -61 -7 -61 -4 0 -5 -10 -2 -22 4 -19 3 -20 -6 -8 -7 9 -11 11 -11 3 0
-7 8 -17 18 -22 9 -6 12 -11 5 -11 -7 0 -10 -7 -6 -17 4 -11 3 -14 -5 -9 -7 4
-12 2 -12 -3 0 -6 4 -11 9 -11 5 0 9 -20 8 -45 -1 -40 -3 -44 -22 -40 -17 4
-17 4 2 -6 18 -9 23 -21 23 -50 0 -21 -4 -41 -10 -44 -5 -3 -10 -12 -10 -18 0
-7 4 -6 10 3 11 17 11 18 14 -33 3 -36 1 -38 -20 -34 -13 2 -21 0 -18 -4 3 -5
14 -9 25 -9 11 0 17 -4 14 -10 -3 -5 -3 -10 2 -10 4 0 9 -20 9 -45 1 -28 -2
-42 -9 -38 -6 4 -7 1 -2 -7 6 -10 4 -12 -9 -7 -10 4 -15 3 -11 -4 4 -5 15 -7
25 -4 15 5 18 1 16 -18 -2 -13 -6 -29 -10 -35 -4 -7 -2 -10 6 -7 18 7 21 -34
5 -54 -9 -12 -9 -13 1 -7 6 4 13 2 13 -3 1 -6 2 -17 3 -23 1 -7 -5 -18 -14
-25 -13 -10 -12 -11 6 -7 15 4 23 0 27 -15 3 -12 -1 -22 -9 -25 -8 -3 -14 -16
-13 -28 1 -22 1 -22 8 2 l7 25 13 -24 c8 -14 9 -21 2 -17 -6 4 -11 2 -11 -3 0
-6 4 -11 9 -11 15 0 23 -51 10 -66 -10 -12 -9 -13 5 -8 10 4 16 1 17 -7 2 -24
5 -33 17 -62 7 -16 12 -34 12 -40 0 -7 7 -22 15 -33 8 -12 12 -23 10 -26 -3
-2 6 -28 20 -56 14 -29 25 -58 25 -65 0 -7 5 -18 11 -24 7 -7 8 -19 4 -30 -13
-29 -13 -40 -3 -54 8 -11 9 -10 4 4 -8 24 21 22 34 -3 6 -11 8 -20 5 -20 -4 0
1 -7 9 -16 9 -8 16 -24 16 -35 0 -11 5 -17 10 -14 6 3 10 0 10 -8 0 -23 -12
-28 -27 -9 -13 15 -13 15 -3 -6 9 -18 14 -21 25 -12 11 9 17 5 30 -21 14 -26
15 -33 3 -41 -10 -7 -9 -8 5 -6 11 2 25 -8 35 -25 15 -24 15 -29 2 -38 -13 -8
-12 -9 4 -7 12 2 31 -15 61 -57 24 -33 44 -65 44 -72 1 -6 6 -13 12 -15 9 -3
9 -10 0 -28 -11 -22 -10 -23 2 -8 13 17 15 17 32 -2 14 -15 15 -23 6 -33 -9
-11 -8 -17 4 -27 9 -7 15 -8 15 -2 0 6 -5 12 -12 14 -8 3 -9 7 -2 11 6 3 25
-9 42 -28 17 -20 25 -35 17 -35 -7 0 -15 -7 -19 -15 -4 -12 -2 -13 14 -3 15
10 23 9 39 -6 11 -10 17 -24 14 -34 -4 -10 -2 -13 5 -8 6 3 15 -2 21 -11 6
-10 11 -15 11 -10 0 4 23 -18 50 -48 28 -30 50 -53 50 -49 0 3 22 -17 50 -44
27 -27 50 -55 50 -60 0 -6 5 -14 12 -18 8 -5 9 -2 4 11 -5 15 -4 16 9 5 8 -7
15 -19 15 -28 0 -8 3 -12 7 -9 3 4 12 -1 20 -11 9 -10 12 -11 7 -2 -5 10 -1 9
14 -4 12 -10 19 -23 15 -29 -3 -6 -1 -7 5 -3 7 4 48 -18 95 -52 45 -33 96 -67
114 -76 21 -11 30 -21 27 -31 -4 -8 -2 -15 4 -15 6 0 12 6 15 13 3 9 10 7 24
-6 11 -10 40 -28 64 -40 26 -13 43 -28 41 -36 -3 -12 -1 -12 13 -1 12 10 19
10 28 1 9 -9 9 -14 -2 -20 -9 -6 -5 -9 14 -9 20 0 24 3 14 10 -18 12 -7 8 69
-26 34 -16 62 -32 62 -37 0 -5 7 -5 17 -2 10 4 14 2 10 -4 -5 -7 0 -9 13 -6
11 3 27 -1 36 -8 9 -8 24 -14 33 -14 11 0 15 -8 14 -25 l-3 -25 15 25 c14 24
16 23 19 -9 1 -16 42 -25 50 -12 3 4 -6 7 -19 5 -14 -1 -25 2 -25 6 0 12 16
21 24 13 4 -4 12 -8 19 -9 34 -6 43 -11 55 -34 11 -22 12 -22 9 -3 -4 16 -1
20 12 16 9 -3 22 -11 30 -17 12 -9 13 -8 6 3 -5 10 -4 12 4 7 11 -7 56 -18 79
-19 6 0 12 -3 12 -7 0 -3 17 -7 38 -9 20 -1 47 -3 60 -4 12 -1 22 -6 22 -10 0
-5 4 -6 9 -2 5 3 12 1 16 -5 3 -5 1 -10 -6 -10 -7 0 -9 -3 -5 -7 4 -5 14 0 21
10 8 11 16 14 19 8 4 -6 13 -8 21 -4 9 3 22 0 29 -6 10 -8 16 -9 21 -1 3 6 12
7 18 3 7 -5 28 -9 47 -10 74 -3 377 -2 415 2 145 14 186 14 180 2 -4 -6 -1 -5
7 3 16 18 58 26 58 10 0 -6 -4 -9 -9 -5 -15 9 -25 -15 -12 -28 9 -9 10 -7 5 7
-5 14 -4 17 5 12 8 -5 14 -1 18 13 6 24 14 26 32 9 9 -9 12 -9 7 -1 -6 11 22
26 40 22 5 -1 16 0 24 3 18 7 97 27 125 32 11 1 33 8 48 15 16 6 32 9 37 6 4
-3 13 2 20 10 7 8 23 15 36 15 13 0 24 5 24 11 0 5 5 7 10 4 6 -4 18 -1 27 7
9 7 18 12 19 11 6 -4 33 7 103 40 62 29 65 29 78 11 13 -17 14 -17 7 10 -5 21
-4 27 5 22 7 -4 18 -2 26 4 8 7 15 9 15 4 0 -5 5 -1 10 8 6 9 24 19 40 23 17
4 30 10 30 15 0 5 14 15 30 24 17 8 28 10 25 5 -3 -5 1 -6 9 -3 9 3 13 11 9
17 -3 6 -1 7 5 3 7 -4 12 -4 12 1 0 13 69 56 93 58 12 1 25 -5 29 -14 6 -12 7
-11 5 4 -2 11 -9 19 -15 18 -7 -2 -12 1 -12 5 0 12 49 33 61 27 5 -3 6 0 3 8
-3 9 7 22 27 35 30 18 34 19 44 5 10 -13 14 -13 20 -3 5 9 4 11 -3 6 -21 -13
-13 22 9 43 20 18 23 19 48 4 23 -13 24 -13 7 0 -10 9 -16 22 -13 29 4 10 6
10 6 1 1 -7 6 -13 12 -13 5 0 7 5 4 10 -4 6 15 31 41 55 53 50 56 52 47 28 -7
-19 -5 -18 17 11 10 13 10 17 3 12 -7 -4 -13 -2 -13 3 0 15 27 14 34 -1 3 -7
3 -3 1 9 -3 12 -1 25 6 29 18 11 53 11 62 -1 5 -6 7 -4 4 5 -2 8 -11 14 -21
12 -30 -5 -21 7 109 140 28 29 43 48 35 43 -8 -5 -4 3 9 17 23 24 69 29 54 5
-3 -6 -1 -7 6 -3 14 9 5 26 -15 26 -20 0 -18 16 5 32 10 7 20 18 22 23 2 6 13
9 24 7 20 -3 20 -3 0 12 -19 14 -19 15 -2 21 9 4 17 13 17 19 0 7 9 22 19 33
11 12 17 24 14 27 -4 3 -1 6 5 6 7 0 12 7 12 15 0 8 5 15 10 15 6 0 10 7 10
16 0 11 6 14 23 10 12 -3 16 -3 10 0 -17 8 -16 29 2 44 8 7 13 16 10 20 -3 5
-1 11 5 15 6 3 17 22 25 41 8 19 19 34 25 34 6 0 8 5 5 10 -3 6 -1 10 5 10 6
0 8 4 5 10 -3 5 6 31 20 57 14 26 24 40 21 31 -3 -10 0 -20 6 -24 7 -4 8 -3 4
4 -7 11 6 17 27 13 5 -1 6 3 2 9 -3 6 -10 8 -15 5 -13 -8 -18 18 -9 44 7 17
12 21 22 13 8 -7 18 -8 27 -1 12 8 11 9 -5 7 -15 -2 -19 2 -18 17 5 48 16 86
26 92 6 4 8 0 5 -9 -4 -8 0 -15 7 -15 11 0 11 5 3 20 -7 14 -7 22 2 27 9 6 9
9 -1 14 -8 3 -2 4 13 2 15 -1 25 1 22 5 -3 5 -12 9 -20 9 -17 0 -18 -5 6 57
11 29 17 53 12 53 -4 0 -2 4 4 8 7 4 13 21 15 37 2 17 7 35 12 42 5 7 6 17 2
23 -3 5 1 13 10 16 13 5 14 9 4 15 -9 5 -10 11 -2 21 6 7 9 21 8 30 -2 9 3 19
11 22 8 3 14 11 14 18 0 9 -3 9 -10 -2 -6 -10 -8 -4 -7 22 1 26 5 34 14 27 7
-7 14 -6 19 2 4 7 3 9 -3 6 -6 -4 -14 0 -17 9 -8 21 -8 24 5 24 5 0 7 -5 3
-12 -4 -7 -3 -8 5 -4 8 5 9 12 2 20 -17 20 -8 71 12 70 9 -1 15 2 12 6 -3 5 1
11 7 14 7 3 1 3 -15 -1 -25 -5 -27 -4 -18 19 5 13 7 36 6 51 -2 18 1 27 11 27
8 0 14 5 14 11 0 5 -4 7 -10 4 -6 -4 -10 5 -10 20 0 18 4 24 13 19 9 -6 9 -4
-1 8 -10 13 -10 17 0 21 10 4 10 6 1 6 -7 1 -13 5 -13 11 0 12 22 9 33 -5 5
-6 7 -4 4 5 -2 8 -10 15 -18 15 -21 0 -20 105 1 106 13 0 13 1 0 7 -20 9 -24
72 -4 72 9 0 12 -5 8 -12 -4 -7 -3 -8 5 -4 14 9 5 26 -13 26 -8 0 -13 13 -14
30 0 17 -4 40 -7 51 -6 17 -4 20 6 13 11 -6 12 -5 2 7 -17 21 -14 32 10 47 22
13 22 13 -2 6 -16 -4 -21 -3 -17 5 4 6 3 11 -2 11 -5 0 -9 7 -9 15 0 8 4 15 9
15 4 0 8 -5 8 -12 0 -6 3 -8 7 -4 5 4 -1 14 -11 22 -11 8 -17 14 -13 14 4 0 2
12 -4 27 -9 24 -7 30 11 45 12 10 18 18 13 18 -5 0 -14 -5 -21 -12 -7 -7 -12
-8 -13 -2 0 5 -2 18 -4 29 -3 11 -5 35 -7 53 -1 17 -5 32 -9 32 -4 0 -7 8 -7
18 1 19 -6 51 -21 100 -5 17 -7 32 -4 32 3 0 1 6 -4 13 -10 11 -26 59 -28 82
0 6 -6 20 -13 32 -15 28 -15 36 1 28 6 -4 5 -1 -4 7 -8 7 -18 22 -22 33 -7 19
-6 19 7 2 12 -16 14 -16 20 -2 3 9 2 13 -4 10 -6 -3 -10 -1 -10 4 0 6 -7 11
-15 11 -8 0 -15 7 -15 15 0 23 4 30 16 29 6 -1 11 5 11 12 0 9 -5 10 -18 3
-22 -12 -32 -12 -24 0 3 5 -1 16 -10 24 -13 13 -13 16 0 21 17 6 20 26 4 26
-5 0 -7 -5 -3 -11 4 -7 1 -10 -7 -7 -8 3 -13 13 -11 23 2 11 -1 14 -9 9 -8 -5
-10 -3 -4 6 4 7 3 15 -3 19 -6 3 -12 13 -14 21 -2 8 -9 21 -15 28 -10 10 -10
19 -2 35 9 18 9 20 -2 10 -10 -10 -16 -7 -29 15 -13 21 -14 29 -4 37 8 7 9 16
3 30 -9 19 -9 18 -5 -2 3 -15 -1 -23 -10 -23 -8 0 -14 9 -14 20 0 11 -5 20
-11 20 -6 0 -9 7 -5 15 3 9 0 15 -9 15 -18 0 -20 17 -2 23 6 2 4 3 -6 1 -10
-1 -21 5 -24 14 -4 9 -15 30 -26 46 -16 23 -17 30 -6 36 7 5 17 6 23 3 5 -3 6
-1 2 5 -5 8 -13 9 -26 2 -18 -10 -25 -5 -45 29 -6 10 -4 12 5 6 9 -5 11 -4 6
3 -4 7 -14 12 -23 12 -10 0 -14 6 -10 19 3 12 -1 18 -11 17 -21 -1 -28 34 -10
45 9 6 9 9 1 9 -6 0 -15 -5 -18 -10 -4 -6 -11 -7 -17 -4 -6 4 -5 10 3 15 10 6
7 9 -11 9 -18 0 -21 3 -12 9 10 6 9 10 -7 14 -12 3 -21 10 -21 16 0 6 6 8 14
5 8 -3 17 -1 21 5 3 7 0 8 -9 5 -11 -4 -14 0 -11 15 3 15 0 18 -12 14 -12 -5
-14 -3 -8 7 5 9 4 11 -3 6 -18 -11 -14 -26 5 -26 14 0 15 -2 4 -12 -10 -11
-14 -9 -22 5 -6 9 -21 28 -35 42 -14 14 -22 25 -19 25 5 0 -32 33 -65 58 -2 1
2 8 10 13 13 9 12 10 -1 6 -20 -7 -62 30 -53 45 4 6 3 8 -3 5 -6 -4 -37 18
-69 48 -31 30 -60 55 -63 55 -3 0 -19 13 -36 28 -16 15 -46 39 -65 52 -19 13
-37 27 -40 30 -10 11 -66 47 -82 53 -10 3 -18 14 -18 24 0 15 -2 16 -10 3 -5
-8 -10 -10 -10 -4 0 6 -12 16 -26 22 -14 7 -22 17 -18 23 4 7 1 10 -7 7 -17
-6 -89 28 -89 42 0 6 -3 9 -7 8 -15 -4 -53 13 -53 23 0 6 -4 7 -10 4 -5 -3
-10 -2 -10 4 0 6 -7 7 -17 4 -11 -4 -14 -3 -9 5 5 8 0 12 -13 12 -12 0 -21 6
-21 14 0 20 -17 29 -26 15 -4 -8 -3 -9 4 -5 7 4 12 2 12 -3 0 -14 -17 -14 -25
-1 -4 6 -11 7 -17 4 -6 -4 -9 -1 -6 7 3 8 10 14 15 14 6 0 15 4 20 9 5 5 3 6
-4 2 -8 -4 -13 -2 -13 6 0 8 -5 6 -11 -4 -5 -10 -17 -18 -25 -18 -9 0 -12 5
-8 12 5 8 2 9 -10 5 -10 -4 -23 -4 -29 0 -7 4 -14 8 -17 9 -19 4 -49 21 -50
28 -1 5 4 13 12 18 10 8 10 9 -2 5 -8 -2 -16 -9 -16 -15 -3 -25 -5 -27 -14
-12 -5 8 -18 15 -28 16 -11 1 -44 9 -73 19 -30 10 -60 19 -67 21 -7 2 -10 9
-7 14 8 13 -14 42 -26 34 -5 -3 -9 -13 -8 -22 0 -14 2 -14 8 2 6 15 10 16 15
7 13 -20 -8 -35 -32 -22 -10 6 -23 7 -27 3 -5 -4 -5 -1 -1 6 5 8 3 13 -5 11
-35 -4 -80 2 -74 11 3 5 -9 8 -30 6 -38 -4 -46 7 -17 23 15 9 15 10 1 11 -9 0
-19 -6 -22 -14 -8 -21 -64 -14 -83 10 -12 15 -14 15 -11 2 4 -11 1 -15 -11
-13 -9 2 -19 4 -22 4 -3 1 2 6 10 11 9 6 10 10 3 10 -6 0 -14 -4 -18 -9 -8
-13 -65 -10 -66 3 -1 6 -1 17 0 24 1 6 -1 12 -4 12 -3 0 -6 -6 -6 -12z m-2544
-1478 c3 -5 1 -10 -4 -10 -6 0 -11 5 -11 10 0 6 2 10 4 10 3 0 8 -4 11 -10z
m10 -2110 c3 -5 -1 -10 -10 -10 -9 0 -13 5 -10 10 3 6 8 10 10 10 2 0 7 -4 10
-10z"/>
<path d="M2846 5085 c-9 -26 -7 -32 5 -12 6 10 9 21 6 23 -2 3 -7 -2 -11 -11z"/>
<path d="M2205 5080 c-16 -7 -17 -9 -3 -9 9 -1 20 4 23 9 7 11 7 11 -20 0z"/>
<path d="M2876 5078 c3 -5 10 -6 15 -3 13 9 11 12 -6 12 -8 0 -12 -4 -9 -9z"/>
<path d="M2970 5071 c0 -6 4 -13 10 -16 6 -3 7 1 4 9 -7 18 -14 21 -14 7z"/>
<path d="M2056 5062 c-2 -4 -1 -14 4 -22 7 -11 9 -9 7 8 -1 24 -3 26 -11 14z"/>
<path d="M2090 5060 c-9 -6 -10 -10 -3 -10 6 0 15 5 18 10 8 12 4 12 -15 0z"/>
<path d="M2150 5060 c-8 -5 -10 -10 -5 -10 6 0 17 5 25 10 8 5 11 10 5 10 -5
0 -17 -5 -25 -10z"/>
<path d="M3005 5059 c-4 -6 -5 -12 -2 -15 2 -3 7 2 10 11 7 17 1 20 -8 4z"/>
<path d="M1960 5035 c-7 -9 -11 -17 -9 -20 3 -2 10 5 17 15 14 24 10 26 -8 5z"/>
<path d="M2005 5040 c-3 -5 -1 -10 4 -10 6 0 11 5 11 10 0 6 -2 10 -4 10 -3 0
-8 -4 -11 -10z"/>
<path d="M1876 5005 c-3 -8 -1 -15 4 -15 6 0 10 7 10 15 0 8 -2 15 -4 15 -2 0
-6 -7 -10 -15z"/>
<path d="M1788 4993 c7 -3 16 -2 19 1 4 3 -2 6 -13 5 -11 0 -14 -3 -6 -6z"/>
<path d="M3270 4990 c-8 -5 -10 -10 -5 -10 6 0 17 5 25 10 8 5 11 10 5 10 -5
0 -17 -5 -25 -10z"/>
<path d="M1815 4980 c-3 -6 1 -7 9 -4 18 7 21 14 7 14 -6 0 -13 -4 -16 -10z"/>
<path d="M3310 4981 c0 -6 4 -13 10 -16 6 -3 7 1 4 9 -7 18 -14 21 -14 7z"/>
<path d="M3335 4980 c3 -5 8 -10 11 -10 2 0 4 5 4 10 0 6 -5 10 -11 10 -5 0
-7 -4 -4 -10z"/>
<path d="M1720 4955 c0 -8 2 -15 4 -15 2 0 6 7 10 15 3 8 1 15 -4 15 -6 0 -10
-7 -10 -15z"/>
<path d="M3356 4962 c-3 -4 4 -9 15 -9 23 -2 25 3 4 10 -8 4 -16 3 -19 -1z"/>
<path d="M3415 4960 c-3 -5 -1 -10 4 -10 6 0 11 5 11 10 0 6 -2 10 -4 10 -3 0
-8 -4 -11 -10z"/>
<path d="M1650 4939 c0 -5 5 -7 10 -4 6 3 10 8 10 11 0 2 -4 4 -10 4 -5 0 -10
-5 -10 -11z"/>
<path d="M3470 4925 c0 -8 4 -15 10 -15 5 0 7 7 4 15 -4 8 -8 15 -10 15 -2 0
-4 -7 -4 -15z"/>
<path d="M3515 4909 c-4 -6 -5 -12 -2 -15 2 -3 7 2 10 11 7 17 1 20 -8 4z"/>
<path d="M3540 4906 c0 -2 7 -7 16 -10 8 -3 12 -2 9 4 -6 10 -25 14 -25 6z"/>
<path d="M1484 4872 c3 -6 -2 -13 -11 -15 -16 -4 -16 -5 -1 -6 21 -1 32 15 17
25 -7 4 -9 3 -5 -4z"/>
<path d="M1515 4869 c-4 -6 -5 -12 -2 -15 2 -3 7 2 10 11 7 17 1 20 -8 4z"/>
<path d="M3636 4867 c3 -10 9 -15 12 -12 3 3 0 11 -7 18 -10 9 -11 8 -5 -6z"/>
<path d="M3670 4850 c-9 -6 -10 -10 -3 -10 6 0 15 5 18 10 8 12 4 12 -15 0z"/>
<path d="M1436 4835 c-9 -26 -7 -32 5 -12 6 10 9 21 6 23 -2 3 -7 -2 -11 -11z"/>
<path d="M3710 4830 c0 -5 5 -10 11 -10 5 0 7 5 4 10 -3 6 -8 10 -11 10 -2 0
-4 -4 -4 -10z"/>
<path d="M3730 4800 c0 -5 5 -10 10 -10 6 0 10 5 10 10 0 6 -4 10 -10 10 -5 0
-10 -4 -10 -10z"/>
<path d="M3770 4800 c0 -5 5 -10 11 -10 5 0 7 5 4 10 -3 6 -8 10 -11 10 -2 0
-4 -4 -4 -10z"/>
<path d="M1335 4780 c3 -5 8 -10 11 -10 2 0 4 5 4 10 0 6 -5 10 -11 10 -5 0
-7 -4 -4 -10z"/>
<path d="M3802 4781 c-10 -6 -10 -10 2 -20 11 -9 16 -9 22 0 5 8 3 9 -6 4 -10
-6 -12 -4 -7 8 7 19 7 20 -11 8z"/>
<path d="M1310 4760 c-9 -6 -10 -10 -3 -10 6 0 15 5 18 10 8 12 4 12 -15 0z"/>
<path d="M3835 4750 c-3 -5 -1 -10 4 -10 6 0 11 5 11 10 0 6 -2 10 -4 10 -3 0
-8 -4 -11 -10z"/>
<path d="M1176 4702 c-2 -4 0 -14 6 -22 8 -12 9 -12 5 2 -3 9 -1 19 6 22 9 3
9 5 0 5 -6 1 -14 -3 -17 -7z"/>
<path d="M3937 4699 c7 -7 15 -10 18 -7 3 3 -2 9 -12 12 -14 6 -15 5 -6 -5z"/>
<path d="M1144 4675 c-4 -8 -11 -12 -17 -8 -6 3 -7 1 -3 -5 10 -16 14 -15 26
8 6 11 8 20 5 20 -3 0 -8 -7 -11 -15z"/>
<path d="M3955 4674 c-20 -16 -19 -16 4 -9 18 5 22 4 16 -5 -5 -8 -4 -11 3 -6
6 4 9 13 5 21 -6 18 -3 18 -28 -1z"/>
<path d="M1110 4640 c0 -5 5 -10 11 -10 5 0 7 5 4 10 -3 6 -8 10 -11 10 -2 0
-4 -4 -4 -10z"/>
<path d="M3997 4644 c7 -3 15 -5 19 -4 4 1 11 -4 16 -12 8 -11 9 -10 6 1 -2 8
-15 15 -29 17 -13 1 -18 0 -12 -2z"/>
<path d="M4054 4612 c-9 -5 -8 -10 1 -19 11 -10 13 -9 12 7 -1 11 -1 20 -2 20
0 0 -5 -4 -11 -8z"/>
<path d="M1021 4596 c-8 -10 -9 -16 -1 -21 6 -4 9 -1 8 7 -2 7 3 12 10 10 8
-1 11 2 7 8 -8 13 -10 13 -24 -4z"/>
<path d="M4095 4579 c-4 -6 -4 -13 -1 -16 3 -4 6 -1 6 6 0 7 5 9 12 5 7 -4 8
-3 4 4 -9 15 -13 15 -21 1z"/>
<path d="M990 4555 c0 -8 2 -15 4 -15 2 0 6 7 10 15 3 8 1 15 -4 15 -6 0 -10
-7 -10 -15z"/>
<path d="M4137 4559 c7 -7 15 -10 18 -7 3 3 -2 9 -12 12 -14 6 -15 5 -6 -5z"/>
<path d="M956 4545 c-9 -26 -7 -32 5 -12 6 10 9 21 6 23 -2 3 -7 -2 -11 -11z"/>
<path d="M919 4513 c-13 -16 -12 -17 4 -4 9 7 17 15 17 17 0 8 -8 3 -21 -13z"/>
<path d="M4152 4516 c7 -8 15 -12 17 -11 5 6 -10 25 -20 25 -5 0 -4 -6 3 -14z"/>
<path d="M4200 4510 c6 -11 13 -20 16 -20 2 0 0 9 -6 20 -6 11 -13 20 -16 20
-2 0 0 -9 6 -20z"/>
<path d="M4234 4482 c3 -5 0 -13 -6 -15 -9 -4 -10 -6 -1 -6 17 -1 25 16 12 25
-7 4 -9 3 -5 -4z"/>
<path d="M875 4461 c-3 -5 -2 -12 3 -15 5 -3 9 1 9 9 0 17 -3 19 -12 6z"/>
<path d="M845 4451 c-6 -11 13 -26 22 -17 4 3 1 6 -6 6 -7 0 -9 5 -6 10 3 6 4
10 1 10 -3 0 -7 -4 -11 -9z"/>
<path d="M4270 4420 c0 -5 5 -10 10 -10 6 0 10 5 10 10 0 6 -4 10 -10 10 -5 0
-10 -4 -10 -10z"/>
<path d="M806 4397 c3 -10 9 -15 12 -12 3 3 0 11 -7 18 -10 9 -11 8 -5 -6z"/>
<path d="M4312 4396 c7 -8 15 -12 17 -11 5 6 -10 25 -20 25 -5 0 -4 -6 3 -14z"/>
<path d="M4330 4360 c0 -5 5 -10 10 -10 6 0 10 5 10 10 0 6 -4 10 -10 10 -5 0
-10 -4 -10 -10z"/>
<path d="M722 4328 c2 -7 -2 -12 -9 -11 -7 2 -10 -4 -6 -13 3 -8 6 -14 7 -12
1 2 7 10 14 20 9 11 10 18 2 23 -6 4 -9 1 -8 -7z"/>
<path d="M4377 4325 c-4 -8 -3 -16 1 -19 4 -3 9 4 9 15 2 23 -3 25 -10 4z"/>
<path d="M4410 4290 c-9 -6 -10 -10 -3 -10 6 0 15 5 18 10 8 12 4 12 -15 0z"/>
<path d="M678 4273 c7 -3 16 -2 19 1 4 3 -2 6 -13 5 -11 0 -14 -3 -6 -6z"/>
<path d="M4430 4270 c0 -5 5 -10 11 -10 5 0 7 5 4 10 -3 6 -8 10 -11 10 -2 0
-4 -4 -4 -10z"/>
<path d="M4450 4240 c0 -5 5 -10 10 -10 6 0 10 5 10 10 0 6 -4 10 -10 10 -5 0
-10 -4 -10 -10z"/>
<path d="M596 4173 c-6 -14 -5 -15 5 -6 7 7 10 15 7 18 -3 3 -9 -2 -12 -12z"/>
<path d="M571 4153 c-1 -17 16 -25 25 -12 4 7 3 9 -4 5 -5 -3 -13 0 -15 6 -4
9 -6 10 -6 1z"/>
<path d="M4540 4146 c0 -2 7 -7 16 -10 8 -3 12 -2 9 4 -6 10 -25 14 -25 6z"/>
<path d="M550 4136 c0 -2 8 -10 18 -17 15 -13 16 -12 3 4 -13 16 -21 21 -21
13z"/>
<path d="M4590 4103 c0 -6 8 -17 18 -24 16 -13 16 -13 2 6 -8 11 -16 22 -17
24 -2 2 -3 0 -3 -6z"/>
<path d="M499 4066 c-9 -19 -9 -19 4 -4 8 10 16 15 19 12 4 -3 8 -1 12 4 3 5
-2 9 -10 9 -8 0 -20 -10 -25 -21z"/>
<path d="M4641 4012 c-7 -13 -6 -19 2 -19 7 0 13 9 13 19 0 10 -1 18 -3 18 -1
0 -7 -8 -12 -18z"/>
<path d="M395 3930 c-8 -13 9 -20 24 -11 10 6 9 10 -3 14 -8 3 -18 2 -21 -3z"/>
<path d="M4708 3893 c7 -3 16 -2 19 1 4 3 -2 6 -13 5 -11 0 -14 -3 -6 -6z"/>
<path d="M357 3841 c-3 -12 0 -24 5 -28 6 -3 8 -1 4 5 -3 5 -2 12 4 14 5 2 6
9 1 16 -6 10 -10 9 -14 -7z"/>
<path d="M325 3800 c-3 -6 1 -7 9 -4 18 7 21 14 7 14 -6 0 -13 -4 -16 -10z"/>
<path d="M4786 3761 c-3 -4 6 -7 19 -7 14 0 22 2 19 5 -8 8 -34 10 -38 2z"/>
<path d="M311 3751 c-8 -5 -16 -20 -17 -33 -2 -13 0 -17 2 -11 3 7 5 16 5 20
0 5 10 13 22 20 12 7 18 12 12 12 -5 1 -16 -3 -24 -8z"/>
<path d="M284 3675 c-4 -8 -10 -13 -15 -10 -4 3 -13 -5 -19 -17 -10 -21 -10
-21 3 -6 8 10 17 15 20 12 3 -3 10 4 17 15 6 12 8 21 5 21 -3 0 -8 -7 -11 -15z"/>
<path d="M4850 3680 c0 -5 5 -10 11 -10 5 0 7 5 4 10 -3 6 -8 10 -11 10 -2 0
-4 -4 -4 -10z"/>
<path d="M4835 3650 c3 -5 8 -10 11 -10 2 0 4 5 4 10 0 6 -5 10 -11 10 -5 0
-7 -4 -4 -10z"/>
<path d="M215 3580 c-3 -5 -1 -10 4 -10 6 0 11 5 11 10 0 6 -2 10 -4 10 -3 0
-8 -4 -11 -10z"/>
<path d="M4894 3559 c-3 -6 -2 -15 4 -21 6 -6 12 -6 17 3 6 8 4 10 -5 4 -10
-6 -12 -4 -7 8 7 19 2 23 -9 6z"/>
<path d="M198 3503 c7 -3 16 -2 19 1 4 3 -2 6 -13 5 -11 0 -14 -3 -6 -6z"/>
<path d="M170 3479 c0 -5 5 -7 10 -4 6 3 10 8 10 11 0 2 -4 4 -10 4 -5 0 -10
-5 -10 -11z"/>
<path d="M4930 3480 c0 -5 5 -10 11 -10 5 0 7 5 4 10 -3 6 -8 10 -11 10 -2 0
-4 -4 -4 -10z"/>
<path d="M156 3423 c-6 -14 -5 -15 5 -6 7 7 10 15 7 18 -3 3 -9 -2 -12 -12z"/>
<path d="M4950 3420 c0 -5 5 -10 11 -10 5 0 7 5 4 10 -3 6 -8 10 -11 10 -2 0
-4 -4 -4 -10z"/>
<path d="M170 3399 c0 -5 5 -7 10 -4 6 3 10 8 10 11 0 2 -4 4 -10 4 -5 0 -10
-5 -10 -11z"/>
<path d="M135 3369 c-4 -6 -5 -12 -2 -15 2 -3 7 2 10 11 7 17 1 20 -8 4z"/>
<path d="M4958 3363 c7 -3 16 -2 19 1 4 3 -2 6 -13 5 -11 0 -14 -3 -6 -6z"/>
<path d="M126 3302 c-3 -5 1 -9 9 -9 8 0 12 4 9 9 -3 4 -7 8 -9 8 -2 0 -6 -4
-9 -8z"/>
<path d="M110 3260 c-11 -7 -11 -10 -2 -10 8 0 10 -5 6 -12 -4 -7 -3 -9 1 -5
7 6 17 37 12 37 -1 0 -9 -5 -17 -10z"/>
<path d="M4988 3263 c6 -2 18 -2 25 0 6 3 1 5 -13 5 -14 0 -19 -2 -12 -5z"/>
<path d="M92 3204 c-1 -13 0 -24 2 -24 7 0 14 40 7 44 -4 3 -8 -6 -9 -20z"/>
<path d="M5014 3199 c-3 -6 -2 -15 4 -21 6 -6 12 -6 17 3 6 8 4 10 -5 4 -10
-6 -12 -4 -7 8 7 19 2 23 -9 6z"/>
<path d="M5030 3155 c0 -5 5 -17 10 -25 5 -8 10 -10 10 -5 0 6 -5 17 -10 25
-5 8 -10 11 -10 5z"/>
<path d="M80 3120 c0 -5 5 -10 11 -10 5 0 7 5 4 10 -3 6 -8 10 -11 10 -2 0 -4
-4 -4 -10z"/>
<path d="M5028 3103 c7 -3 16 -2 19 1 4 3 -2 6 -13 5 -11 0 -14 -3 -6 -6z"/>
<path d="M75 3079 c-4 -6 -5 -12 -2 -15 2 -3 7 2 10 11 7 17 1 20 -8 4z"/>
<path d="M5049 3064 c6 -3 7 -12 4 -20 -3 -8 -1 -14 5 -14 14 0 8 33 -7 36 -6
1 -7 0 -2 -2z"/>
<path d="M50 3040 c0 -5 5 -10 10 -10 6 0 10 5 10 10 0 6 -4 10 -10 10 -5 0
-10 -4 -10 -10z"/>
<path d="M50 2960 c-9 -6 -10 -10 -3 -10 6 0 15 5 18 10 8 12 4 12 -15 0z"/>
<path d="M5070 2956 c0 -8 4 -17 9 -20 5 -4 7 3 4 14 -6 23 -13 26 -13 6z"/>
<path d="M36 2907 c3 -10 9 -15 12 -12 3 3 0 11 -7 18 -10 9 -11 8 -5 -6z"/>
<path d="M5075 2900 c3 -5 8 -10 11 -10 2 0 4 5 4 10 0 6 -5 10 -11 10 -5 0
-7 -4 -4 -10z"/>
<path d="M30 2831 c0 -7 -5 -9 -12 -5 -7 5 -8 3 -3 -5 5 -9 10 -10 18 -2 6 6
8 14 4 18 -4 3 -7 1 -7 -6z"/>
<path d="M5080 2800 c0 -5 5 -10 10 -10 6 0 10 5 10 10 0 6 -4 10 -10 10 -5 0
-10 -4 -10 -10z"/>
<path d="M30 2765 c0 -8 4 -15 10 -15 5 0 7 7 4 15 -4 8 -8 15 -10 15 -2 0 -4
-7 -4 -15z"/>
<path d="M16 2737 c3 -10 9 -15 12 -12 3 3 0 11 -7 18 -10 9 -11 8 -5 -6z"/>
<path d="M5090 2730 c-9 -6 -10 -10 -3 -10 6 0 15 5 18 10 8 12 4 12 -15 0z"/>
<path d="M10 2700 c-9 -6 -10 -10 -3 -10 6 0 15 5 18 10 8 12 4 12 -15 0z"/>
<path d="M6 2662 c-3 -5 1 -9 9 -9 8 0 12 4 9 9 -3 4 -7 8 -9 8 -2 0 -6 -4 -9
-8z"/>
<path d="M5088 2633 c6 -2 9 -10 6 -15 -4 -7 -2 -8 5 -4 13 9 5 26 -12 25 -9
0 -8 -2 1 -6z"/>
<path d="M5 2599 c-4 -6 -5 -12 -2 -15 2 -3 7 2 10 11 7 17 1 20 -8 4z"/>
<path d="M10 2566 c0 -2 7 -7 16 -10 8 -3 12 -2 9 4 -6 10 -25 14 -25 6z"/>
<path d="M5085 2520 c3 -5 8 -10 11 -10 2 0 4 5 4 10 0 6 -5 10 -11 10 -5 0
-7 -4 -4 -10z"/>
<path d="M5 2499 c-5 -8 -4 -10 0 -6 5 4 15 -3 22 -15 7 -13 12 -18 13 -12 0
5 -6 18 -13 29 -12 15 -15 16 -22 4z"/>
<path d="M10 2440 c0 -5 5 -10 10 -10 6 0 10 5 10 10 0 6 -4 10 -10 10 -5 0
-10 -4 -10 -10z"/>
<path d="M5092 2411 c-11 -7 -11 -9 0 -14 9 -3 15 1 15 9 0 8 -1 14 -1 14 -1
0 -7 -4 -14 -9z"/>
<path d="M30 2380 c0 -5 5 -10 11 -10 5 0 7 5 4 10 -3 6 -8 10 -11 10 -2 0 -4
-4 -4 -10z"/>
<path d="M5085 2330 c10 -11 20 -20 22 -20 2 0 -2 9 -9 20 -7 11 -17 20 -22
20 -5 0 -1 -9 9 -20z"/>
<path d="M5076 2302 c-3 -5 1 -9 9 -9 8 0 12 4 9 9 -3 4 -7 8 -9 8 -2 0 -6 -4
-9 -8z"/>
<path d="M40 2284 c0 -8 -4 -12 -10 -9 -6 3 -7 -1 -4 -9 9 -24 19 -19 22 9 1
14 0 25 -3 25 -3 0 -5 -7 -5 -16z"/>
<path d="M5066 2237 c3 -10 9 -15 12 -12 3 3 0 11 -7 18 -10 9 -11 8 -5 -6z"/>
<path d="M5066 2198 c3 -5 10 -6 15 -3 13 9 11 12 -6 12 -8 0 -12 -4 -9 -9z"/>
<path d="M50 2179 c0 -5 5 -7 10 -4 6 3 10 8 10 11 0 2 -4 4 -10 4 -5 0 -10
-5 -10 -11z"/>
<path d="M5060 2120 c-9 -6 -10 -10 -3 -10 6 0 15 5 18 10 8 12 4 12 -15 0z"/>
<path d="M50 2099 c0 -5 5 -7 10 -4 6 3 10 8 10 11 0 2 -4 4 -10 4 -5 0 -10
-5 -10 -11z"/>
<path d="M5055 2071 c-3 -5 -2 -12 3 -15 5 -3 9 1 9 9 0 17 -3 19 -12 6z"/>
<path d="M5028 2013 c7 -3 16 -2 19 1 4 3 -2 6 -13 5 -11 0 -14 -3 -6 -6z"/>
<path d="M80 1999 c0 -5 5 -7 10 -4 6 3 10 8 10 11 0 2 -4 4 -10 4 -5 0 -10
-5 -10 -11z"/>
<path d="M5030 1969 c0 -5 5 -7 10 -4 6 3 10 8 10 11 0 2 -4 4 -10 4 -5 0 -10
-5 -10 -11z"/>
<path d="M5014 1939 c-3 -6 -1 -16 5 -22 9 -9 10 -7 5 7 -6 15 -4 17 6 11 9
-5 11 -4 6 3 -9 15 -13 15 -22 1z"/>
<path d="M110 1911 c0 -6 4 -13 10 -16 6 -3 7 1 4 9 -7 18 -14 21 -14 7z"/>
<path d="M90 1886 c0 -2 7 -7 16 -10 8 -3 12 -2 9 4 -6 10 -25 14 -25 6z"/>
<path d="M4995 1850 c-3 -6 1 -7 9 -4 18 7 21 14 7 14 -6 0 -13 -4 -16 -10z"/>
<path d="M4988 1823 c7 -3 16 -2 19 1 4 3 -2 6 -13 5 -11 0 -14 -3 -6 -6z"/>
<path d="M125 1800 c3 -5 8 -10 11 -10 2 0 4 5 4 10 0 6 -5 10 -11 10 -5 0 -7
-4 -4 -10z"/>
<path d="M4977 1793 c3 -7 6 -13 8 -13 2 0 5 6 8 13 3 8 -1 14 -8 14 -7 0 -11
-6 -8 -14z"/>
<path d="M151 1785 c1 -19 18 -51 18 -35 0 8 -4 22 -9 30 -5 8 -9 11 -9 5z"/>
<path d="M4956 1773 c-6 -14 -5 -15 5 -6 7 7 10 15 7 18 -3 3 -9 -2 -12 -12z"/>
<path d="M150 1718 c0 -4 4 -8 9 -8 6 0 12 4 15 8 3 5 -1 9 -9 9 -8 0 -15 -4
-15 -9z"/>
<path d="M4957 1713 c-10 -9 -9 -23 1 -23 5 0 9 7 9 15 0 17 -1 18 -10 8z"/>
<path d="M176 1702 c-3 -5 1 -9 9 -9 8 0 12 4 9 9 -3 4 -7 8 -9 8 -2 0 -6 -4
-9 -8z"/>
<path d="M175 1670 c-3 -5 -1 -10 4 -10 6 0 11 5 11 10 0 6 -2 10 -4 10 -3 0
-8 -4 -11 -10z"/>
<path d="M199 1658 c-6 -21 -5 -38 1 -38 5 0 8 9 7 20 -1 17 -5 26 -8 18z"/>
<path d="M4917 1629 c7 -7 15 -10 18 -7 3 3 -2 9 -12 12 -14 6 -15 5 -6 -5z"/>
<path d="M196 1598 c3 -4 11 -5 19 -1 21 7 19 12 -4 10 -11 0 -18 -5 -15 -9z"/>
<path d="M219 1588 c-6 -21 -5 -37 2 -32 5 3 7 9 4 14 -3 4 1 11 7 13 10 4 10
6 1 6 -7 1 -13 0 -14 -1z"/>
<path d="M4886 1557 c3 -10 9 -15 12 -12 3 3 0 11 -7 18 -10 9 -11 8 -5 -6z"/>
<path d="M230 1540 c0 -5 5 -10 10 -10 6 0 10 5 10 10 0 6 -4 10 -10 10 -5 0
-10 -4 -10 -10z"/>
<path d="M4836 1475 c-3 -8 -1 -15 4 -15 6 0 10 7 10 15 0 8 -2 15 -4 15 -2 0
-6 -7 -10 -15z"/>
<path d="M4830 1436 c7 -7 13 -7 20 0 6 6 3 10 -10 10 -13 0 -16 -4 -10 -10z"/>
<path d="M275 1420 c-3 -5 -1 -10 4 -10 6 0 11 5 11 10 0 6 -2 10 -4 10 -3 0
-8 -4 -11 -10z"/>
<path d="M4826 1398 c3 -5 10 -6 15 -3 13 9 11 12 -6 12 -8 0 -12 -4 -9 -9z"/>
<path d="M4810 1380 c0 -5 5 -10 11 -10 5 0 7 5 4 10 -3 6 -8 10 -11 10 -2 0
-4 -4 -4 -10z"/>
<path d="M4790 1350 c-13 -8 -12 -10 3 -10 9 0 17 5 17 10 0 12 -1 12 -20 0z"/>
<path d="M350 1325 c0 -5 5 -17 10 -25 5 -8 10 -10 10 -5 0 6 -5 17 -10 25 -5
8 -10 11 -10 5z"/>
<path d="M4775 1299 c-4 -6 -5 -12 -2 -15 2 -3 7 2 10 11 7 17 1 20 -8 4z"/>
<path d="M4750 1259 c0 -5 5 -7 10 -4 6 3 10 8 10 11 0 2 -4 4 -10 4 -5 0 -10
-5 -10 -11z"/>
<path d="M390 1230 c-13 -8 -12 -10 3 -10 9 0 17 5 17 10 0 12 -1 12 -20 0z"/>
<path d="M4690 1200 c0 -5 5 -10 10 -10 6 0 10 5 10 10 0 6 -4 10 -10 10 -5 0
-10 -4 -10 -10z"/>
<path d="M415 1181 c-3 -5 0 -13 6 -17 7 -4 9 -3 5 4 -3 6 2 13 11 15 16 4 16
5 1 6 -9 0 -19 -3 -23 -8z"/>
<path d="M451 1154 c0 -11 3 -14 6 -6 3 7 2 16 -1 19 -3 4 -6 -2 -5 -13z"/>
<path d="M473 1128 c1 -15 6 -23 11 -18 4 4 4 16 -2 26 -9 16 -10 14 -9 -8z"/>
<path d="M4653 1122 c2 -12 6 -24 10 -28 3 -4 4 4 2 16 -6 30 -16 40 -12 12z"/>
<path d="M497 1079 c4 -13 8 -18 11 -10 2 7 -1 18 -6 23 -8 8 -9 4 -5 -13z"/>
<path d="M4620 1096 c0 -2 7 -7 16 -10 8 -3 12 -2 9 4 -6 10 -25 14 -25 6z"/>
<path d="M4600 1055 c0 -5 5 -17 10 -25 5 -8 10 -10 10 -5 0 6 -5 17 -10 25
-5 8 -10 11 -10 5z"/>
<path d="M515 1040 c3 -5 8 -10 11 -10 2 0 4 5 4 10 0 6 -5 10 -11 10 -5 0 -7
-4 -4 -10z"/>
<path d="M553 995 c0 -8 4 -12 9 -9 4 3 8 9 8 15 0 5 -4 9 -8 9 -5 0 -9 -7 -9
-15z"/>
<path d="M4530 960 c0 -5 5 -10 10 -10 6 0 10 5 10 10 0 6 -4 10 -10 10 -5 0
-10 -4 -10 -10z"/>
<path d="M610 951 c0 -6 4 -13 10 -16 6 -3 7 1 4 9 -7 18 -14 21 -14 7z"/>
<path d="M4510 929 c0 -5 -4 -7 -10 -4 -6 3 -7 -1 -4 -10 4 -9 7 -15 8 -13 1
2 8 11 15 21 9 11 10 17 2 17 -6 0 -11 -5 -11 -11z"/>
<path d="M4472 901 c-11 -6 -10 -10 4 -15 9 -3 19 -4 22 -1 3 3 0 5 -7 5 -7 0
-9 5 -6 10 7 12 4 12 -13 1z"/>
<path d="M667 871 c-4 -17 -3 -21 5 -13 5 5 8 16 6 23 -3 8 -7 3 -11 -10z"/>
<path d="M4454 859 c-8 -14 14 -19 25 -6 8 10 7 14 -5 14 -8 0 -17 -4 -20 -8z"/>
<path d="M4430 846 c0 -8 4 -17 9 -20 5 -4 7 3 4 14 -6 23 -13 26 -13 6z"/>
<path d="M4415 823 c3 -3 -3 -11 -12 -18 -13 -9 -13 -14 -3 -20 9 -6 11 -4 5
5 -6 10 -4 12 7 7 16 -6 20 17 5 28 -4 3 -5 2 -2 -2z"/>
<path d="M730 805 c0 -8 4 -15 10 -15 5 0 7 7 4 15 -4 8 -8 15 -10 15 -2 0 -4
-7 -4 -15z"/>
<path d="M752 781 c-11 -6 -10 -10 4 -15 9 -3 19 -4 22 -1 3 3 0 5 -7 5 -7 0
-9 5 -6 10 7 12 4 12 -13 1z"/>
<path d="M796 747 c3 -10 9 -15 12 -12 3 3 0 11 -7 18 -10 9 -11 8 -5 -6z"/>
<path d="M770 740 c0 -5 5 -10 11 -10 5 0 7 5 4 10 -3 6 -8 10 -11 10 -2 0 -4
-4 -4 -10z"/>
<path d="M4336 742 c-2 -4 0 -14 6 -22 8 -12 9 -11 4 4 -5 13 -2 17 9 12 8 -3
15 -1 15 4 0 12 -27 13 -34 2z"/>
<path d="M4293 693 c-3 -8 -3 -17 1 -20 3 -4 6 1 6 11 0 9 4 15 9 11 5 -3 12
-2 15 3 3 5 -2 9 -10 9 -9 0 -18 -7 -21 -14z"/>
<path d="M838 693 c7 -3 16 -2 19 1 4 3 -2 6 -13 5 -11 0 -14 -3 -6 -6z"/>
<path d="M860 680 c-9 -6 -10 -10 -3 -10 6 0 15 5 18 10 8 12 4 12 -15 0z"/>
<path d="M4254 678 c3 -12 -2 -18 -17 -21 -12 -2 -5 -4 16 -4 21 0 33 4 26 7
-6 4 -16 14 -21 21 -8 11 -9 10 -4 -3z"/>
<path d="M870 656 c0 -2 7 -9 15 -16 9 -7 15 -8 15 -2 0 5 -7 12 -15 16 -8 3
-15 4 -15 2z"/>
<path d="M910 621 c0 -6 4 -13 10 -16 6 -3 7 1 4 9 -7 18 -14 21 -14 7z"/>
<path d="M4200 611 c0 -6 4 -13 10 -16 6 -3 7 1 4 9 -7 18 -14 21 -14 7z"/>
<path d="M950 591 c0 -6 4 -13 10 -16 6 -3 7 1 4 9 -7 18 -14 21 -14 7z"/>
<path d="M4135 580 c3 -5 8 -10 11 -10 2 0 4 5 4 10 0 6 -5 10 -11 10 -5 0 -7
-4 -4 -10z"/>
<path d="M4060 532 c0 -6 -8 -13 -17 -15 -16 -4 -16 -5 -1 -6 18 -1 34 16 24
26 -3 4 -6 1 -6 -5z"/>
<path d="M1038 523 c7 -3 16 -2 19 1 4 3 -2 6 -13 5 -11 0 -14 -3 -6 -6z"/>
<path d="M4086 517 c3 -10 9 -15 12 -12 3 3 0 11 -7 18 -10 9 -11 8 -5 -6z"/>
<path d="M1090 482 c0 -4 12 -8 28 -9 23 -1 24 -1 7 7 -26 11 -35 12 -35 2z"/>
<path d="M3995 479 c-5 -8 -5 -11 0 -7 4 4 13 0 20 -9 10 -13 13 -14 20 -2 5
8 5 11 0 7 -4 -4 -13 0 -20 9 -10 13 -13 14 -20 2z"/>
<path d="M1141 444 c0 -11 3 -14 6 -6 3 7 2 16 -1 19 -3 4 -6 -2 -5 -13z"/>
<path d="M1167 439 c7 -7 15 -10 18 -7 3 3 -2 9 -12 12 -14 6 -15 5 -6 -5z"/>
<path d="M3935 440 c-3 -5 -1 -10 4 -10 6 0 11 5 11 10 0 6 -2 10 -4 10 -3 0
-8 -4 -11 -10z"/>
<path d="M3955 419 c-4 -6 -4 -13 -1 -16 3 -4 6 -1 6 6 0 7 5 9 12 5 7 -4 8
-3 4 4 -9 15 -13 15 -21 1z"/>
<path d="M3906 404 c-11 -8 -16 -14 -10 -14 13 0 39 18 34 24 -3 2 -14 -2 -24
-10z"/>
<path d="M1240 400 c0 -5 5 -10 11 -10 5 0 7 5 4 10 -3 6 -8 10 -11 10 -2 0
-4 -4 -4 -10z"/>
<path d="M3876 363 c-6 -14 -5 -15 5 -6 7 7 10 15 7 18 -3 3 -9 -2 -12 -12z"/>
<path d="M1300 366 c0 -2 7 -7 16 -10 8 -3 12 -2 9 4 -6 10 -25 14 -25 6z"/>
<path d="M3790 350 c0 -5 5 -10 11 -10 5 0 7 5 4 10 -3 6 -8 10 -11 10 -2 0
-4 -4 -4 -10z"/>
<path d="M1360 318 c0 -4 4 -8 9 -8 6 0 12 4 15 8 3 5 -1 9 -9 9 -8 0 -15 -4
-15 -9z"/>
<path d="M3750 318 c0 -11 12 -10 30 2 12 7 10 9 -8 7 -12 0 -22 -5 -22 -9z"/>
<path d="M1390 300 c0 -5 5 -10 10 -10 6 0 10 5 10 10 0 6 -4 10 -10 10 -5 0
-10 -4 -10 -10z"/>
<path d="M3722 303 c11 -3 15 -11 12 -21 -5 -14 -4 -14 4 -2 13 18 6 30 -16
29 -16 -1 -16 -2 0 -6z"/>
<path d="M3775 300 c-3 -6 1 -7 9 -4 18 7 21 14 7 14 -6 0 -13 -4 -16 -10z"/>
<path d="M3670 280 c-9 -6 -10 -10 -3 -10 6 0 15 5 18 10 8 12 4 12 -15 0z"/>
<path d="M3600 259 c-12 -9 -12 -10 3 -5 15 5 17 2 12 -17 -5 -20 -5 -20 6 -4
14 23 0 40 -21 26z"/>
<path d="M1530 240 c-8 -5 -10 -10 -5 -10 6 0 17 5 25 10 8 5 11 10 5 10 -5 0
-17 -5 -25 -10z"/>
<path d="M1570 231 c0 -7 -5 -9 -12 -5 -7 5 -8 3 -3 -5 5 -9 10 -10 18 -2 6 6
8 14 4 18 -4 3 -7 1 -7 -6z"/>
<path d="M1590 225 c0 -5 5 -17 10 -25 5 -8 10 -10 10 -5 0 6 -5 17 -10 25 -5
8 -10 11 -10 5z"/>
<path d="M3480 196 c0 -8 4 -17 9 -20 5 -4 7 3 4 14 -6 23 -13 26 -13 6z"/>
<path d="M3520 200 c-8 -5 -12 -11 -10 -14 3 -2 14 2 24 10 22 15 10 19 -14 4z"/>
<path d="M1676 187 c3 -10 9 -15 12 -12 3 3 0 11 -7 18 -10 9 -11 8 -5 -6z"/>
<path d="M1650 180 c0 -5 5 -10 11 -10 5 0 7 5 4 10 -3 6 -8 10 -11 10 -2 0
-4 -4 -4 -10z"/>
<path d="M3445 180 c-16 -7 -17 -9 -3 -9 9 -1 20 4 23 9 7 11 7 11 -20 0z"/>
<path d="M1712 171 c-11 -7 -11 -9 0 -14 9 -3 15 1 15 9 0 8 -1 14 -1 14 -1 0
-7 -4 -14 -9z"/>
<path d="M3370 160 c0 -5 5 -10 10 -10 6 0 10 5 10 10 0 6 -4 10 -10 10 -5 0
-10 -4 -10 -10z"/>
<path d="M3330 127 c-10 -19 -9 -20 2 -6 7 9 19 14 26 12 17 -6 15 4 -3 11 -9
3 -19 -3 -25 -17z"/>
<path d="M1838 123 c7 -3 16 -2 19 1 4 3 -2 6 -13 5 -11 0 -14 -3 -6 -6z"/>
<path d="M3283 123 c9 -2 14 -9 11 -15 -4 -7 -2 -8 5 -4 15 10 4 26 -17 25
-15 -1 -15 -2 1 -6z"/>
<path d="M3235 109 c-4 -6 -5 -12 -2 -15 2 -3 7 2 10 11 7 17 1 20 -8 4z"/>
<path d="M1950 101 c0 -6 4 -13 10 -16 6 -3 7 1 4 9 -7 18 -14 21 -14 7z"/>
<path d="M3165 99 c-6 -8 -4 -10 5 -4 10 6 12 4 6 -11 -6 -15 -5 -17 5 -6 9 9
10 15 2 23 -8 8 -13 7 -18 -2z"/>
<path d="M3255 100 c-3 -6 1 -7 9 -4 18 7 21 14 7 14 -6 0 -13 -4 -16 -10z"/>
<path d="M3136 87 c3 -10 9 -15 12 -12 3 3 0 11 -7 18 -10 9 -11 8 -5 -6z"/>
<path d="M2005 80 c3 -5 8 -10 11 -10 2 0 4 5 4 10 0 6 -5 10 -11 10 -5 0 -7
-4 -4 -10z"/>
<path d="M3113 75 c0 -8 4 -15 9 -15 4 0 8 4 8 9 0 6 -4 12 -8 15 -5 3 -9 -1
-9 -9z"/>
<path d="M2070 69 c0 -5 5 -7 10 -4 6 3 10 8 10 11 0 2 -4 4 -10 4 -5 0 -10
-5 -10 -11z"/>
<path d="M2093 55 c-4 -5 -3 -7 2 -3 4 4 15 2 23 -5 13 -10 14 -9 7 2 -6 11
-4 13 9 8 9 -4 15 -3 11 2 -7 13 -45 10 -52 -4z"/>
<path d="M3055 61 c-3 -5 0 -13 6 -17 7 -4 9 -3 5 4 -3 6 3 12 16 15 23 4 23
4 1 6 -12 0 -24 -3 -28 -8z"/>
<path d="M2198 43 c7 -3 16 -2 19 1 4 3 -2 6 -13 5 -11 0 -14 -3 -6 -6z"/>
<path d="M2276 42 c-3 -4 4 -9 15 -9 23 -2 25 3 4 10 -8 4 -16 3 -19 -1z"/>
<path d="M2810 40 c-9 -6 -10 -10 -3 -10 6 0 15 5 18 10 8 12 4 12 -15 0z"/>
<path d="M2839 33 c-13 -16 -12 -17 4 -4 16 13 21 21 13 21 -2 0 -10 -8 -17
-17z"/>
<path d="M2890 40 c0 -5 5 -10 10 -10 6 0 10 5 10 10 0 6 -4 10 -10 10 -5 0
-10 -4 -10 -10z"/>
</g>
</svg>
