<?xml version="1.0" standalone="no"?>
<!DOCTYPE svg PUBLIC "-//W3C//DTD SVG 20010904//EN"
 "http://www.w3.org/TR/2001/REC-SVG-20010904/DTD/svg10.dtd">
<svg version="1.0" xmlns="http://www.w3.org/2000/svg"
 width="1000.000000pt" height="1000.000000pt" viewBox="0 0 1000.000000 1000.000000"
 preserveAspectRatio="xMidYMid meet">
<metadata>
Created by potrace 1.11, written by Peter Selinger 2001-2013
</metadata>
<g transform="translate(0.000000,1000.000000) scale(0.100000,-0.100000)"
fill="#000000" stroke="none">
<path d="M0 5000 l0 -5000 5000 0 5000 0 0 5000 0 5000 -5000 0 -5000 0 0
-5000z m2525 3005 c770 -284 1425 -527 1455 -541 90 -41 246 -151 325 -229 82
-81 163 -197 191 -274 10 -28 20 -51 24 -51 3 0 102 162 220 360 118 198 218
360 221 360 3 0 115 -184 250 -410 134 -225 247 -410 250 -410 3 0 11 27 17
60 39 213 265 461 536 590 45 20 2700 1006 3010 1116 l39 14 -6 -87 c-9 -119
-29 -190 -83 -301 -36 -74 -61 -109 -127 -176 -124 -125 -187 -159 -507 -271
-983 -344 -1588 -569 -1700 -633 -194 -111 -357 -264 -498 -470 -56 -82 -142
-244 -236 -448 l-38 -82 42 -71 c23 -39 44 -71 47 -71 2 0 14 12 27 27 20 22
179 83 937 354 503 180 915 326 916 325 1 -1 -4 -32 -12 -68 -47 -224 -242
-460 -510 -615 -47 -27 -246 -104 -595 -228 -289 -103 -526 -189 -528 -190 -1
-1 133 -229 299 -506 166 -277 304 -511 306 -520 3 -12 -223 -151 -908 -560
-502 -299 -918 -545 -923 -547 -12 -2 -1839 1084 -1844 1097 -1 4 139 244 311
533 l314 526 -496 177 c-273 97 -524 193 -559 212 -144 79 -322 240 -405 366
-53 80 -96 178 -112 256 -8 36 -13 66 -12 67 2 2 1530 -543 1769 -630 l67 -25
49 81 c58 95 63 64 -52 298 -84 170 -141 259 -245 383 -124 148 -268 265 -420
342 -136 68 -653 262 -1416 530 -527 185 -546 192 -616 237 -81 53 -204 177
-248 251 -68 116 -111 263 -111 383 l0 54 93 -34 c50 -19 722 -266 1492 -551z
m-212 -651 c512 -187 917 -340 950 -360 219 -128 463 -377 569 -579 39 -75 93
-224 84 -232 -6 -6 -1868 678 -1931 710 -212 105 -433 384 -546 689 -29 79
-34 98 -24 98 3 0 407 -147 898 -326z m6277 317 c0 -24 -57 -165 -105 -261
-115 -229 -302 -434 -470 -517 -64 -32 -1925 -716 -1931 -710 -9 9 46 160 88
237 108 202 289 390 523 547 73 48 159 82 980 382 495 182 903 330 908 331 4
0 7 -4 7 -9z m-4541 -4041 c492 -292 900 -534 906 -536 8 -4 1489 869 1815
1069 34 21 33 20 -25 -64 -33 -47 -447 -635 -920 -1307 -663 -941 -863 -1218
-872 -1209 -18 18 -1823 2586 -1823 2593 0 4 6 2 13 -3 6 -6 414 -250 906
-543z"/>
</g>
</svg>
