<svg width="447" height="768" viewBox="0 0 447 768" version="1.1" xmlns="http://www.w3.org/2000/svg" xmlns:xlink="http://www.w3.org/1999/xlink">
<title>betoken-logo-grey</title>
<desc>Created using Figma</desc>
<g id="Canvas" transform="translate(-6972 -1303)">
<g id="betoken-logo-grey">
<g id="layer1">
<g id="g4871">
<g id="g4887">
<g id="g4167">
<g id="path4168">
<mask id="mask0_outline_ins">
<use xlink:href="#path0_fill" fill="white" transform="matrix(4.22495 0 0 4.22495 6972 1303)"/>
</mask>
<g mask="url(#mask0_outline_ins)">
<use xlink:href="#path1_stroke_2x" transform="matrix(4.22495 0 0 4.22495 6972 1303)" fill="#EEEEEE" fill-opacity="0.87"/>
</g>
</g>
<g id="path4186">
<mask id="mask1_outline_ins">
<use xlink:href="#path2_fill" fill="white" transform="matrix(4.22495 0 0 4.22495 7062.1 1393.09)"/>
</mask>
<g mask="url(#mask1_outline_ins)">
<use xlink:href="#path3_stroke_2x" transform="matrix(4.22495 0 0 4.22495 7062.1 1393.09)" fill="#EEEEEE" fill-opacity="0.87"/>
</g>
</g>
<g id="g4863">
<g id="g4867">
<g id="path4841-6">
<mask id="mask2_outline_ins">
<use xlink:href="#path4_fill" fill="white" transform="matrix(1.77694 0 0 1.77694 7206.54 1433.71)"/>
</mask>
<g mask="url(#mask2_outline_ins)">
<use xlink:href="#path5_stroke_2x" transform="matrix(1.77694 0 0 1.77694 7206.54 1433.71)" fill="#EEEEEE" fill-opacity="0.87"/>
</g>
</g>
<g id="path4843-9">
<mask id="mask3_outline_ins">
<use xlink:href="#path6_fill" fill="white" transform="matrix(1.77694 0 0 1.77694 7208.71 1710.9)"/>
</mask>
<g mask="url(#mask3_outline_ins)">
<use xlink:href="#path7_stroke_2x" transform="matrix(1.77694 0 0 1.77694 7208.71 1710.9)" fill="#EEEEEE" fill-opacity="0.87"/>
</g>
</g>
</g>
</g>
</g>
</g>
</g>
</g>
</g>
</g>
<defs>
<path id="path0_fill" d="M 90.8886 9.35579e-08C 66.7848 -0.00109284 43.6677 9.57348 26.6228 26.6175C 9.5779 43.6614 0.00145112 66.7787 9.34212e-08 90.8838C -0.00054107 102.82 2.35004 114.64 6.91743 125.668C 11.4848 136.696 18.1796 146.716 26.6195 155.156C 35.0594 163.597 45.0791 170.292 56.1064 174.859C 67.1338 179.427 78.9528 181.778 90.8886 181.777C 102.824 181.778 114.643 179.427 125.671 174.859C 136.698 170.292 146.718 163.597 155.158 155.156C 163.598 146.716 170.292 136.696 174.86 125.668C 179.427 114.64 181.778 102.82 181.777 90.8838C 181.776 66.7787 172.199 43.6614 155.154 26.6175C 138.11 9.57348 114.992 -0.00107986 90.8886 9.35579e-08ZM 90.8886 9.39617C 112.499 9.39628 133.225 17.9815 148.506 33.2634C 163.787 48.5453 172.372 69.272 172.372 90.8838C 172.372 112.496 163.787 133.222 148.506 148.504C 133.225 163.786 112.499 172.371 90.8886 172.372C 69.2779 172.371 48.5525 163.786 33.2714 148.504C 17.9903 133.222 9.40534 112.496 9.40524 90.8838C 9.40534 69.272 17.9903 48.5453 33.2714 33.2634C 48.5525 17.9815 69.2779 9.39628 90.8886 9.39617Z"/>
<path id="path1_stroke_2x" d="M 90.8886 9.35579e-08L 90.8886 1L 90.8887 1L 90.8886 9.35579e-08ZM 26.6228 26.6175L 25.9157 25.9103L 26.6228 26.6175ZM 9.34212e-08 90.8838L -1 90.8838L -1 90.8838L 9.34212e-08 90.8838ZM 6.91743 125.668L 5.99353 126.05L 6.91743 125.668ZM 26.6195 155.156L 25.9124 155.863L 25.9124 155.863L 26.6195 155.156ZM 56.1064 174.859L 56.4891 173.936L 56.1064 174.859ZM 90.8886 181.777L 90.8887 180.777L 90.8886 180.777L 90.8886 181.777ZM 125.671 174.859L 125.288 173.936L 125.671 174.859ZM 155.158 155.156L 154.451 154.449L 155.158 155.156ZM 174.86 125.668L 175.784 126.05L 174.86 125.668ZM 181.777 90.8838L 182.777 90.8838L 182.777 90.8838L 181.777 90.8838ZM 155.154 26.6175L 155.862 25.9103L 155.154 26.6175ZM 90.8886 9.39617L 90.8886 8.39617L 90.8886 8.39617L 90.8886 9.39617ZM 148.506 33.2634L 147.799 33.9705L 148.506 33.2634ZM 172.372 90.8838L 173.372 90.8838L 173.372 90.8838L 172.372 90.8838ZM 148.506 148.504L 149.213 149.211L 148.506 148.504ZM 90.8886 172.372L 90.8886 173.372L 90.8886 173.372L 90.8886 172.372ZM 33.2714 148.504L 32.5643 149.211L 33.2714 148.504ZM 9.40524 90.8838L 8.40524 90.8838L 8.40524 90.8838L 9.40524 90.8838ZM 33.2714 33.2634L 33.9785 33.9705L 33.2714 33.2634ZM 90.8887 -1C 66.5196 -1.0011 43.1481 8.67882 25.9157 25.9103L 27.3299 27.3246C 44.1872 10.4681 67.05 0.998919 90.8886 1L 90.8887 -1ZM 25.9157 25.9103C 8.68327 43.1419 -0.998533 66.5135 -1 90.8838L 1 90.8839C 1.00144 67.044 10.4725 44.181 27.3299 27.3246L 25.9157 25.9103ZM -1 90.8838C -1.00055 102.952 1.37589 114.901 5.99353 126.05L 7.84132 125.285C 3.32418 114.379 0.999465 102.689 1 90.8839L -1 90.8838ZM 5.99353 126.05C 10.6112 137.2 17.3796 147.33 25.9124 155.863L 27.3266 154.449C 18.9796 146.102 12.3585 136.192 7.84132 125.285L 5.99353 126.05ZM 25.9124 155.863C 34.4451 164.397 44.5751 171.165 55.7238 175.783L 56.4891 173.936C 45.5831 169.418 35.6737 162.797 27.3266 154.449L 25.9124 155.863ZM 55.7238 175.783C 66.8725 180.401 78.8215 182.778 90.8887 182.777L 90.8886 180.777C 79.0841 180.778 67.3952 178.453 56.4891 173.936L 55.7238 175.783ZM 90.8886 182.777C 102.956 182.778 114.905 180.401 126.053 175.783L 125.288 173.936C 114.382 178.453 102.693 180.778 90.8887 180.777L 90.8886 182.777ZM 126.053 175.783C 137.202 171.165 147.332 164.397 155.865 155.863L 154.451 154.449C 146.104 162.797 136.194 169.418 125.288 173.936L 126.053 175.783ZM 155.865 155.863C 164.398 147.33 171.166 137.2 175.784 126.05L 173.936 125.285C 169.419 136.192 162.798 146.102 154.451 154.449L 155.865 155.863ZM 175.784 126.05C 180.401 114.901 182.778 102.952 182.777 90.8838L 180.777 90.8839C 180.778 102.689 178.453 114.379 173.936 125.285L 175.784 126.05ZM 182.777 90.8838C 182.776 66.5135 173.094 43.1419 155.862 25.9103L 154.447 27.3246C 171.305 44.181 180.776 67.044 180.777 90.8839L 182.777 90.8838ZM 155.862 25.9103C 138.629 8.67882 115.258 -1.00109 90.8886 -1L 90.8887 1C 114.727 0.998932 137.59 10.4681 154.447 27.3246L 155.862 25.9103ZM 90.8886 10.3962C 112.234 10.3963 132.705 18.8762 147.799 33.9705L 149.213 32.5563C 133.744 17.0869 112.765 8.39628 90.8886 8.39617L 90.8886 10.3962ZM 147.799 33.9705C 162.892 49.0649 171.372 69.5372 171.372 90.8838L 173.372 90.8838C 173.372 69.0068 164.682 48.0258 149.213 32.5563L 147.799 33.9705ZM 171.372 90.8838C 171.372 112.23 162.892 132.703 147.799 147.797L 149.213 149.211C 164.682 133.742 173.372 112.761 173.372 90.8838L 171.372 90.8838ZM 147.799 147.797C 132.705 162.891 112.234 171.371 90.8886 171.372L 90.8886 173.372C 112.765 173.371 133.744 164.681 149.213 149.211L 147.799 147.797ZM 90.8886 171.372C 69.5432 171.371 49.0721 162.891 33.9785 147.797L 32.5643 149.211C 48.0329 164.681 69.0127 173.371 90.8886 173.372L 90.8886 171.372ZM 33.9785 147.797C 18.885 132.703 10.4053 112.23 10.4052 90.8838L 8.40524 90.8838C 8.40534 112.761 17.0957 133.742 32.5643 149.211L 33.9785 147.797ZM 10.4052 90.8838C 10.4053 69.5372 18.885 49.0649 33.9785 33.9705L 32.5643 32.5563C 17.0957 48.0258 8.40534 69.0068 8.40524 90.8838L 10.4052 90.8838ZM 33.9785 33.9705C 49.0721 18.8762 69.5432 10.3963 90.8886 10.3962L 90.8886 8.39617C 69.0127 8.39628 48.0329 17.0869 32.5643 32.5563L 33.9785 33.9705Z"/>
<path id="path2_fill" d="M 69.5617 139.131C 107.979 139.131 139.123 107.985 139.123 69.5653C 139.123 31.1455 107.979 0 69.5617 0C 31.1438 0 0 31.1455 0 69.5653C 0 107.985 31.1438 139.131 69.5617 139.131Z"/>
<path id="path3_stroke_2x" d="M 69.5617 140.131C 108.532 140.131 140.123 108.537 140.123 69.5653L 138.123 69.5653C 138.123 107.433 107.427 138.131 69.5617 138.131L 69.5617 140.131ZM 140.123 69.5653C 140.123 30.5932 108.532 -1 69.5617 -1L 69.5617 1C 107.427 1 138.123 31.6977 138.123 69.5653L 140.123 69.5653ZM 69.5617 -1C 30.5915 -1 -1 30.5932 -1 69.5653L 1 69.5653C 1 31.6977 31.6962 1 69.5617 1L 69.5617 -1ZM -1 69.5653C -1 108.537 30.5915 140.131 69.5617 140.131L 69.5617 138.131C 31.6962 138.131 1 107.433 1 69.5653L -1 69.5653Z"/>
<path id="path4_fill" fill-rule="evenodd" d="M 84.4177 0L 0 139.48L 83.1943 189.644L 168.224 140.092L 84.4177 0Z"/>
<path id="path5_stroke_2x" d="M 84.4177 0L 85.2759 -0.513373L 84.4227 -1.93956L 83.5622 -0.517783L 84.4177 0ZM 0 139.48L -0.855512 138.962L -1.37415 139.819L -0.516366 140.337L 0 139.48ZM 83.1943 189.644L 82.6779 190.5L 83.1856 190.807L 83.6978 190.508L 83.1943 189.644ZM 168.224 140.092L 168.727 140.956L 169.601 140.447L 169.082 139.579L 168.224 140.092ZM 83.5622 -0.517783L -0.855512 138.962L 0.855512 139.998L 85.2732 0.517783L 83.5622 -0.517783ZM -0.516366 140.337L 82.6779 190.5L 83.7107 188.788L 0.516366 138.624L -0.516366 140.337ZM 83.6978 190.508L 168.727 140.956L 167.72 139.228L 82.6908 188.78L 83.6978 190.508ZM 169.082 139.579L 85.2759 -0.513373L 83.5596 0.513373L 167.366 140.605L 169.082 139.579Z"/>
<path id="path6_fill" fill-rule="evenodd" d="M 0 0L 83.1943 49.5521L 165.777 1.22351L 84.4177 117.457L 0 0Z"/>
<path id="path7_stroke_2x" d="M 0 0L 0.511726 -0.859149L -0.81203 0.583616L 0 0ZM 83.1943 49.5521L 82.6826 50.4113L 83.1898 50.7134L 83.6994 50.4152L 83.1943 49.5521ZM 165.777 1.22351L 166.596 1.79695L 165.272 0.360439L 165.777 1.22351ZM 84.4177 117.457L 83.6057 118.041L 84.4285 119.185L 85.237 118.03L 84.4177 117.457ZM -0.511726 0.859149L 82.6826 50.4113L 83.706 48.693L 0.511726 -0.859149L -0.511726 0.859149ZM 83.6994 50.4152L 166.282 2.08658L 165.272 0.360439L 82.6892 48.6891L 83.6994 50.4152ZM 164.958 0.650068L 83.5985 116.883L 85.237 118.03L 166.596 1.79695L 164.958 0.650068ZM 85.2298 116.873L 0.81203 -0.583616L -0.81203 0.583616L 83.6057 118.041L 85.2298 116.873Z"/>
</defs>
</svg>
