<svg width="656" height="665" viewBox="0 0 656 665" version="1.1" xmlns="http://www.w3.org/2000/svg" xmlns:xlink="http://www.w3.org/1999/xlink">
<g data-name="Canvas" fill="none">
<g data-name="bg-investment-cycle">
<g data-name="Group 10">
<g data-name="Ellipse 3">
<ellipse cx="323.542" cy="325.192" rx="323.542" ry="325.192" stroke-width="8" stroke-linecap="round" stroke-linejoin="round" stroke-dasharray="0.1 64" transform="translate(4 10)" stroke="#D8D8D8"/>
</g>
<g data-name="Group">
<g data-name="Ellipse 4" filter="url(#filter0_dd)">
<ellipse cx="260.316" cy="261.644" rx="260.316" ry="261.644" transform="translate(67 73)" fill="#002B49"/>
</g>
</g>
<g data-name="betoken-logo">
<g data-name="layer1">
<g data-name="g4871">
<g data-name="g4887">
<g data-name="g4167">
<g data-name="path4168">
<g mask="url(#path3_ins)" transform="translate(135 142) scale(4.22495)">
<path d="M 45.4443 4.6779e-08C 33.3924 -0.000546419 21.8338 4.78674 13.3114 13.3087C 4.78895 21.8307 0.00072556 33.3894 4.67106e-08 45.4419C -0.000270535 51.4101 1.17502 57.3199 3.45871 62.8339C 5.74241 68.3479 9.0898 73.358 13.3097 77.5782C 17.5297 81.7983 22.5395 85.1459 28.0532 87.4297C 33.5669 89.7135 39.4764 90.8889 45.4443 90.8886C 51.4122 90.8889 57.3217 89.7135 62.8354 87.4297C 68.3491 85.1459 73.3589 81.7983 77.5789 77.5782C 81.7988 73.358 85.1462 68.3479 87.4299 62.8339C 89.7136 57.32 90.8889 51.4101 90.8886 45.4419C 90.8879 33.3894 86.0997 21.8307 77.5772 13.3087C 69.0548 4.78674 57.4962 -0.000539929 45.4443 4.6779e-08ZM 45.4443 4.69809C 56.2497 4.69814 66.6124 8.99077 74.2529 16.6317C 81.8935 24.2727 86.1859 34.636 86.186 45.4419C 86.1859 56.2478 81.8935 66.6112 74.2529 74.2521C 66.6124 81.8931 56.2497 86.1857 45.4443 86.1858C 34.639 86.1857 24.2762 81.8931 16.6357 74.2521C 8.99515 66.6112 4.70267 56.2478 4.70262 45.4419C 4.70267 34.636 8.99515 24.2727 16.6357 16.6317C 24.2762 8.99077 34.639 4.69814 45.4443 4.69809Z" stroke-width="2" stroke="#EEEEEE" stroke-opacity="0.24"/>
</g>
</g>
<g data-name="path4186">
<g mask="url(#path5_ins)" transform="translate(180.053 187.044) scale(4.22495)">
<path d="M 34.7808 69.5653C 53.9897 69.5653 69.5617 53.9926 69.5617 34.7827C 69.5617 15.5727 53.9897 0 34.7808 0C 15.5719 0 0 15.5727 0 34.7827C 0 53.9926 15.5719 69.5653 34.7808 69.5653Z" stroke-width="2" stroke="#EEEEEE" stroke-opacity="0.24"/>
</g>
</g>
</g>
</g>
</g>
</g>
</g>
</g>
<g data-name="Group">
<g data-name="Ellipse 3">
<circle cx="10" cy="10" r="10" transform="translate(327 2)" fill="#84E1BE"/>
</g>
<g data-name="Ellipse 3">
<circle cx="5" cy="5" r="5" transform="translate(332 7)" fill="#1CC886"/>
</g>
</g>
<g data-name="Arrow">
<path d="M 25.0607 1.06066C 25.6464 0.474874 25.6464 -0.474874 25.0607 -1.06066L 15.5147 -10.6066C 14.9289 -11.1924 13.9792 -11.1924 13.3934 -10.6066C 12.8076 -10.0208 12.8076 -9.07107 13.3934 -8.48528L 21.8787 0L 13.3934 8.48528C 12.8076 9.07107 12.8076 10.0208 13.3934 10.6066C 13.9792 11.1924 14.9289 11.1924 15.5147 10.6066L 25.0607 1.06066ZM 0 1.5L 24 1.5L 24 -1.5L 0 -1.5L 0 1.5Z" transform="translate(343 12)" fill="#84E1BE"/>
</g>
<g data-name="Title">
<g data-name="Title">
<path d="M 36.2727 8.16L 32.5327 8.16L 32.5327 5.66L 43.3127 5.66L 43.3127 8.16L 39.5127 8.16L 39.5127 19L 36.2727 19L 36.2727 8.16ZM 45.111 5.2L 48.191 5.2L 48.191 7.5L 45.111 7.5L 45.111 5.2ZM 45.171 9.02L 48.151 9.02L 48.171 19L 45.171 19L 45.171 9.02ZM 50.8337 9.94C 51.0337 9.76667 51.3803 9.57333 51.8737 9.36C 52.3803 9.14667 52.9403 8.96667 53.5537 8.82C 54.1803 8.66 54.7803 8.58 55.3537 8.58C 56.4603 8.58 57.227 8.74667 57.6537 9.08L 57.6537 11.26C 57.1203 11.14 56.3537 11.08 55.3537 11.08C 54.727 11.08 54.2137 11.1133 53.8137 11.18L 53.8137 19L 50.8337 19L 50.8337 9.94ZM 63.5168 8.54C 66.6768 8.54 68.2368 10.6 68.1968 14.72L 61.5168 14.72C 61.7701 16.12 62.7101 16.82 64.3368 16.82C 64.8301 16.82 65.3101 16.7533 65.7768 16.62C 66.2568 16.4733 66.7635 16.2867 67.2968 16.06L 67.2968 18.62C 66.2035 19.0733 64.9768 19.3 63.6168 19.3C 62.5901 19.3 61.6901 19.0933 60.9168 18.68C 60.1435 18.2533 59.5435 17.6467 59.1168 16.86C 58.6901 16.0733 58.4768 15.1467 58.4768 14.08C 58.4768 12.32 58.9101 10.96 59.7768 10C 60.6568 9.02667 61.9035 8.54 63.5168 8.54ZM 63.3968 10.82C 62.3301 10.82 61.6968 11.4867 61.4968 12.82L 65.2368 12.82C 65.1435 12.1 64.9501 11.5867 64.6568 11.28C 64.3768 10.9733 63.9568 10.82 63.3968 10.82ZM 79.8073 4.72L 79.8073 16.36C 79.8073 16.9867 79.5873 17.52 79.1473 17.96C 78.7073 18.4 78.1273 18.7333 77.4073 18.96C 76.6873 19.1867 75.9206 19.3 75.1073 19.3C 73.3873 19.3 72.0539 18.8933 71.1073 18.08C 70.1739 17.2667 69.7073 15.86 69.7073 13.86C 69.7073 12.18 70.1139 10.88 70.9273 9.96C 71.7539 9.02667 72.9606 8.56 74.5473 8.56C 75.4939 8.56 76.2606 8.73333 76.8473 9.08L 76.8473 4.72L 79.8073 4.72ZM 76.8473 11.38C 76.3139 11.1 75.7939 10.96 75.2873 10.96C 74.3939 10.96 73.7406 11.1867 73.3273 11.64C 72.9139 12.0933 72.7073 12.86 72.7073 13.94C 72.7073 14.8733 72.9006 15.5867 73.2873 16.08C 73.6739 16.56 74.3206 16.8 75.2273 16.8C 75.7206 16.8 76.1139 16.7333 76.4073 16.6C 76.7006 16.4667 76.8473 16.28 76.8473 16.04L 76.8473 11.38ZM 92.5421 19.3C 90.8354 19.3 89.5554 18.8467 88.7021 17.94C 87.8488 17.0333 87.4221 15.6867 87.4221 13.9C 87.4221 12.0333 87.8421 10.6733 88.6821 9.82C 89.5354 8.96667 90.8221 8.54 92.5421 8.54C 94.2621 8.54 95.5554 8.98 96.4221 9.86C 97.2888 10.7267 97.7221 12.0733 97.7221 13.9C 97.7221 15.66 97.2754 17 96.3821 17.92C 95.4888 18.84 94.2088 19.3 92.5421 19.3ZM 92.5421 16.92C 93.2754 16.92 93.8288 16.6667 94.2021 16.16C 94.5754 15.64 94.7621 14.8867 94.7621 13.9C 94.7621 12.82 94.5754 12.0533 94.2021 11.6C 93.8421 11.1333 93.2888 10.9 92.5421 10.9C 91.7688 10.9 91.2088 11.1333 90.8621 11.6C 90.5288 12.0533 90.3621 12.82 90.3621 13.9C 90.3621 14.9267 90.5354 15.6867 90.8821 16.18C 91.2421 16.6733 91.7954 16.92 92.5421 16.92ZM 100.539 11.16L 99.059 11.16L 99.059 8.88L 100.559 8.88L 100.559 8.64C 100.572 7.12 100.919 6.06667 101.599 5.48C 102.292 4.88 103.232 4.58 104.419 4.58C 104.632 4.58 104.866 4.6 105.119 4.64C 105.372 4.68 105.579 4.72667 105.739 4.78L 105.739 7.4C 105.592 7.25333 105.446 7.14667 105.299 7.08C 105.152 7 104.966 6.96 104.739 6.96C 104.366 6.96 104.072 7.06 103.859 7.26C 103.646 7.46 103.539 7.8 103.539 8.28L 103.539 8.88L 105.739 8.88L 105.739 11.16L 103.519 11.16L 103.519 19L 100.539 19L 100.539 11.16ZM 113.177 19L 113.177 5.06L 116.137 5.06L 116.137 19L 113.177 19ZM 123.343 19.3C 121.636 19.3 120.356 18.8467 119.503 17.94C 118.65 17.0333 118.223 15.6867 118.223 13.9C 118.223 12.0333 118.643 10.6733 119.483 9.82C 120.336 8.96667 121.623 8.54 123.343 8.54C 125.063 8.54 126.356 8.98 127.223 9.86C 128.09 10.7267 128.523 12.0733 128.523 13.9C 128.523 15.66 128.076 17 127.183 17.92C 126.29 18.84 125.01 19.3 123.343 19.3ZM 123.343 16.92C 124.076 16.92 124.63 16.6667 125.003 16.16C 125.376 15.64 125.563 14.8867 125.563 13.9C 125.563 12.82 125.376 12.0533 125.003 11.6C 124.643 11.1333 124.09 10.9 123.343 10.9C 122.57 10.9 122.01 11.1333 121.663 11.6C 121.33 12.0533 121.163 12.82 121.163 13.9C 121.163 14.9267 121.336 15.6867 121.683 16.18C 122.043 16.6733 122.596 16.92 123.343 16.92ZM 133.58 19.3C 132.94 19.3 132.38 19.2333 131.9 19.1C 131.42 18.98 130.886 18.8 130.3 18.56L 130.3 15.94C 131.38 16.7533 132.513 17.16 133.7 17.16C 134.153 17.16 134.48 17.0867 134.68 16.94C 134.893 16.78 135 16.5667 135 16.3C 135 15.9933 134.833 15.7667 134.5 15.62C 134.166 15.4733 133.633 15.3133 132.9 15.14C 132.126 14.98 131.486 14.66 130.98 14.18C 130.486 13.7 130.24 13 130.24 12.08C 130.24 11.2933 130.44 10.6467 130.84 10.14C 131.24 9.63333 131.74 9.26667 132.34 9.04C 132.953 8.8 133.586 8.68 134.24 8.68C 135.04 8.68 135.686 8.75333 136.18 8.9C 136.686 9.03333 137.18 9.24667 137.66 9.54L 137.66 11.88C 136.98 11.5067 136.453 11.24 136.08 11.08C 135.706 10.92 135.273 10.84 134.78 10.84C 134.286 10.84 133.92 10.92 133.68 11.08C 133.44 11.2267 133.32 11.44 133.32 11.72C 133.32 12.0533 133.453 12.3 133.72 12.46C 133.986 12.6067 134.413 12.76 135 12.92C 135.666 13.0933 136.193 13.2667 136.58 13.44C 136.966 13.6 137.313 13.8867 137.62 14.3C 137.926 14.7 138.08 15.2667 138.08 16C 138.053 17.1467 137.62 17.9867 136.78 18.52C 135.94 19.04 134.873 19.3 133.58 19.3ZM 140.228 5.2L 143.308 5.2L 143.308 7.5L 140.228 7.5L 140.228 5.2ZM 140.288 9.02L 143.268 9.02L 143.288 19L 140.288 19L 140.288 9.02ZM 145.951 9.74C 146.471 9.46 147.264 9.2 148.331 8.96C 149.398 8.72 150.351 8.6 151.191 8.6C 152.618 8.6 153.691 8.88 154.411 9.44C 155.131 10 155.491 10.92 155.491 12.2L 155.491 19L 152.511 19L 152.511 12.8C 152.511 11.64 151.858 11.06 150.551 11.06C 150.258 11.06 149.958 11.0933 149.651 11.16C 149.344 11.2267 149.104 11.3067 148.931 11.4L 148.931 19L 145.951 19L 145.951 9.74ZM 163.238 8.6C 164.545 8.6 165.578 8.84 166.338 9.32C 167.112 9.78667 167.498 10.4533 167.498 11.32L 167.498 19.12C 167.498 20.52 167.052 21.5933 166.158 22.34C 165.265 23.0867 163.992 23.46 162.338 23.46C 161.485 23.46 160.738 23.4 160.098 23.28C 159.458 23.16 158.958 23 158.598 22.8L 158.598 20.18C 158.985 20.3667 159.525 20.5467 160.218 20.72C 160.912 20.8933 161.578 20.98 162.218 20.98C 163.085 20.98 163.692 20.8067 164.038 20.46C 164.398 20.1133 164.578 19.6267 164.578 19L 164.578 18.42C 163.898 19.0067 163.045 19.3 162.018 19.3C 160.605 19.2333 159.512 18.7867 158.738 17.96C 157.965 17.12 157.578 15.8867 157.578 14.26C 157.578 12.1533 158.058 10.6867 159.018 9.86C 159.992 9.02 161.398 8.6 163.238 8.6ZM 160.538 14.08C 160.538 15 160.738 15.7333 161.138 16.28C 161.552 16.8133 162.098 17.08 162.778 17.08C 163.445 17.08 164.045 16.9267 164.578 16.62L 164.578 11.98C 164.578 11.3 164.045 10.96 162.978 10.96C 161.352 10.96 160.538 12 160.538 14.08ZM 187.041 8.6C 188.455 8.6 189.501 8.88 190.181 9.44C 190.861 9.98667 191.201 10.9067 191.201 12.2L 191.201 19L 188.221 19L 188.221 12.8C 188.221 11.64 187.568 11.06 186.261 11.06C 185.715 11.06 185.255 11.1867 184.881 11.44C 184.908 11.76 184.921 12.0133 184.921 12.2L 184.921 19L 181.941 19L 181.941 12.8C 181.941 11.64 181.288 11.06 179.981 11.06C 179.448 11.06 178.955 11.1733 178.501 11.4L 178.501 19L 175.521 19L 175.521 9.74C 176.041 9.46 176.835 9.2 177.901 8.96C 178.968 8.72 179.921 8.6 180.761 8.6C 182.108 8.6 183.101 8.84 183.741 9.32C 184.261 9.09333 184.808 8.92 185.381 8.8C 185.968 8.66667 186.521 8.6 187.041 8.6ZM 198.401 19.3C 196.695 19.3 195.415 18.8467 194.561 17.94C 193.708 17.0333 193.281 15.6867 193.281 13.9C 193.281 12.0333 193.701 10.6733 194.541 9.82C 195.395 8.96667 196.681 8.54 198.401 8.54C 200.121 8.54 201.415 8.98 202.281 9.86C 203.148 10.7267 203.581 12.0733 203.581 13.9C 203.581 15.66 203.135 17 202.241 17.92C 201.348 18.84 200.068 19.3 198.401 19.3ZM 198.401 16.92C 199.135 16.92 199.688 16.6667 200.061 16.16C 200.435 15.64 200.621 14.8867 200.621 13.9C 200.621 12.82 200.435 12.0533 200.061 11.6C 199.701 11.1333 199.148 10.9 198.401 10.9C 197.628 10.9 197.068 11.1333 196.721 11.6C 196.388 12.0533 196.221 12.82 196.221 13.9C 196.221 14.9267 196.395 15.6867 196.741 16.18C 197.101 16.6733 197.655 16.92 198.401 16.92ZM 205.638 9.74C 206.158 9.46 206.952 9.2 208.018 8.96C 209.085 8.72 210.038 8.6 210.878 8.6C 212.305 8.6 213.378 8.88 214.098 9.44C 214.818 10 215.178 10.92 215.178 12.2L 215.178 19L 212.198 19L 212.198 12.8C 212.198 11.64 211.545 11.06 210.238 11.06C 209.945 11.06 209.645 11.0933 209.338 11.16C 209.032 11.2267 208.792 11.3067 208.618 11.4L 208.618 19L 205.638 19L 205.638 9.74ZM 222.306 8.54C 225.466 8.54 227.026 10.6 226.986 14.72L 220.306 14.72C 220.559 16.12 221.499 16.82 223.126 16.82C 223.619 16.82 224.099 16.7533 224.566 16.62C 225.046 16.4733 225.553 16.2867 226.086 16.06L 226.086 18.62C 224.993 19.0733 223.766 19.3 222.406 19.3C 221.379 19.3 220.479 19.0933 219.706 18.68C 218.933 18.2533 218.333 17.6467 217.906 16.86C 217.479 16.0733 217.266 15.1467 217.266 14.08C 217.266 12.32 217.699 10.96 218.566 10C 219.446 9.02667 220.693 8.54 222.306 8.54ZM 222.186 10.82C 221.119 10.82 220.486 11.4867 220.286 12.82L 224.026 12.82C 223.933 12.1 223.739 11.5867 223.446 11.28C 223.166 10.9733 222.746 10.82 222.186 10.82ZM 238.472 8.88L 234.492 19.16C 233.518 21.6667 232.225 22.92 230.612 22.92C 229.918 22.92 229.318 22.8 228.812 22.56L 228.812 20.14C 229.212 20.2867 229.605 20.36 229.992 20.36C 230.392 20.36 230.725 20.2467 230.992 20.02C 231.272 19.7933 231.492 19.42 231.652 18.9L 227.592 8.88L 230.992 8.88L 233.132 15.52L 235.272 8.88L 238.472 8.88ZM 26.8094 32.6C 28.2894 32.6 29.4227 33.0533 30.2094 33.96C 30.996 34.8667 31.3894 36.18 31.3894 37.9C 31.376 41.5 29.6027 43.3 26.0694 43.3C 22.976 43.3 21.4294 42.42 21.4294 40.66L 21.4294 29.14L 24.3494 29.14L 24.3494 33.24C 24.7094 33.0267 25.116 32.8667 25.5694 32.76C 26.036 32.6533 26.4494 32.6 26.8094 32.6ZM 26.0294 40.82C 27.616 40.82 28.4094 39.9067 28.4094 38.08C 28.4094 36.0133 27.636 34.98 26.0894 34.98C 25.8094 34.98 25.5094 35.02 25.1894 35.1C 24.8694 35.1667 24.5894 35.2667 24.3494 35.4L 24.3494 39.88C 24.3494 40.5067 24.9094 40.82 26.0294 40.82ZM 37.9211 32.54C 41.0811 32.54 42.6411 34.6 42.6011 38.72L 35.9211 38.72C 36.1744 40.12 37.1144 40.82 38.7411 40.82C 39.2344 40.82 39.7144 40.7533 40.1811 40.62C 40.6611 40.4733 41.1678 40.2867 41.7011 40.06L 41.7011 42.62C 40.6078 43.0733 39.3811 43.3 38.0211 43.3C 36.9944 43.3 36.0944 43.0933 35.3211 42.68C 34.5478 42.2533 33.9478 41.6467 33.5211 40.86C 33.0944 40.0733 32.8811 39.1467 32.8811 38.08C 32.8811 36.32 33.3144 34.96 34.1811 34C 35.0611 33.0267 36.3078 32.54 37.9211 32.54ZM 37.8011 34.82C 36.7344 34.82 36.1011 35.4867 35.9011 36.82L 39.6411 36.82C 39.5478 36.1 39.3544 35.5867 39.0611 35.28C 38.7811 34.9733 38.3611 34.82 37.8011 34.82ZM 49.4116 43.26C 48.4249 43.26 47.5316 43.0667 46.7316 42.68C 45.9316 42.2933 45.2916 41.7133 44.8116 40.94C 44.3449 40.1533 44.1116 39.2 44.1116 38.08C 44.1116 36.28 44.5916 34.92 45.5516 34C 46.5116 33.0667 47.7916 32.6 49.3916 32.6C 49.9516 32.6 50.5182 32.66 51.0916 32.78C 51.6649 32.8867 52.1716 33.04 52.6116 33.24L 52.6116 35.8C 52.0649 35.56 51.5782 35.38 51.1516 35.26C 50.7249 35.1267 50.2982 35.06 49.8716 35.06C 48.9916 35.06 48.3049 35.28 47.8116 35.72C 47.3182 36.1467 47.0716 36.82 47.0716 37.74C 47.0716 38.7667 47.2982 39.5267 47.7516 40.02C 48.2182 40.5133 48.9716 40.76 50.0116 40.76C 50.7982 40.76 51.6716 40.4933 52.6316 39.96L 52.6316 42.5C 52.1516 42.7533 51.6516 42.94 51.1316 43.06C 50.6249 43.1933 50.0516 43.26 49.4116 43.26ZM 59.1306 32.58C 60.2373 32.58 61.244 32.84 62.1506 33.36C 63.0573 33.8667 63.5106 34.7867 63.5106 36.12L 63.4906 40.9C 63.4773 41.74 63.0573 42.3533 62.2306 42.74C 61.404 43.1133 60.1973 43.3 58.6106 43.3C 55.6506 43.3 54.1706 42.1467 54.1706 39.84C 54.1706 38.8667 54.4706 38.1067 55.0706 37.56C 55.684 37.0133 56.5906 36.74 57.7906 36.74C 58.284 36.74 58.7773 36.8067 59.2706 36.94C 59.764 37.06 60.1906 37.22 60.5506 37.42L 60.5506 36.78C 60.5506 35.62 59.804 35.04 58.3106 35.04C 57.7373 35.04 57.144 35.1467 56.5306 35.36C 55.9306 35.56 55.4506 35.8067 55.0906 36.1L 55.0906 33.46C 55.4506 33.22 55.9973 33.0133 56.7306 32.84C 57.4773 32.6667 58.2773 32.58 59.1306 32.58ZM 58.7106 41.2C 59.404 41.2 59.884 41.1533 60.1506 41.06C 60.4173 40.9667 60.5506 40.78 60.5506 40.5L 60.5506 38.94C 60.084 38.78 59.5706 38.7 59.0106 38.7C 58.3573 38.7 57.8773 38.8 57.5706 39C 57.2773 39.1867 57.1306 39.4867 57.1306 39.9C 57.1306 40.2867 57.284 40.6 57.5906 40.84C 57.9106 41.08 58.284 41.2 58.7106 41.2ZM 70.9159 43.3C 69.4359 43.3 68.2693 42.9533 67.4159 42.26C 66.5759 41.5667 66.1559 40.5267 66.1559 39.14L 66.1559 32.88L 69.1359 32.88L 69.1359 38.9C 69.1359 39.54 69.2759 40.02 69.5559 40.34C 69.8493 40.6467 70.3093 40.8 70.9359 40.8C 71.5626 40.8 72.0159 40.6467 72.2959 40.34C 72.5893 40.02 72.7359 39.54 72.7359 38.9L 72.7359 32.88L 75.5359 32.88L 75.5359 39.14C 75.5359 40.54 75.1293 41.5867 74.3159 42.28C 73.5159 42.96 72.3826 43.3 70.9159 43.3ZM 81.1677 43.3C 80.5277 43.3 79.9677 43.2333 79.4877 43.1C 79.0077 42.98 78.4743 42.8 77.8877 42.56L 77.8877 39.94C 78.9677 40.7533 80.101 41.16 81.2877 41.16C 81.741 41.16 82.0677 41.0867 82.2677 40.94C 82.481 40.78 82.5877 40.5667 82.5877 40.3C 82.5877 39.9933 82.421 39.7667 82.0877 39.62C 81.7543 39.4733 81.221 39.3133 80.4877 39.14C 79.7143 38.98 79.0743 38.66 78.5677 38.18C 78.0743 37.7 77.8277 37 77.8277 36.08C 77.8277 35.2933 78.0277 34.6467 78.4277 34.14C 78.8277 33.6333 79.3277 33.2667 79.9277 33.04C 80.541 32.8 81.1743 32.68 81.8277 32.68C 82.6277 32.68 83.2743 32.7533 83.7677 32.9C 84.2743 33.0333 84.7677 33.2467 85.2477 33.54L 85.2477 35.88C 84.5677 35.5067 84.041 35.24 83.6677 35.08C 83.2943 34.92 82.861 34.84 82.3677 34.84C 81.8743 34.84 81.5077 34.92 81.2677 35.08C 81.0277 35.2267 80.9077 35.44 80.9077 35.72C 80.9077 36.0533 81.041 36.3 81.3077 36.46C 81.5743 36.6067 82.001 36.76 82.5877 36.92C 83.2543 37.0933 83.781 37.2667 84.1677 37.44C 84.5543 37.6 84.901 37.8867 85.2077 38.3C 85.5143 38.7 85.6677 39.2667 85.6677 40C 85.641 41.1467 85.2077 41.9867 84.3677 42.52C 83.5277 43.04 82.461 43.3 81.1677 43.3ZM 92.2961 32.54C 95.4561 32.54 97.0161 34.6 96.9761 38.72L 90.2961 38.72C 90.5494 40.12 91.4894 40.82 93.1161 40.82C 93.6094 40.82 94.0894 40.7533 94.5561 40.62C 95.0361 40.4733 95.5428 40.2867 96.0761 40.06L 96.0761 42.62C 94.9828 43.0733 93.7561 43.3 92.3961 43.3C 91.3694 43.3 90.4694 43.0933 89.6961 42.68C 88.9228 42.2533 88.3228 41.6467 87.8961 40.86C 87.4694 40.0733 87.2561 39.1467 87.2561 38.08C 87.2561 36.32 87.6894 34.96 88.5561 34C 89.4361 33.0267 90.6828 32.54 92.2961 32.54ZM 92.1761 34.82C 91.1094 34.82 90.4761 35.4867 90.2761 36.82L 94.0161 36.82C 93.9228 36.1 93.7294 35.5867 93.4361 35.28C 93.1561 34.9733 92.7361 34.82 92.1761 34.82ZM 114.634 32.88L 110.654 43.16C 109.681 45.6667 108.387 46.92 106.774 46.92C 106.081 46.92 105.481 46.8 104.974 46.56L 104.974 44.14C 105.374 44.2867 105.767 44.36 106.154 44.36C 106.554 44.36 106.887 44.2467 107.154 44.02C 107.434 43.7933 107.654 43.42 107.814 42.9L 103.754 32.88L 107.154 32.88L 109.294 39.52L 111.434 32.88L 114.634 32.88ZM 120.345 43.3C 118.638 43.3 117.358 42.8467 116.505 41.94C 115.652 41.0333 115.225 39.6867 115.225 37.9C 115.225 36.0333 115.645 34.6733 116.485 33.82C 117.338 32.9667 118.625 32.54 120.345 32.54C 122.065 32.54 123.358 32.98 124.225 33.86C 125.092 34.7267 125.525 36.0733 125.525 37.9C 125.525 39.66 125.078 41 124.185 41.92C 123.292 42.84 122.012 43.3 120.345 43.3ZM 120.345 40.92C 121.078 40.92 121.632 40.6667 122.005 40.16C 122.378 39.64 122.565 38.8867 122.565 37.9C 122.565 36.82 122.378 36.0533 122.005 35.6C 121.645 35.1333 121.092 34.9 120.345 34.9C 119.572 34.9 119.012 35.1333 118.665 35.6C 118.332 36.0533 118.165 36.82 118.165 37.9C 118.165 38.9267 118.338 39.6867 118.685 40.18C 119.045 40.6733 119.598 40.92 120.345 40.92ZM 132.342 43.3C 130.862 43.3 129.695 42.9533 128.842 42.26C 128.002 41.5667 127.582 40.5267 127.582 39.14L 127.582 32.88L 130.562 32.88L 130.562 38.9C 130.562 39.54 130.702 40.02 130.982 40.34C 131.275 40.6467 131.735 40.8 132.362 40.8C 132.988 40.8 133.442 40.6467 133.722 40.34C 134.015 40.02 134.162 39.54 134.162 38.9L 134.162 32.88L 136.962 32.88L 136.962 39.14C 136.962 40.54 136.555 41.5867 135.742 42.28C 134.942 42.96 133.808 43.3 132.342 43.3ZM 154.661 28.72L 154.661 40.36C 154.661 40.9867 154.441 41.52 154.001 41.96C 153.561 42.4 152.981 42.7333 152.261 42.96C 151.541 43.1867 150.774 43.3 149.961 43.3C 148.241 43.3 146.907 42.8933 145.961 42.08C 145.027 41.2667 144.561 39.86 144.561 37.86C 144.561 36.18 144.967 34.88 145.781 33.96C 146.607 33.0267 147.814 32.56 149.401 32.56C 150.347 32.56 151.114 32.7333 151.701 33.08L 151.701 28.72L 154.661 28.72ZM 151.701 35.38C 151.167 35.1 150.647 34.96 150.141 34.96C 149.247 34.96 148.594 35.1867 148.181 35.64C 147.767 36.0933 147.561 36.86 147.561 37.94C 147.561 38.8733 147.754 39.5867 148.141 40.08C 148.527 40.56 149.174 40.8 150.081 40.8C 150.574 40.8 150.967 40.7333 151.261 40.6C 151.554 40.4667 151.701 40.28 151.701 40.04L 151.701 35.38ZM 161.868 43.3C 160.162 43.3 158.882 42.8467 158.028 41.94C 157.175 41.0333 156.748 39.6867 156.748 37.9C 156.748 36.0333 157.168 34.6733 158.008 33.82C 158.862 32.9667 160.148 32.54 161.868 32.54C 163.588 32.54 164.882 32.98 165.748 33.86C 166.615 34.7267 167.048 36.0733 167.048 37.9C 167.048 39.66 166.602 41 165.708 41.92C 164.815 42.84 163.535 43.3 161.868 43.3ZM 161.868 40.92C 162.602 40.92 163.155 40.6667 163.528 40.16C 163.902 39.64 164.088 38.8867 164.088 37.9C 164.088 36.82 163.902 36.0533 163.528 35.6C 163.168 35.1333 162.615 34.9 161.868 34.9C 161.095 34.9 160.535 35.1333 160.188 35.6C 159.855 36.0533 159.688 36.82 159.688 37.9C 159.688 38.9267 159.862 39.6867 160.208 40.18C 160.568 40.6733 161.122 40.92 161.868 40.92ZM 169.105 33.74C 169.625 33.46 170.418 33.2 171.485 32.96C 172.552 32.72 173.505 32.6 174.345 32.6C 175.772 32.6 176.845 32.88 177.565 33.44C 178.285 34 178.645 34.92 178.645 36.2L 178.645 43L 175.665 43L 175.665 36.8C 175.665 35.64 175.012 35.06 173.705 35.06C 173.412 35.06 173.112 35.0933 172.805 35.16C 172.498 35.2267 172.258 35.3067 172.085 35.4L 172.085 43L 169.105 43L 169.105 33.74ZM 181.593 29.48L 183.833 29.48L 183.493 33.5L 181.953 33.5L 181.593 29.48ZM 190.921 43.4C 189.761 43.4 188.888 43.1267 188.301 42.58C 187.728 42.0333 187.441 41.2467 187.441 40.22L 187.441 35.16L 185.961 35.16L 185.961 32.88L 187.441 32.88L 187.441 30.1L 190.561 30.1L 190.561 32.88L 192.781 32.88L 192.781 35.16L 190.561 35.16L 190.561 39.84C 190.561 40.1867 190.634 40.4467 190.781 40.62C 190.928 40.78 191.174 40.86 191.521 40.86C 191.734 40.86 191.954 40.8267 192.181 40.76C 192.408 40.68 192.608 40.5733 192.781 40.44L 192.781 42.98C 192.274 43.26 191.654 43.4 190.921 43.4ZM 206.71 43L 203.55 38.82L 203.53 43L 200.57 43L 200.57 29.06L 203.57 29.06L 203.55 36.62L 206.61 32.88L 210.23 32.88L 206.05 37.28L 210.49 43L 206.71 43ZM 212.328 33.74C 212.848 33.46 213.641 33.2 214.708 32.96C 215.774 32.72 216.728 32.6 217.568 32.6C 218.994 32.6 220.068 32.88 220.788 33.44C 221.508 34 221.868 34.92 221.868 36.2L 221.868 43L 218.888 43L 218.888 36.8C 218.888 35.64 218.234 35.06 216.928 35.06C 216.634 35.06 216.334 35.0933 216.028 35.16C 215.721 35.2267 215.481 35.3067 215.308 35.4L 215.308 43L 212.328 43L 212.328 33.74ZM 229.075 43.3C 227.369 43.3 226.089 42.8467 225.235 41.94C 224.382 41.0333 223.955 39.6867 223.955 37.9C 223.955 36.0333 224.375 34.6733 225.215 33.82C 226.069 32.9667 227.355 32.54 229.075 32.54C 230.795 32.54 232.089 32.98 232.955 33.86C 233.822 34.7267 234.255 36.0733 234.255 37.9C 234.255 39.66 233.809 41 232.915 41.92C 232.022 42.84 230.742 43.3 229.075 43.3ZM 229.075 40.92C 229.809 40.92 230.362 40.6667 230.735 40.16C 231.109 39.64 231.295 38.8867 231.295 37.9C 231.295 36.82 231.109 36.0533 230.735 35.6C 230.375 35.1333 229.822 34.9 229.075 34.9C 228.302 34.9 227.742 35.1333 227.395 35.6C 227.062 36.0533 226.895 36.82 226.895 37.9C 226.895 38.9267 227.069 39.6867 227.415 40.18C 227.775 40.6733 228.329 40.92 229.075 40.92ZM 250.388 32.88L 247.028 43L 244.328 43L 242.588 37.32L 240.928 43L 238.228 43L 234.848 32.88L 238.048 32.88L 239.828 39.32L 241.508 32.88L 243.708 32.88L 245.448 39.48L 247.248 32.88L 250.388 32.88ZM 27.0941 56.6C 28.2674 56.6 29.1807 56.8933 29.8341 57.48C 30.4874 58.0667 30.8141 59.0267 30.8141 60.36L 30.8141 67L 27.8341 67L 27.8341 60.98C 27.8341 59.7 27.1941 59.06 25.9141 59.06C 25.6074 59.06 25.2941 59.1067 24.9741 59.2C 24.6541 59.2933 24.4074 59.4067 24.2341 59.54L 24.1941 67L 21.2341 67L 21.2341 52.88L 24.2341 52.88L 24.2341 57.34C 25.1541 56.8467 26.1074 56.6 27.0941 56.6ZM 38.0206 67.3C 36.314 67.3 35.034 66.8467 34.1806 65.94C 33.3273 65.0333 32.9006 63.6867 32.9006 61.9C 32.9006 60.0333 33.3206 58.6733 34.1606 57.82C 35.014 56.9667 36.3006 56.54 38.0206 56.54C 39.7406 56.54 41.034 56.98 41.9006 57.86C 42.7673 58.7267 43.2006 60.0733 43.2006 61.9C 43.2006 63.66 42.754 65 41.8606 65.92C 40.9673 66.84 39.6873 67.3 38.0206 67.3ZM 38.0206 64.92C 38.754 64.92 39.3073 64.6667 39.6806 64.16C 40.054 63.64 40.2406 62.8867 40.2406 61.9C 40.2406 60.82 40.054 60.0533 39.6806 59.6C 39.3206 59.1333 38.7673 58.9 38.0206 58.9C 37.2473 58.9 36.6873 59.1333 36.3406 59.6C 36.0073 60.0533 35.8406 60.82 35.8406 61.9C 35.8406 62.9267 36.014 63.6867 36.3606 64.18C 36.7206 64.6733 37.274 64.92 38.0206 64.92ZM 59.333 56.88L 55.973 67L 53.273 67L 51.533 61.32L 49.873 67L 47.173 67L 43.793 56.88L 46.993 56.88L 48.773 63.32L 50.453 56.88L 52.653 56.88L 54.393 63.48L 56.193 56.88L 59.333 56.88ZM 70.8233 67.4C 69.6633 67.4 68.7899 67.1267 68.2033 66.58C 67.6299 66.0333 67.3433 65.2467 67.3433 64.22L 67.3433 59.16L 65.8633 59.16L 65.8633 56.88L 67.3433 56.88L 67.3433 54.1L 70.4633 54.1L 70.4633 56.88L 72.6833 56.88L 72.6833 59.16L 70.4633 59.16L 70.4633 63.84C 70.4633 64.1867 70.5366 64.4467 70.6833 64.62C 70.8299 64.78 71.0766 64.86 71.4233 64.86C 71.6366 64.86 71.8566 64.8267 72.0833 64.76C 72.3099 64.68 72.5099 64.5733 72.6833 64.44L 72.6833 66.98C 72.1766 67.26 71.5566 67.4 70.8233 67.4ZM 79.505 67.3C 77.7983 67.3 76.5183 66.8467 75.665 65.94C 74.8117 65.0333 74.385 63.6867 74.385 61.9C 74.385 60.0333 74.805 58.6733 75.645 57.82C 76.4983 56.9667 77.785 56.54 79.505 56.54C 81.225 56.54 82.5183 56.98 83.385 57.86C 84.2517 58.7267 84.685 60.0733 84.685 61.9C 84.685 63.66 84.2383 65 83.345 65.92C 82.4517 66.84 81.1717 67.3 79.505 67.3ZM 79.505 64.92C 80.2383 64.92 80.7917 64.6667 81.165 64.16C 81.5383 63.64 81.725 62.8867 81.725 61.9C 81.725 60.82 81.5383 60.0533 81.165 59.6C 80.805 59.1333 80.2517 58.9 79.505 58.9C 78.7317 58.9 78.1717 59.1333 77.825 59.6C 77.4917 60.0533 77.325 60.82 77.325 61.9C 77.325 62.9267 77.4983 63.6867 77.845 64.18C 78.205 64.6733 78.7583 64.92 79.505 64.92ZM 92.2692 53.2L 95.3492 53.2L 95.3492 55.5L 92.2692 55.5L 92.2692 53.2ZM 92.3292 57.02L 95.3092 57.02L 95.3292 67L 92.3292 67L 92.3292 57.02ZM 97.9919 57.74C 98.5119 57.46 99.3052 57.2 100.372 56.96C 101.439 56.72 102.392 56.6 103.232 56.6C 104.659 56.6 105.732 56.88 106.452 57.44C 107.172 58 107.532 58.92 107.532 60.2L 107.532 67L 104.552 67L 104.552 60.8C 104.552 59.64 103.899 59.06 102.592 59.06C 102.299 59.06 101.999 59.0933 101.692 59.16C 101.385 59.2267 101.145 59.3067 100.972 59.4L 100.972 67L 97.9919 67L 97.9919 57.74ZM 120.35 56.88L 116.13 67L 113.15 67L 108.93 56.88L 112.15 56.88L 114.83 63.72L 117.21 56.88L 120.35 56.88ZM 126.007 56.54C 129.167 56.54 130.727 58.6 130.687 62.72L 124.007 62.72C 124.26 64.12 125.2 64.82 126.827 64.82C 127.32 64.82 127.8 64.7533 128.267 64.62C 128.747 64.4733 129.254 64.2867 129.787 64.06L 129.787 66.62C 128.694 67.0733 127.467 67.3 126.107 67.3C 125.08 67.3 124.18 67.0933 123.407 66.68C 122.634 66.2533 122.034 65.6467 121.607 64.86C 121.18 64.0733 120.967 63.1467 120.967 62.08C 120.967 60.32 121.4 58.96 122.267 58C 123.147 57.0267 124.394 56.54 126.007 56.54ZM 125.887 58.82C 124.82 58.82 124.187 59.4867 123.987 60.82L 127.727 60.82C 127.634 60.1 127.44 59.5867 127.147 59.28C 126.867 58.9733 126.447 58.82 125.887 58.82ZM 135.758 67.3C 135.118 67.3 134.557 67.2333 134.077 67.1C 133.598 66.98 133.064 66.8 132.478 66.56L 132.478 63.94C 133.558 64.7533 134.691 65.16 135.878 65.16C 136.331 65.16 136.658 65.0867 136.857 64.94C 137.071 64.78 137.178 64.5667 137.178 64.3C 137.178 63.9933 137.011 63.7667 136.677 63.62C 136.344 63.4733 135.811 63.3133 135.077 63.14C 134.304 62.98 133.664 62.66 133.158 62.18C 132.664 61.7 132.417 61 132.417 60.08C 132.417 59.2933 132.618 58.6467 133.018 58.14C 133.417 57.6333 133.917 57.2667 134.517 57.04C 135.131 56.8 135.764 56.68 136.417 56.68C 137.217 56.68 137.864 56.7533 138.357 56.9C 138.864 57.0333 139.357 57.2467 139.837 57.54L 139.837 59.88C 139.157 59.5067 138.631 59.24 138.257 59.08C 137.884 58.92 137.451 58.84 136.957 58.84C 136.464 58.84 136.097 58.92 135.858 59.08C 135.617 59.2267 135.497 59.44 135.497 59.72C 135.497 60.0533 135.631 60.3 135.898 60.46C 136.164 60.6067 136.591 60.76 137.178 60.92C 137.844 61.0933 138.371 61.2667 138.757 61.44C 139.144 61.6 139.491 61.8867 139.798 62.3C 140.104 62.7 140.258 63.2667 140.258 64C 140.231 65.1467 139.798 65.9867 138.957 66.52C 138.117 67.04 137.051 67.3 135.758 67.3ZM 146.546 67.4C 145.386 67.4 144.513 67.1267 143.926 66.58C 143.353 66.0333 143.066 65.2467 143.066 64.22L 143.066 59.16L 141.586 59.16L 141.586 56.88L 143.066 56.88L 143.066 54.1L 146.186 54.1L 146.186 56.88L 148.406 56.88L 148.406 59.16L 146.186 59.16L 146.186 63.84C 146.186 64.1867 146.259 64.4467 146.406 64.62C 146.553 64.78 146.799 64.86 147.146 64.86C 147.359 64.86 147.579 64.8267 147.806 64.76C 148.033 64.68 148.233 64.5733 148.406 64.44L 148.406 66.98C 147.899 67.26 147.279 67.4 146.546 67.4ZM 156.195 53.2L 159.275 53.2L 159.275 55.5L 156.195 55.5L 156.195 53.2ZM 156.255 57.02L 159.235 57.02L 159.255 67L 156.255 67L 156.255 57.02ZM 161.918 57.74C 162.438 57.46 163.231 57.2 164.298 56.96C 165.364 56.72 166.318 56.6 167.158 56.6C 168.584 56.6 169.658 56.88 170.378 57.44C 171.098 58 171.458 58.92 171.458 60.2L 171.458 67L 168.478 67L 168.478 60.8C 168.478 59.64 167.824 59.06 166.518 59.06C 166.224 59.06 165.924 59.0933 165.618 59.16C 165.311 59.2267 165.071 59.3067 164.898 59.4L 164.898 67L 161.918 67L 161.918 57.74ZM 184.373 67.26C 183.386 67.26 182.493 67.0667 181.692 66.68C 180.892 66.2933 180.252 65.7133 179.772 64.94C 179.306 64.1533 179.072 63.2 179.072 62.08C 179.072 60.28 179.552 58.92 180.512 58C 181.472 57.0667 182.752 56.6 184.352 56.6C 184.913 56.6 185.479 56.66 186.052 56.78C 186.626 56.8867 187.133 57.04 187.572 57.24L 187.572 59.8C 187.026 59.56 186.539 59.38 186.112 59.26C 185.686 59.1267 185.259 59.06 184.833 59.06C 183.952 59.06 183.266 59.28 182.773 59.72C 182.279 60.1467 182.033 60.82 182.033 61.74C 182.033 62.7667 182.259 63.5267 182.712 64.02C 183.179 64.5133 183.932 64.76 184.973 64.76C 185.759 64.76 186.632 64.4933 187.592 63.96L 187.592 66.5C 187.112 66.7533 186.613 66.94 186.092 67.06C 185.586 67.1933 185.013 67.26 184.373 67.26ZM 189.672 57.94C 189.872 57.7667 190.218 57.5733 190.712 57.36C 191.218 57.1467 191.778 56.9667 192.392 56.82C 193.018 56.66 193.618 56.58 194.192 56.58C 195.298 56.58 196.065 56.7467 196.492 57.08L 196.492 59.26C 195.958 59.14 195.192 59.08 194.192 59.08C 193.565 59.08 193.052 59.1133 192.652 59.18L 192.652 67L 189.672 67L 189.672 57.94ZM 208.286 56.88L 204.306 67.16C 203.333 69.6667 202.04 70.92 200.426 70.92C 199.733 70.92 199.133 70.8 198.626 70.56L 198.626 68.14C 199.026 68.2867 199.42 68.36 199.806 68.36C 200.206 68.36 200.54 68.2467 200.806 68.02C 201.086 67.7933 201.306 67.42 201.466 66.9L 197.406 56.88L 200.806 56.88L 202.946 63.52L 205.086 56.88L 208.286 56.88ZM 214.902 56.54C 216.528 56.54 217.788 56.9667 218.682 57.82C 219.575 58.66 220.022 60.0667 220.022 62.04C 220.022 63.6267 219.622 64.9 218.822 65.86C 218.022 66.82 216.928 67.3 215.542 67.3C 214.528 67.3 213.682 67.12 213.002 66.76L 213.002 70.62L 210.082 70.62L 210.082 59.02C 210.082 58.2067 210.528 57.5933 211.422 57.18C 212.328 56.7667 213.488 56.5533 214.902 56.54ZM 214.662 64.9C 215.475 64.9 216.075 64.6733 216.462 64.22C 216.848 63.7667 217.042 63.0067 217.042 61.94C 217.042 60.98 216.868 60.26 216.522 59.78C 216.188 59.2867 215.608 59.04 214.782 59.04C 213.595 59.04 213.002 59.2667 213.002 59.72L 213.002 64.48C 213.242 64.6267 213.508 64.7333 213.802 64.8C 214.095 64.8667 214.382 64.9 214.662 64.9ZM 226.233 67.4C 225.073 67.4 224.2 67.1267 223.613 66.58C 223.04 66.0333 222.753 65.2467 222.753 64.22L 222.753 59.16L 221.273 59.16L 221.273 56.88L 222.753 56.88L 222.753 54.1L 225.873 54.1L 225.873 56.88L 228.093 56.88L 228.093 59.16L 225.873 59.16L 225.873 63.84C 225.873 64.1867 225.947 64.4467 226.093 64.62C 226.24 64.78 226.487 64.86 226.833 64.86C 227.047 64.86 227.267 64.8267 227.493 64.76C 227.72 64.68 227.92 64.5733 228.093 64.44L 228.093 66.98C 227.587 67.26 226.967 67.4 226.233 67.4ZM 234.915 67.3C 233.208 67.3 231.928 66.8467 231.075 65.94C 230.222 65.0333 229.795 63.6867 229.795 61.9C 229.795 60.0333 230.215 58.6733 231.055 57.82C 231.908 56.9667 233.195 56.54 234.915 56.54C 236.635 56.54 237.928 56.98 238.795 57.86C 239.662 58.7267 240.095 60.0733 240.095 61.9C 240.095 63.66 239.648 65 238.755 65.92C 237.862 66.84 236.582 67.3 234.915 67.3ZM 234.915 64.92C 235.648 64.92 236.202 64.6667 236.575 64.16C 236.948 63.64 237.135 62.8867 237.135 61.9C 237.135 60.82 236.948 60.0533 236.575 59.6C 236.215 59.1333 235.662 58.9 234.915 58.9C 234.142 58.9 233.582 59.1333 233.235 59.6C 232.902 60.0533 232.735 60.82 232.735 61.9C 232.735 62.9267 232.908 63.6867 233.255 64.18C 233.615 64.6733 234.168 64.92 234.915 64.92ZM 244.432 62.82C 244.432 62.1533 244.519 61.5867 244.692 61.12C 244.879 60.6533 245.092 60.28 245.332 60C 245.585 59.7067 245.905 59.3867 246.292 59.04C 246.679 58.6933 246.959 58.4067 247.132 58.18C 247.305 57.94 247.392 57.6533 247.392 57.32C 247.392 56.7067 247.205 56.28 246.832 56.04C 246.472 55.8 245.972 55.68 245.332 55.68C 244.812 55.68 244.292 55.7733 243.772 55.96C 243.252 56.1333 242.805 56.36 242.432 56.64L 242.432 54.38C 242.739 54.1667 243.192 53.9667 243.792 53.78C 244.392 53.5933 245.019 53.5 245.672 53.5C 246.939 53.5 247.932 53.8467 248.652 54.54C 249.385 55.22 249.752 56.1467 249.752 57.32C 249.752 57.7733 249.679 58.1733 249.532 58.52C 249.399 58.8533 249.232 59.1333 249.032 59.36C 248.845 59.5867 248.585 59.8533 248.252 60.16C 247.772 60.5867 247.405 60.9933 247.152 61.38C 246.912 61.7667 246.792 62.2733 246.792 62.9L 246.792 63.3L 244.432 63.3L 244.432 62.82ZM 244.292 64.72L 246.932 64.72L 246.932 67L 244.292 67L 244.292 64.72ZM 14.6837 77.66L 17.9237 77.66L 17.9237 88.46L 23.7237 88.46L 23.7237 91L 14.6837 91L 14.6837 77.66ZM 30.1574 80.54C 33.3174 80.54 34.8774 82.6 34.8374 86.72L 28.1574 86.72C 28.4108 88.12 29.3508 88.82 30.9774 88.82C 31.4708 88.82 31.9508 88.7533 32.4174 88.62C 32.8974 88.4733 33.4041 88.2867 33.9374 88.06L 33.9374 90.62C 32.8441 91.0733 31.6174 91.3 30.2574 91.3C 29.2308 91.3 28.3308 91.0933 27.5574 90.68C 26.7841 90.2533 26.1841 89.6467 25.7574 88.86C 25.3308 88.0733 25.1174 87.1467 25.1174 86.08C 25.1174 84.32 25.5508 82.96 26.4174 82C 27.2974 81.0267 28.5441 80.54 30.1574 80.54ZM 30.0374 82.82C 28.9708 82.82 28.3374 83.4867 28.1374 84.82L 31.8774 84.82C 31.7841 84.1 31.5908 83.5867 31.2974 83.28C 31.0174 82.9733 30.5974 82.82 30.0374 82.82ZM 41.0479 91.4C 39.8879 91.4 39.0146 91.1267 38.4279 90.58C 37.8546 90.0333 37.5679 89.2467 37.5679 88.22L 37.5679 83.16L 36.0879 83.16L 36.0879 80.88L 37.5679 80.88L 37.5679 78.1L 40.6879 78.1L 40.6879 80.88L 42.9079 80.88L 42.9079 83.16L 40.6879 83.16L 40.6879 87.84C 40.6879 88.1867 40.7612 88.4467 40.9079 88.62C 41.0546 88.78 41.3012 88.86 41.6479 88.86C 41.8612 88.86 42.0812 88.8267 42.3079 88.76C 42.5346 88.68 42.7346 88.5733 42.9079 88.44L 42.9079 90.98C 42.4012 91.26 41.7812 91.4 41.0479 91.4ZM 54.837 91.4C 53.677 91.4 52.8036 91.1267 52.217 90.58C 51.6436 90.0333 51.357 89.2467 51.357 88.22L 51.357 83.16L 49.877 83.16L 49.877 80.88L 51.357 80.88L 51.357 78.1L 54.477 78.1L 54.477 80.88L 56.697 80.88L 56.697 83.16L 54.477 83.16L 54.477 87.84C 54.477 88.1867 54.5503 88.4467 54.697 88.62C 54.8436 88.78 55.0903 88.86 55.437 88.86C 55.6503 88.86 55.8703 88.8267 56.097 88.76C 56.3236 88.68 56.5236 88.5733 56.697 88.44L 56.697 90.98C 56.1903 91.26 55.5703 91.4 54.837 91.4ZM 64.8187 80.6C 65.992 80.6 66.9053 80.8933 67.5587 81.48C 68.212 82.0667 68.5387 83.0267 68.5387 84.36L 68.5387 91L 65.5587 91L 65.5587 84.98C 65.5587 83.7 64.9187 83.06 63.6387 83.06C 63.332 83.06 63.0187 83.1067 62.6987 83.2C 62.3787 83.2933 62.132 83.4067 61.9587 83.54L 61.9187 91L 58.9587 91L 58.9587 76.88L 61.9587 76.88L 61.9587 81.34C 62.8787 80.8467 63.832 80.6 64.8187 80.6ZM 75.6652 80.54C 78.8252 80.54 80.3852 82.6 80.3452 86.72L 73.6652 86.72C 73.9186 88.12 74.8586 88.82 76.4852 88.82C 76.9786 88.82 77.4586 88.7533 77.9252 88.62C 78.4052 88.4733 78.9119 88.2867 79.4452 88.06L 79.4452 90.62C 78.3519 91.0733 77.1252 91.3 75.7652 91.3C 74.7386 91.3 73.8386 91.0933 73.0652 90.68C 72.2919 90.2533 71.6919 89.6467 71.2652 88.86C 70.8386 88.0733 70.6252 87.1467 70.6252 86.08C 70.6252 84.32 71.0586 82.96 71.9252 82C 72.8052 81.0267 74.0519 80.54 75.6652 80.54ZM 75.5452 82.82C 74.4786 82.82 73.8452 83.4867 73.6452 84.82L 77.3852 84.82C 77.2919 84.1 77.0986 83.5867 76.8052 83.28C 76.5252 82.9733 76.1052 82.82 75.5452 82.82ZM 92.683 91.26C 91.6964 91.26 90.803 91.0667 90.003 90.68C 89.203 90.2933 88.563 89.7133 88.083 88.94C 87.6164 88.1533 87.383 87.2 87.383 86.08C 87.383 84.28 87.863 82.92 88.823 82C 89.783 81.0667 91.063 80.6 92.663 80.6C 93.223 80.6 93.7897 80.66 94.363 80.78C 94.9364 80.8867 95.443 81.04 95.883 81.24L 95.883 83.8C 95.3364 83.56 94.8497 83.38 94.423 83.26C 93.9964 83.1267 93.5697 83.06 93.143 83.06C 92.263 83.06 91.5764 83.28 91.083 83.72C 90.5897 84.1467 90.343 84.82 90.343 85.74C 90.343 86.7667 90.5697 87.5267 91.023 88.02C 91.4897 88.5133 92.243 88.76 93.283 88.76C 94.0697 88.76 94.943 88.4933 95.903 87.96L 95.903 90.5C 95.423 90.7533 94.923 90.94 94.403 91.06C 93.8964 91.1933 93.323 91.26 92.683 91.26ZM 102.542 91.3C 100.835 91.3 99.5554 90.8467 98.7021 89.94C 97.8488 89.0333 97.4221 87.6867 97.4221 85.9C 97.4221 84.0333 97.8421 82.6733 98.6821 81.82C 99.5354 80.9667 100.822 80.54 102.542 80.54C 104.262 80.54 105.555 80.98 106.422 81.86C 107.289 82.7267 107.722 84.0733 107.722 85.9C 107.722 87.66 107.275 89 106.382 89.92C 105.489 90.84 104.209 91.3 102.542 91.3ZM 102.542 88.92C 103.275 88.92 103.829 88.6667 104.202 88.16C 104.575 87.64 104.762 86.8867 104.762 85.9C 104.762 84.82 104.575 84.0533 104.202 83.6C 103.842 83.1333 103.289 82.9 102.542 82.9C 101.769 82.9 101.209 83.1333 100.862 83.6C 100.529 84.0533 100.362 84.82 100.362 85.9C 100.362 86.9267 100.535 87.6867 100.882 88.18C 101.242 88.6733 101.795 88.92 102.542 88.92ZM 121.299 80.6C 122.712 80.6 123.759 80.88 124.439 81.44C 125.119 81.9867 125.459 82.9067 125.459 84.2L 125.459 91L 122.479 91L 122.479 84.8C 122.479 83.64 121.826 83.06 120.519 83.06C 119.972 83.06 119.512 83.1867 119.139 83.44C 119.166 83.76 119.179 84.0133 119.179 84.2L 119.179 91L 116.199 91L 116.199 84.8C 116.199 83.64 115.546 83.06 114.239 83.06C 113.706 83.06 113.212 83.1733 112.759 83.4L 112.759 91L 109.779 91L 109.779 81.74C 110.299 81.46 111.092 81.2 112.159 80.96C 113.226 80.72 114.179 80.6 115.019 80.6C 116.366 80.6 117.359 80.84 117.999 81.32C 118.519 81.0933 119.066 80.92 119.639 80.8C 120.226 80.6667 120.779 80.6 121.299 80.6ZM 139.619 80.6C 141.033 80.6 142.079 80.88 142.759 81.44C 143.439 81.9867 143.779 82.9067 143.779 84.2L 143.779 91L 140.799 91L 140.799 84.8C 140.799 83.64 140.146 83.06 138.839 83.06C 138.293 83.06 137.833 83.1867 137.459 83.44C 137.486 83.76 137.499 84.0133 137.499 84.2L 137.499 91L 134.519 91L 134.519 84.8C 134.519 83.64 133.866 83.06 132.559 83.06C 132.026 83.06 131.533 83.1733 131.079 83.4L 131.079 91L 128.099 91L 128.099 81.74C 128.619 81.46 129.413 81.2 130.479 80.96C 131.546 80.72 132.499 80.6 133.339 80.6C 134.686 80.6 135.679 80.84 136.319 81.32C 136.839 81.0933 137.386 80.92 137.959 80.8C 138.546 80.6667 139.099 80.6 139.619 80.6ZM 151.18 91.3C 149.7 91.3 148.533 90.9533 147.68 90.26C 146.84 89.5667 146.42 88.5267 146.42 87.14L 146.42 80.88L 149.4 80.88L 149.4 86.9C 149.4 87.54 149.54 88.02 149.82 88.34C 150.113 88.6467 150.573 88.8 151.2 88.8C 151.826 88.8 152.28 88.6467 152.56 88.34C 152.853 88.02 153 87.54 153 86.9L 153 80.88L 155.8 80.88L 155.8 87.14C 155.8 88.54 155.393 89.5867 154.58 90.28C 153.78 90.96 152.646 91.3 151.18 91.3ZM 158.431 81.74C 158.951 81.46 159.745 81.2 160.811 80.96C 161.878 80.72 162.831 80.6 163.671 80.6C 165.098 80.6 166.171 80.88 166.891 81.44C 167.611 82 167.971 82.92 167.971 84.2L 167.971 91L 164.991 91L 164.991 84.8C 164.991 83.64 164.338 83.06 163.031 83.06C 162.738 83.06 162.438 83.0933 162.131 83.16C 161.825 83.2267 161.585 83.3067 161.411 83.4L 161.411 91L 158.431 91L 158.431 81.74ZM 170.619 77.2L 173.699 77.2L 173.699 79.5L 170.619 79.5L 170.619 77.2ZM 170.679 81.02L 173.659 81.02L 173.679 91L 170.679 91L 170.679 81.02ZM 180.481 91.4C 179.321 91.4 178.448 91.1267 177.861 90.58C 177.288 90.0333 177.001 89.2467 177.001 88.22L 177.001 83.16L 175.521 83.16L 175.521 80.88L 177.001 80.88L 177.001 78.1L 180.121 78.1L 180.121 80.88L 182.341 80.88L 182.341 83.16L 180.121 83.16L 180.121 87.84C 180.121 88.1867 180.195 88.4467 180.341 88.62C 180.488 88.78 180.735 88.86 181.081 88.86C 181.295 88.86 181.515 88.8267 181.741 88.76C 181.968 88.68 182.168 88.5733 182.341 88.44L 182.341 90.98C 181.835 91.26 181.215 91.4 180.481 91.4ZM 194.663 80.88L 190.683 91.16C 189.71 93.6667 188.417 94.92 186.803 94.92C 186.11 94.92 185.51 94.8 185.003 94.56L 185.003 92.14C 185.403 92.2867 185.797 92.36 186.183 92.36C 186.583 92.36 186.917 92.2467 187.183 92.02C 187.463 91.7933 187.683 91.42 187.843 90.9L 183.783 80.88L 187.183 80.88L 189.323 87.52L 191.463 80.88L 194.663 80.88ZM 211.526 76.72L 211.526 88.36C 211.526 88.9867 211.306 89.52 210.866 89.96C 210.426 90.4 209.846 90.7333 209.126 90.96C 208.406 91.1867 207.639 91.3 206.826 91.3C 205.106 91.3 203.773 90.8933 202.826 90.08C 201.893 89.2667 201.426 87.86 201.426 85.86C 201.426 84.18 201.833 82.88 202.646 81.96C 203.473 81.0267 204.679 80.56 206.266 80.56C 207.213 80.56 207.979 80.7333 208.566 81.08L 208.566 76.72L 211.526 76.72ZM 208.566 83.38C 208.033 83.1 207.513 82.96 207.006 82.96C 206.113 82.96 205.459 83.1867 205.046 83.64C 204.633 84.0933 204.426 84.86 204.426 85.94C 204.426 86.8733 204.619 87.5867 205.006 88.08C 205.393 88.56 206.039 88.8 206.946 88.8C 207.439 88.8 207.833 88.7333 208.126 88.6C 208.419 88.4667 208.566 88.28 208.566 88.04L 208.566 83.38ZM 218.654 80.54C 221.814 80.54 223.374 82.6 223.334 86.72L 216.654 86.72C 216.907 88.12 217.847 88.82 219.474 88.82C 219.967 88.82 220.447 88.7533 220.914 88.62C 221.394 88.4733 221.9 88.2867 222.434 88.06L 222.434 90.62C 221.34 91.0733 220.114 91.3 218.754 91.3C 217.727 91.3 216.827 91.0933 216.054 90.68C 215.28 90.2533 214.68 89.6467 214.254 88.86C 213.827 88.0733 213.614 87.1467 213.614 86.08C 213.614 84.32 214.047 82.96 214.914 82C 215.794 81.0267 217.04 80.54 218.654 80.54ZM 218.534 82.82C 217.467 82.82 216.834 83.4867 216.634 84.82L 220.374 84.82C 220.28 84.1 220.087 83.5867 219.794 83.28C 219.514 82.9733 219.094 82.82 218.534 82.82ZM 230.144 91.26C 229.157 91.26 228.264 91.0667 227.464 90.68C 226.664 90.2933 226.024 89.7133 225.544 88.94C 225.077 88.1533 224.844 87.2 224.844 86.08C 224.844 84.28 225.324 82.92 226.284 82C 227.244 81.0667 228.524 80.6 230.124 80.6C 230.684 80.6 231.251 80.66 231.824 80.78C 232.397 80.8867 232.904 81.04 233.344 81.24L 233.344 83.8C 232.797 83.56 232.311 83.38 231.884 83.26C 231.457 83.1267 231.031 83.06 230.604 83.06C 229.724 83.06 229.037 83.28 228.544 83.72C 228.051 84.1467 227.804 84.82 227.804 85.74C 227.804 86.7667 228.031 87.5267 228.484 88.02C 228.951 88.5133 229.704 88.76 230.744 88.76C 231.531 88.76 232.404 88.4933 233.364 87.96L 233.364 90.5C 232.884 90.7533 232.384 90.94 231.864 91.06C 231.357 91.1933 230.784 91.26 230.144 91.26ZM 235.443 77.2L 238.523 77.2L 238.523 79.5L 235.443 79.5L 235.443 77.2ZM 235.503 81.02L 238.483 81.02L 238.503 91L 235.503 91L 235.503 81.02ZM 250.706 76.72L 250.706 88.36C 250.706 88.9867 250.486 89.52 250.046 89.96C 249.606 90.4 249.026 90.7333 248.306 90.96C 247.586 91.1867 246.819 91.3 246.006 91.3C 244.286 91.3 242.952 90.8933 242.006 90.08C 241.072 89.2667 240.606 87.86 240.606 85.86C 240.606 84.18 241.012 82.88 241.826 81.96C 242.652 81.0267 243.859 80.56 245.446 80.56C 246.392 80.56 247.159 80.7333 247.746 81.08L 247.746 76.72L 250.706 76.72ZM 247.746 83.38C 247.212 83.1 246.692 82.96 246.186 82.96C 245.292 82.96 244.639 83.1867 244.226 83.64C 243.812 84.0933 243.606 84.86 243.606 85.94C 243.606 86.8733 243.799 87.5867 244.186 88.08C 244.572 88.56 245.219 88.8 246.126 88.8C 246.619 88.8 247.012 88.7333 247.306 88.6C 247.599 88.4667 247.746 88.28 247.746 88.04L 247.746 83.38ZM 257.833 80.54C 260.993 80.54 262.553 82.6 262.513 86.72L 255.833 86.72C 256.087 88.12 257.027 88.82 258.653 88.82C 259.147 88.82 259.627 88.7533 260.093 88.62C 260.573 88.4733 261.08 88.2867 261.613 88.06L 261.613 90.62C 260.52 91.0733 259.293 91.3 257.933 91.3C 256.907 91.3 256.007 91.0933 255.233 90.68C 254.46 90.2533 253.86 89.6467 253.433 88.86C 253.007 88.0733 252.793 87.1467 252.793 86.08C 252.793 84.32 253.227 82.96 254.093 82C 254.973 81.0267 256.22 80.54 257.833 80.54ZM 257.713 82.82C 256.647 82.82 256.013 83.4867 255.813 84.82L 259.553 84.82C 259.46 84.1 259.267 83.5867 258.973 83.28C 258.693 82.9733 258.273 82.82 257.713 82.82ZM 100.744 107.16L 99.2641 107.16L 99.2641 104.88L 100.764 104.88L 100.764 104.64C 100.777 103.12 101.124 102.067 101.804 101.48C 102.497 100.88 103.437 100.58 104.624 100.58C 104.837 100.58 105.071 100.6 105.324 100.64C 105.577 100.68 105.784 100.727 105.944 100.78L 105.944 103.4C 105.797 103.253 105.651 103.147 105.504 103.08C 105.357 103 105.171 102.96 104.944 102.96C 104.571 102.96 104.277 103.06 104.064 103.26C 103.851 103.46 103.744 103.8 103.744 104.28L 103.744 104.88L 105.944 104.88L 105.944 107.16L 103.724 107.16L 103.724 115L 100.744 115L 100.744 107.16ZM 112.064 115.3C 110.357 115.3 109.077 114.847 108.224 113.94C 107.37 113.033 106.944 111.687 106.944 109.9C 106.944 108.033 107.364 106.673 108.204 105.82C 109.057 104.967 110.344 104.54 112.064 104.54C 113.784 104.54 115.077 104.98 115.944 105.86C 116.81 106.727 117.244 108.073 117.244 109.9C 117.244 111.66 116.797 113 115.904 113.92C 115.01 114.84 113.73 115.3 112.064 115.3ZM 112.064 112.92C 112.797 112.92 113.35 112.667 113.724 112.16C 114.097 111.64 114.284 110.887 114.284 109.9C 114.284 108.82 114.097 108.053 113.724 107.6C 113.364 107.133 112.81 106.9 112.064 106.9C 111.29 106.9 110.73 107.133 110.384 107.6C 110.05 108.053 109.884 108.82 109.884 109.9C 109.884 110.927 110.057 111.687 110.404 112.18C 110.764 112.673 111.317 112.92 112.064 112.92ZM 119.3 105.94C 119.5 105.767 119.847 105.573 120.34 105.36C 120.847 105.147 121.407 104.967 122.02 104.82C 122.647 104.66 123.247 104.58 123.82 104.58C 124.927 104.58 125.694 104.747 126.12 105.08L 126.12 107.26C 125.587 107.14 124.82 107.08 123.82 107.08C 123.194 107.08 122.68 107.113 122.28 107.18L 122.28 115L 119.3 115L 119.3 105.94ZM 143.443 104.88L 139.463 115.16C 138.489 117.667 137.196 118.92 135.582 118.92C 134.889 118.92 134.289 118.8 133.783 118.56L 133.783 116.14C 134.182 116.287 134.576 116.36 134.962 116.36C 135.362 116.36 135.696 116.247 135.962 116.02C 136.243 115.793 136.463 115.42 136.623 114.9L 132.563 104.88L 135.962 104.88L 138.102 111.52L 140.243 104.88L 143.443 104.88ZM 149.153 115.3C 147.447 115.3 146.167 114.847 145.313 113.94C 144.46 113.033 144.033 111.687 144.033 109.9C 144.033 108.033 144.453 106.673 145.293 105.82C 146.147 104.967 147.433 104.54 149.153 104.54C 150.873 104.54 152.167 104.98 153.033 105.86C 153.9 106.727 154.333 108.073 154.333 109.9C 154.333 111.66 153.887 113 152.993 113.92C 152.1 114.84 150.82 115.3 149.153 115.3ZM 149.153 112.92C 149.887 112.92 150.44 112.667 150.813 112.16C 151.187 111.64 151.373 110.887 151.373 109.9C 151.373 108.82 151.187 108.053 150.813 107.6C 150.453 107.133 149.9 106.9 149.153 106.9C 148.38 106.9 147.82 107.133 147.473 107.6C 147.14 108.053 146.973 108.82 146.973 109.9C 146.973 110.927 147.147 111.687 147.493 112.18C 147.853 112.673 148.407 112.92 149.153 112.92ZM 161.15 115.3C 159.67 115.3 158.504 114.953 157.65 114.26C 156.81 113.567 156.39 112.527 156.39 111.14L 156.39 104.88L 159.37 104.88L 159.37 110.9C 159.37 111.54 159.51 112.02 159.79 112.34C 160.084 112.647 160.544 112.8 161.17 112.8C 161.797 112.8 162.25 112.647 162.53 112.34C 162.824 112.02 162.97 111.54 162.97 110.9L 162.97 104.88L 165.77 104.88L 165.77 111.14C 165.77 112.54 165.364 113.587 164.55 114.28C 163.75 114.96 162.617 115.3 161.15 115.3ZM 168.262 112.18L 171.162 112.18L 171.162 115L 168.262 115L 168.262 112.18Z" transform="translate(192 267)" fill="white"/>
</g>
</g>
</g>
</g>
<defs>
<filter id="filter0_dd" x="32" y="56" width="590.632" height="593.288" filterUnits="userSpaceOnUse" color-interpolation-filters="sRGB">
<feFlood flood-opacity="0" result="BackgroundImageFix"/>
<feColorMatrix in="SourceAlpha" type="matrix" values="0 0 0 0 0 0 0 0 0 0 0 0 0 0 0 0 0 0 255 0"/>
<feOffset dy="8"/>
<feGaussianBlur stdDeviation="7.5"/>
<feColorMatrix type="matrix" values="0 0 0 0 0 0 0 0 0 0 0 0 0 0 0 0 0 0 0.07 0"/>
<feBlend mode="normal" in2="BackgroundImageFix" result="effect1_dropShadow"/>
<feColorMatrix in="SourceAlpha" type="matrix" values="0 0 0 0 0 0 0 0 0 0 0 0 0 0 0 0 0 0 255 0"/>
<feOffset dy="18"/>
<feGaussianBlur stdDeviation="17.5"/>
<feColorMatrix type="matrix" values="0 0 0 0 0.196078 0 0 0 0 0.196078 0 0 0 0 0.364706 0 0 0 0.1 0"/>
<feBlend mode="normal" in2="effect1_dropShadow" result="effect2_dropShadow"/>
<feBlend mode="normal" in="SourceGraphic" in2="effect2_dropShadow" result="shape"/>
</filter>

<mask id="path3_ins" fill="white">
<path d="M 45.4443 4.6779e-08C 33.3924 -0.000546419 21.8338 4.78674 13.3114 13.3087C 4.78895 21.8307 0.00072556 33.3894 4.67106e-08 45.4419C -0.000270535 51.4101 1.17502 57.3199 3.45871 62.8339C 5.74241 68.3479 9.0898 73.358 13.3097 77.5782C 17.5297 81.7983 22.5395 85.1459 28.0532 87.4297C 33.5669 89.7135 39.4764 90.8889 45.4443 90.8886C 51.4122 90.8889 57.3217 89.7135 62.8354 87.4297C 68.3491 85.1459 73.3589 81.7983 77.5789 77.5782C 81.7988 73.358 85.1462 68.3479 87.4299 62.8339C 89.7136 57.32 90.8889 51.4101 90.8886 45.4419C 90.8879 33.3894 86.0997 21.8307 77.5772 13.3087C 69.0548 4.78674 57.4962 -0.000539929 45.4443 4.6779e-08ZM 45.4443 4.69809C 56.2497 4.69814 66.6124 8.99077 74.2529 16.6317C 81.8935 24.2727 86.186 34.636 86.186 45.4419C 86.186 56.2478 81.8935 66.6112 74.2529 74.2521C 66.6124 81.8931 56.2497 86.1857 45.4443 86.1858C 34.639 86.1857 24.2762 81.8931 16.6357 74.2521C 8.99516 66.6112 4.70267 56.2478 4.70262 45.4419C 4.70267 34.636 8.99516 24.2727 16.6357 16.6317C 24.2762 8.99077 34.639 4.69814 45.4443 4.69809Z"/>
</mask>
<mask id="path5_ins" fill="white">
<path d="M 34.7808 69.5653C 53.9897 69.5653 69.5617 53.9926 69.5617 34.7827C 69.5617 15.5727 53.9897 0 34.7808 0C 15.5719 0 0 15.5727 0 34.7827C 0 53.9926 15.5719 69.5653 34.7808 69.5653Z"/>
</mask>

</defs>
</svg>

