<svg width="656" height="665" viewBox="0 0 656 665" version="1.1" xmlns="http://www.w3.org/2000/svg" xmlns:xlink="http://www.w3.org/1999/xlink">
<g data-name="Canvas" fill="none">
<g data-name="bg-investment-cycle">
<g data-name="Group 10">
<g data-name="Ellipse 3">
<ellipse cx="323.542" cy="325.192" rx="323.542" ry="325.192" stroke-width="8" stroke-linecap="round" stroke-linejoin="round" stroke-dasharray="0.1 64" transform="translate(4 10)" stroke="#D8D8D8"/>
</g>
<g data-name="Group">
<g data-name="Ellipse 4" filter="url(#filter0_dd)">
<ellipse cx="260.316" cy="261.644" rx="260.316" ry="261.644" transform="translate(67 73)" fill="#002B49"/>
</g>
</g>
<g data-name="betoken-logo">
<g data-name="layer1">
<g data-name="g4871">
<g data-name="g4887">
<g data-name="g4167">
<g data-name="path4168">
<path fill-rule="evenodd" clip-rule="evenodd" d="M 45.4443 0.5C 33.525 0.49946 22.0936 5.23407 13.6649 13.6623C 5.23626 22.0905 0.500718 33.522 0.5 45.4419C 0.499732 51.3445 1.66209 57.1893 3.92066 62.6426C 6.17923 68.0959 9.48979 73.0509 13.6633 77.2246C 17.8368 81.3984 22.7916 84.7091 28.2446 86.9678C 33.6976 89.2265 39.542 90.3889 45.4443 90.3886C 51.3466 90.3889 57.191 89.2265 62.6441 86.9678C 68.0971 84.7091 73.0518 81.3984 77.2253 77.2246C 81.3988 73.0509 84.7094 68.0959 86.968 62.6426C 89.2265 57.1893 90.3889 51.3445 90.3886 45.4419C 90.3879 33.522 85.6524 22.0905 77.2237 13.6623C 68.795 5.23407 57.3636 0.499466 45.4443 0.5ZM 45.4443 4.19809C 56.3823 4.19814 66.8722 8.54346 74.6065 16.2782C 82.3408 24.0129 86.686 34.5034 86.686 45.4419C 86.686 56.3804 82.3408 66.871 74.6065 74.6057C 66.8722 82.3404 56.3823 86.6857 45.4443 86.6858C 34.5063 86.6857 24.0164 82.3404 16.2821 74.6057C 8.54783 66.871 4.20267 56.3804 4.20262 45.4419C 4.20267 34.5034 8.54783 24.0129 16.2821 16.2782C 24.0164 8.54346 34.5063 4.19814 45.4443 4.19809Z" stroke-miterlimit="8" transform="translate(135 142) scale(4.22495)" stroke="#EEEEEE" stroke-opacity="0.24"/>
</g>
<g data-name="path4186">
<path fill-rule="evenodd" clip-rule="evenodd" d="M 34.7808 69.0653C 53.7136 69.0653 69.0617 53.7165 69.0617 34.7827C 69.0617 15.8489 53.7136 0.5 34.7808 0.5C 15.8481 0.5 0.5 15.8489 0.5 34.7827C 0.5 53.7165 15.8481 69.0653 34.7808 69.0653Z" stroke-miterlimit="8" transform="translate(180.053 187.044) scale(4.22495)" stroke="#EEEEEE" stroke-opacity="0.24"/>
</g>
</g>
</g>
</g>
</g>
</g>
</g>
<g data-name="Group">
<g data-name="Ellipse 3">
<circle cx="10" cy="10" r="10" transform="translate(317 2)" fill="#84E1BE"/>
</g>
<g data-name="Ellipse 3">
<circle cx="5" cy="5" r="5" transform="translate(322 7)" fill="#1CC886"/>
</g>
</g>
<g data-name="Arrow">
<path d="M 25.0607 1.06066C 25.6464 0.474874 25.6464 -0.474874 25.0607 -1.06066L 15.5147 -10.6066C 14.9289 -11.1924 13.9792 -11.1924 13.3934 -10.6066C 12.8076 -10.0208 12.8076 -9.07107 13.3934 -8.48528L 21.8787 0L 13.3934 8.48528C 12.8076 9.07107 12.8076 10.0208 13.3934 10.6066C 13.9792 11.1924 14.9289 11.1924 15.5147 10.6066L 25.0607 1.06066ZM 0 1.5L 24 1.5L 24 -1.5L 0 -1.5L 0 1.5Z" transform="translate(333 12)" fill="#84E1BE"/>
</g>
<g data-name="Title">
<g data-name="Title">
<path d="M 30.3743 8.16L 26.6343 8.16L 26.6343 5.66L 37.4143 5.66L 37.4143 8.16L 33.6143 8.16L 33.6143 19L 30.3743 19L 30.3743 8.16ZM 39.2126 5.2L 42.2926 5.2L 42.2926 7.5L 39.2126 7.5L 39.2126 5.2ZM 39.2726 9.02L 42.2526 9.02L 42.2726 19L 39.2726 19L 39.2726 9.02ZM 44.9352 9.94C 45.1352 9.76667 45.4819 9.57333 45.9752 9.36C 46.4819 9.14667 47.0419 8.96667 47.6552 8.82C 48.2819 8.66 48.8819 8.58 49.4552 8.58C 50.5619 8.58 51.3286 8.74667 51.7552 9.08L 51.7552 11.26C 51.2219 11.14 50.4552 11.08 49.4552 11.08C 48.8286 11.08 48.3152 11.1133 47.9152 11.18L 47.9152 19L 44.9352 19L 44.9352 9.94ZM 57.6184 8.54C 60.7784 8.54 62.3384 10.6 62.2984 14.72L 55.6184 14.72C 55.8717 16.12 56.8117 16.82 58.4384 16.82C 58.9317 16.82 59.4117 16.7533 59.8784 16.62C 60.3584 16.4733 60.865 16.2867 61.3984 16.06L 61.3984 18.62C 60.305 19.0733 59.0784 19.3 57.7184 19.3C 56.6917 19.3 55.7917 19.0933 55.0184 18.68C 54.245 18.2533 53.645 17.6467 53.2184 16.86C 52.7917 16.0733 52.5784 15.1467 52.5784 14.08C 52.5784 12.32 53.0117 10.96 53.8784 10C 54.7584 9.02667 56.005 8.54 57.6184 8.54ZM 57.4984 10.82C 56.4317 10.82 55.7984 11.4867 55.5984 12.82L 59.3384 12.82C 59.245 12.1 59.0517 11.5867 58.7584 11.28C 58.4784 10.9733 58.0584 10.82 57.4984 10.82ZM 73.9088 4.72L 73.9088 16.36C 73.9088 16.9867 73.6888 17.52 73.2488 17.96C 72.8088 18.4 72.2288 18.7333 71.5088 18.96C 70.7888 19.1867 70.0222 19.3 69.2088 19.3C 67.4888 19.3 66.1555 18.8933 65.2088 18.08C 64.2755 17.2667 63.8088 15.86 63.8088 13.86C 63.8088 12.18 64.2155 10.88 65.0288 9.96C 65.8555 9.02667 67.0622 8.56 68.6488 8.56C 69.5955 8.56 70.3622 8.73333 70.9488 9.08L 70.9488 4.72L 73.9088 4.72ZM 70.9488 11.38C 70.4155 11.1 69.8955 10.96 69.3888 10.96C 68.4955 10.96 67.8422 11.1867 67.4288 11.64C 67.0155 12.0933 66.8088 12.86 66.8088 13.94C 66.8088 14.8733 67.0022 15.5867 67.3888 16.08C 67.7755 16.56 68.4222 16.8 69.3288 16.8C 69.8222 16.8 70.2155 16.7333 70.5088 16.6C 70.8022 16.4667 70.9488 16.28 70.9488 16.04L 70.9488 11.38ZM 86.6437 19.3C 84.937 19.3 83.657 18.8467 82.8037 17.94C 81.9503 17.0333 81.5237 15.6867 81.5237 13.9C 81.5237 12.0333 81.9437 10.6733 82.7837 9.82C 83.637 8.96667 84.9237 8.54 86.6437 8.54C 88.3637 8.54 89.657 8.98 90.5237 9.86C 91.3903 10.7267 91.8237 12.0733 91.8237 13.9C 91.8237 15.66 91.377 17 90.4837 17.92C 89.5903 18.84 88.3103 19.3 86.6437 19.3ZM 86.6437 16.92C 87.377 16.92 87.9303 16.6667 88.3037 16.16C 88.677 15.64 88.8637 14.8867 88.8637 13.9C 88.8637 12.82 88.677 12.0533 88.3037 11.6C 87.9437 11.1333 87.3903 10.9 86.6437 10.9C 85.8703 10.9 85.3103 11.1333 84.9637 11.6C 84.6303 12.0533 84.4637 12.82 84.4637 13.9C 84.4637 14.9267 84.637 15.6867 84.9837 16.18C 85.3437 16.6733 85.897 16.92 86.6437 16.92ZM 94.6405 11.16L 93.1605 11.16L 93.1605 8.88L 94.6605 8.88L 94.6605 8.64C 94.6739 7.12 95.0205 6.06667 95.7005 5.48C 96.3939 4.88 97.3339 4.58 98.5205 4.58C 98.7339 4.58 98.9672 4.6 99.2205 4.64C 99.4739 4.68 99.6805 4.72667 99.8405 4.78L 99.8405 7.4C 99.6939 7.25333 99.5472 7.14667 99.4005 7.08C 99.2539 7 99.0672 6.96 98.8405 6.96C 98.4672 6.96 98.1739 7.06 97.9605 7.26C 97.7472 7.46 97.6405 7.8 97.6405 8.28L 97.6405 8.88L 99.8405 8.88L 99.8405 11.16L 97.6205 11.16L 97.6205 19L 94.6405 19L 94.6405 11.16ZM 107.279 19L 107.279 5.06L 110.239 5.06L 110.239 19L 107.279 19ZM 117.444 19.3C 115.738 19.3 114.458 18.8467 113.604 17.94C 112.751 17.0333 112.324 15.6867 112.324 13.9C 112.324 12.0333 112.744 10.6733 113.584 9.82C 114.438 8.96667 115.724 8.54 117.444 8.54C 119.164 8.54 120.458 8.98 121.324 9.86C 122.191 10.7267 122.624 12.0733 122.624 13.9C 122.624 15.66 122.178 17 121.284 17.92C 120.391 18.84 119.111 19.3 117.444 19.3ZM 117.444 16.92C 118.178 16.92 118.731 16.6667 119.104 16.16C 119.478 15.64 119.664 14.8867 119.664 13.9C 119.664 12.82 119.478 12.0533 119.104 11.6C 118.744 11.1333 118.191 10.9 117.444 10.9C 116.671 10.9 116.111 11.1333 115.764 11.6C 115.431 12.0533 115.264 12.82 115.264 13.9C 115.264 14.9267 115.438 15.6867 115.784 16.18C 116.144 16.6733 116.698 16.92 117.444 16.92ZM 129.241 19.3C 127.535 19.3 126.255 18.8467 125.401 17.94C 124.548 17.0333 124.121 15.6867 124.121 13.9C 124.121 12.0333 124.541 10.6733 125.381 9.82C 126.235 8.96667 127.521 8.54 129.241 8.54C 130.961 8.54 132.255 8.98 133.121 9.86C 133.988 10.7267 134.421 12.0733 134.421 13.9C 134.421 15.66 133.975 17 133.081 17.92C 132.188 18.84 130.908 19.3 129.241 19.3ZM 129.241 16.92C 129.975 16.92 130.528 16.6667 130.901 16.16C 131.275 15.64 131.461 14.8867 131.461 13.9C 131.461 12.82 131.275 12.0533 130.901 11.6C 130.541 11.1333 129.988 10.9 129.241 10.9C 128.468 10.9 127.908 11.1333 127.561 11.6C 127.228 12.0533 127.061 12.82 127.061 13.9C 127.061 14.9267 127.235 15.6867 127.581 16.18C 127.941 16.6733 128.495 16.92 129.241 16.92ZM 139.478 19.3C 138.838 19.3 138.278 19.2333 137.798 19.1C 137.318 18.98 136.785 18.8 136.198 18.56L 136.198 15.94C 137.278 16.7533 138.412 17.16 139.598 17.16C 140.052 17.16 140.378 17.0867 140.578 16.94C 140.792 16.78 140.898 16.5667 140.898 16.3C 140.898 15.9933 140.732 15.7667 140.398 15.62C 140.065 15.4733 139.532 15.3133 138.798 15.14C 138.025 14.98 137.385 14.66 136.878 14.18C 136.385 13.7 136.138 13 136.138 12.08C 136.138 11.2933 136.338 10.6467 136.738 10.14C 137.138 9.63333 137.638 9.26667 138.238 9.04C 138.852 8.8 139.485 8.68 140.138 8.68C 140.938 8.68 141.585 8.75333 142.078 8.9C 142.585 9.03333 143.078 9.24667 143.558 9.54L 143.558 11.88C 142.878 11.5067 142.352 11.24 141.978 11.08C 141.605 10.92 141.172 10.84 140.678 10.84C 140.185 10.84 139.818 10.92 139.578 11.08C 139.338 11.2267 139.218 11.44 139.218 11.72C 139.218 12.0533 139.352 12.3 139.618 12.46C 139.885 12.6067 140.312 12.76 140.898 12.92C 141.565 13.0933 142.092 13.2667 142.478 13.44C 142.865 13.6 143.212 13.8867 143.518 14.3C 143.825 14.7 143.978 15.2667 143.978 16C 143.952 17.1467 143.518 17.9867 142.678 18.52C 141.838 19.04 140.772 19.3 139.478 19.3ZM 146.127 5.2L 149.207 5.2L 149.207 7.5L 146.127 7.5L 146.127 5.2ZM 146.187 9.02L 149.167 9.02L 149.187 19L 146.187 19L 146.187 9.02ZM 151.849 9.74C 152.369 9.46 153.163 9.2 154.229 8.96C 155.296 8.72 156.249 8.6 157.089 8.6C 158.516 8.6 159.589 8.88 160.309 9.44C 161.029 10 161.389 10.92 161.389 12.2L 161.389 19L 158.409 19L 158.409 12.8C 158.409 11.64 157.756 11.06 156.449 11.06C 156.156 11.06 155.856 11.0933 155.549 11.16C 155.243 11.2267 155.003 11.3067 154.829 11.4L 154.829 19L 151.849 19L 151.849 9.74ZM 169.137 8.6C 170.443 8.6 171.477 8.84 172.237 9.32C 173.01 9.78667 173.397 10.4533 173.397 11.32L 173.397 19.12C 173.397 20.52 172.95 21.5933 172.057 22.34C 171.163 23.0867 169.89 23.46 168.237 23.46C 167.383 23.46 166.637 23.4 165.997 23.28C 165.357 23.16 164.857 23 164.497 22.8L 164.497 20.18C 164.883 20.3667 165.423 20.5467 166.117 20.72C 166.81 20.8933 167.477 20.98 168.117 20.98C 168.983 20.98 169.59 20.8067 169.937 20.46C 170.297 20.1133 170.477 19.6267 170.477 19L 170.477 18.42C 169.797 19.0067 168.943 19.3 167.917 19.3C 166.503 19.2333 165.41 18.7867 164.637 17.96C 163.863 17.12 163.477 15.8867 163.477 14.26C 163.477 12.1533 163.957 10.6867 164.917 9.86C 165.89 9.02 167.297 8.6 169.137 8.6ZM 166.437 14.08C 166.437 15 166.637 15.7333 167.037 16.28C 167.45 16.8133 167.997 17.08 168.677 17.08C 169.343 17.08 169.943 16.9267 170.477 16.62L 170.477 11.98C 170.477 11.3 169.943 10.96 168.877 10.96C 167.25 10.96 166.437 12 166.437 14.08ZM 192.94 8.6C 194.353 8.6 195.4 8.88 196.08 9.44C 196.76 9.98667 197.1 10.9067 197.1 12.2L 197.1 19L 194.12 19L 194.12 12.8C 194.12 11.64 193.466 11.06 192.16 11.06C 191.613 11.06 191.153 11.1867 190.78 11.44C 190.806 11.76 190.82 12.0133 190.82 12.2L 190.82 19L 187.84 19L 187.84 12.8C 187.84 11.64 187.186 11.06 185.88 11.06C 185.346 11.06 184.853 11.1733 184.4 11.4L 184.4 19L 181.42 19L 181.42 9.74C 181.94 9.46 182.733 9.2 183.8 8.96C 184.866 8.72 185.82 8.6 186.66 8.6C 188.006 8.6 189 8.84 189.64 9.32C 190.16 9.09333 190.706 8.92 191.28 8.8C 191.866 8.66667 192.42 8.6 192.94 8.6ZM 204.3 19.3C 202.593 19.3 201.313 18.8467 200.46 17.94C 199.607 17.0333 199.18 15.6867 199.18 13.9C 199.18 12.0333 199.6 10.6733 200.44 9.82C 201.293 8.96667 202.58 8.54 204.3 8.54C 206.02 8.54 207.313 8.98 208.18 9.86C 209.047 10.7267 209.48 12.0733 209.48 13.9C 209.48 15.66 209.033 17 208.14 17.92C 207.247 18.84 205.967 19.3 204.3 19.3ZM 204.3 16.92C 205.033 16.92 205.587 16.6667 205.96 16.16C 206.333 15.64 206.52 14.8867 206.52 13.9C 206.52 12.82 206.333 12.0533 205.96 11.6C 205.6 11.1333 205.047 10.9 204.3 10.9C 203.527 10.9 202.967 11.1333 202.62 11.6C 202.287 12.0533 202.12 12.82 202.12 13.9C 202.12 14.9267 202.293 15.6867 202.64 16.18C 203 16.6733 203.553 16.92 204.3 16.92ZM 211.537 9.74C 212.057 9.46 212.85 9.2 213.917 8.96C 214.983 8.72 215.937 8.6 216.777 8.6C 218.203 8.6 219.277 8.88 219.997 9.44C 220.717 10 221.077 10.92 221.077 12.2L 221.077 19L 218.097 19L 218.097 12.8C 218.097 11.64 217.443 11.06 216.137 11.06C 215.843 11.06 215.543 11.0933 215.237 11.16C 214.93 11.2267 214.69 11.3067 214.517 11.4L 214.517 19L 211.537 19L 211.537 9.74ZM 228.204 8.54C 231.364 8.54 232.924 10.6 232.884 14.72L 226.204 14.72C 226.458 16.12 227.398 16.82 229.024 16.82C 229.518 16.82 229.998 16.7533 230.464 16.62C 230.944 16.4733 231.451 16.2867 231.984 16.06L 231.984 18.62C 230.891 19.0733 229.664 19.3 228.304 19.3C 227.278 19.3 226.378 19.0933 225.604 18.68C 224.831 18.2533 224.231 17.6467 223.804 16.86C 223.378 16.0733 223.164 15.1467 223.164 14.08C 223.164 12.32 223.598 10.96 224.464 10C 225.344 9.02667 226.591 8.54 228.204 8.54ZM 228.084 10.82C 227.018 10.82 226.384 11.4867 226.184 12.82L 229.924 12.82C 229.831 12.1 229.638 11.5867 229.344 11.28C 229.064 10.9733 228.644 10.82 228.084 10.82ZM 244.37 8.88L 240.39 19.16C 239.417 21.6667 238.124 22.92 236.51 22.92C 235.817 22.92 235.217 22.8 234.71 22.56L 234.71 20.14C 235.11 20.2867 235.504 20.36 235.89 20.36C 236.29 20.36 236.624 20.2467 236.89 20.02C 237.17 19.7933 237.39 19.42 237.55 18.9L 233.49 8.88L 236.89 8.88L 239.03 15.52L 241.17 8.88L 244.37 8.88ZM 14.2117 32.6C 15.6917 32.6 16.8251 33.0533 17.6117 33.96C 18.3984 34.8667 18.7917 36.18 18.7917 37.9C 18.7784 41.5 17.0051 43.3 13.4717 43.3C 10.3784 43.3 8.83172 42.42 8.83172 40.66L 8.83172 29.14L 11.7517 29.14L 11.7517 33.24C 12.1117 33.0267 12.5184 32.8667 12.9717 32.76C 13.4384 32.6533 13.8517 32.6 14.2117 32.6ZM 13.4317 40.82C 15.0184 40.82 15.8117 39.9067 15.8117 38.08C 15.8117 36.0133 15.0384 34.98 13.4917 34.98C 13.2117 34.98 12.9117 35.02 12.5917 35.1C 12.2717 35.1667 11.9917 35.2667 11.7517 35.4L 11.7517 39.88C 11.7517 40.5067 12.3117 40.82 13.4317 40.82ZM 25.3234 32.54C 28.4834 32.54 30.0434 34.6 30.0034 38.72L 23.3234 38.72C 23.5768 40.12 24.5168 40.82 26.1434 40.82C 26.6368 40.82 27.1168 40.7533 27.5834 40.62C 28.0634 40.4733 28.5701 40.2867 29.1034 40.06L 29.1034 42.62C 28.0101 43.0733 26.7834 43.3 25.4234 43.3C 24.3968 43.3 23.4968 43.0933 22.7234 42.68C 21.9501 42.2533 21.3501 41.6467 20.9234 40.86C 20.4968 40.0733 20.2834 39.1467 20.2834 38.08C 20.2834 36.32 20.7168 34.96 21.5834 34C 22.4634 33.0267 23.7101 32.54 25.3234 32.54ZM 25.2034 34.82C 24.1368 34.82 23.5034 35.4867 23.3034 36.82L 27.0434 36.82C 26.9501 36.1 26.7568 35.5867 26.4634 35.28C 26.1834 34.9733 25.7634 34.82 25.2034 34.82ZM 36.8139 43.26C 35.8272 43.26 34.9339 43.0667 34.1339 42.68C 33.3339 42.2933 32.6939 41.7133 32.2139 40.94C 31.7472 40.1533 31.5139 39.2 31.5139 38.08C 31.5139 36.28 31.9939 34.92 32.9539 34C 33.9139 33.0667 35.1939 32.6 36.7939 32.6C 37.3539 32.6 37.9206 32.66 38.4939 32.78C 39.0672 32.8867 39.5739 33.04 40.0139 33.24L 40.0139 35.8C 39.4672 35.56 38.9806 35.38 38.5539 35.26C 38.1272 35.1267 37.7006 35.06 37.2739 35.06C 36.3939 35.06 35.7072 35.28 35.2139 35.72C 34.7206 36.1467 34.4739 36.82 34.4739 37.74C 34.4739 38.7667 34.7006 39.5267 35.1539 40.02C 35.6206 40.5133 36.3739 40.76 37.4139 40.76C 38.2006 40.76 39.0739 40.4933 40.0339 39.96L 40.0339 42.5C 39.5539 42.7533 39.0539 42.94 38.5339 43.06C 38.0272 43.1933 37.4539 43.26 36.8139 43.26ZM 46.533 32.58C 47.6396 32.58 48.6463 32.84 49.553 33.36C 50.4596 33.8667 50.913 34.7867 50.913 36.12L 50.893 40.9C 50.8796 41.74 50.4596 42.3533 49.633 42.74C 48.8063 43.1133 47.5996 43.3 46.013 43.3C 43.053 43.3 41.573 42.1467 41.573 39.84C 41.573 38.8667 41.873 38.1067 42.473 37.56C 43.0863 37.0133 43.993 36.74 45.193 36.74C 45.6863 36.74 46.1796 36.8067 46.673 36.94C 47.1663 37.06 47.593 37.22 47.953 37.42L 47.953 36.78C 47.953 35.62 47.2063 35.04 45.713 35.04C 45.1396 35.04 44.5463 35.1467 43.933 35.36C 43.333 35.56 42.853 35.8067 42.493 36.1L 42.493 33.46C 42.853 33.22 43.3996 33.0133 44.133 32.84C 44.8796 32.6667 45.6796 32.58 46.533 32.58ZM 46.113 41.2C 46.8063 41.2 47.2863 41.1533 47.553 41.06C 47.8196 40.9667 47.953 40.78 47.953 40.5L 47.953 38.94C 47.4863 38.78 46.973 38.7 46.413 38.7C 45.7596 38.7 45.2796 38.8 44.973 39C 44.6796 39.1867 44.533 39.4867 44.533 39.9C 44.533 40.2867 44.6863 40.6 44.993 40.84C 45.313 41.08 45.6863 41.2 46.113 41.2ZM 58.3183 43.3C 56.8383 43.3 55.6716 42.9533 54.8183 42.26C 53.9783 41.5667 53.5583 40.5267 53.5583 39.14L 53.5583 32.88L 56.5383 32.88L 56.5383 38.9C 56.5383 39.54 56.6783 40.02 56.9583 40.34C 57.2516 40.6467 57.7116 40.8 58.3383 40.8C 58.9649 40.8 59.4183 40.6467 59.6983 40.34C 59.9916 40.02 60.1383 39.54 60.1383 38.9L 60.1383 32.88L 62.9383 32.88L 62.9383 39.14C 62.9383 40.54 62.5316 41.5867 61.7183 42.28C 60.9183 42.96 59.7849 43.3 58.3183 43.3ZM 68.57 43.3C 67.93 43.3 67.37 43.2333 66.89 43.1C 66.41 42.98 65.8767 42.8 65.29 42.56L 65.29 39.94C 66.37 40.7533 67.5033 41.16 68.69 41.16C 69.1433 41.16 69.47 41.0867 69.67 40.94C 69.8833 40.78 69.99 40.5667 69.99 40.3C 69.99 39.9933 69.8233 39.7667 69.49 39.62C 69.1567 39.4733 68.6233 39.3133 67.89 39.14C 67.1167 38.98 66.4767 38.66 65.97 38.18C 65.4767 37.7 65.23 37 65.23 36.08C 65.23 35.2933 65.43 34.6467 65.83 34.14C 66.23 33.6333 66.73 33.2667 67.33 33.04C 67.9433 32.8 68.5767 32.68 69.23 32.68C 70.03 32.68 70.6767 32.7533 71.17 32.9C 71.6767 33.0333 72.17 33.2467 72.65 33.54L 72.65 35.88C 71.97 35.5067 71.4433 35.24 71.07 35.08C 70.6967 34.92 70.2633 34.84 69.77 34.84C 69.2767 34.84 68.91 34.92 68.67 35.08C 68.43 35.2267 68.31 35.44 68.31 35.72C 68.31 36.0533 68.4433 36.3 68.71 36.46C 68.9767 36.6067 69.4033 36.76 69.99 36.92C 70.6567 37.0933 71.1833 37.2667 71.57 37.44C 71.9567 37.6 72.3033 37.8867 72.61 38.3C 72.9167 38.7 73.07 39.2667 73.07 40C 73.0433 41.1467 72.61 41.9867 71.77 42.52C 70.93 43.04 69.8633 43.3 68.57 43.3ZM 79.6984 32.54C 82.8584 32.54 84.4184 34.6 84.3784 38.72L 77.6984 38.72C 77.9518 40.12 78.8918 40.82 80.5184 40.82C 81.0118 40.82 81.4918 40.7533 81.9584 40.62C 82.4384 40.4733 82.9451 40.2867 83.4784 40.06L 83.4784 42.62C 82.3851 43.0733 81.1584 43.3 79.7984 43.3C 78.7718 43.3 77.8718 43.0933 77.0984 42.68C 76.3251 42.2533 75.7251 41.6467 75.2984 40.86C 74.8718 40.0733 74.6584 39.1467 74.6584 38.08C 74.6584 36.32 75.0918 34.96 75.9584 34C 76.8384 33.0267 78.0851 32.54 79.6984 32.54ZM 79.5784 34.82C 78.5118 34.82 77.8784 35.4867 77.6784 36.82L 81.4184 36.82C 81.3251 36.1 81.1318 35.5867 80.8384 35.28C 80.5584 34.9733 80.1384 34.82 79.5784 34.82ZM 102.036 32.88L 98.0563 43.16C 97.0829 45.6667 95.7896 46.92 94.1762 46.92C 93.4829 46.92 92.8829 46.8 92.3763 46.56L 92.3763 44.14C 92.7762 44.2867 93.1696 44.36 93.5562 44.36C 93.9562 44.36 94.2896 44.2467 94.5562 44.02C 94.8363 43.7933 95.0563 43.42 95.2163 42.9L 91.1563 32.88L 94.5562 32.88L 96.6962 39.52L 98.8363 32.88L 102.036 32.88ZM 107.747 43.3C 106.041 43.3 104.761 42.8467 103.907 41.94C 103.054 41.0333 102.627 39.6867 102.627 37.9C 102.627 36.0333 103.047 34.6733 103.887 33.82C 104.741 32.9667 106.027 32.54 107.747 32.54C 109.467 32.54 110.761 32.98 111.627 33.86C 112.494 34.7267 112.927 36.0733 112.927 37.9C 112.927 39.66 112.481 41 111.587 41.92C 110.694 42.84 109.414 43.3 107.747 43.3ZM 107.747 40.92C 108.481 40.92 109.034 40.6667 109.407 40.16C 109.781 39.64 109.967 38.8867 109.967 37.9C 109.967 36.82 109.781 36.0533 109.407 35.6C 109.047 35.1333 108.494 34.9 107.747 34.9C 106.974 34.9 106.414 35.1333 106.067 35.6C 105.734 36.0533 105.567 36.82 105.567 37.9C 105.567 38.9267 105.741 39.6867 106.087 40.18C 106.447 40.6733 107.001 40.92 107.747 40.92ZM 119.744 43.3C 118.264 43.3 117.097 42.9533 116.244 42.26C 115.404 41.5667 114.984 40.5267 114.984 39.14L 114.984 32.88L 117.964 32.88L 117.964 38.9C 117.964 39.54 118.104 40.02 118.384 40.34C 118.677 40.6467 119.137 40.8 119.764 40.8C 120.391 40.8 120.844 40.6467 121.124 40.34C 121.417 40.02 121.564 39.54 121.564 38.9L 121.564 32.88L 124.364 32.88L 124.364 39.14C 124.364 40.54 123.957 41.5867 123.144 42.28C 122.344 42.96 121.211 43.3 119.744 43.3ZM 142.063 28.72L 142.063 40.36C 142.063 40.9867 141.843 41.52 141.403 41.96C 140.963 42.4 140.383 42.7333 139.663 42.96C 138.943 43.1867 138.176 43.3 137.363 43.3C 135.643 43.3 134.31 42.8933 133.363 42.08C 132.43 41.2667 131.963 39.86 131.963 37.86C 131.963 36.18 132.37 34.88 133.183 33.96C 134.01 33.0267 135.216 32.56 136.803 32.56C 137.75 32.56 138.516 32.7333 139.103 33.08L 139.103 28.72L 142.063 28.72ZM 139.103 35.38C 138.57 35.1 138.05 34.96 137.543 34.96C 136.65 34.96 135.996 35.1867 135.583 35.64C 135.17 36.0933 134.963 36.86 134.963 37.94C 134.963 38.8733 135.156 39.5867 135.543 40.08C 135.93 40.56 136.576 40.8 137.483 40.8C 137.976 40.8 138.37 40.7333 138.663 40.6C 138.956 40.4667 139.103 40.28 139.103 40.04L 139.103 35.38ZM 149.271 43.3C 147.564 43.3 146.284 42.8467 145.431 41.94C 144.577 41.0333 144.151 39.6867 144.151 37.9C 144.151 36.0333 144.571 34.6733 145.411 33.82C 146.264 32.9667 147.551 32.54 149.271 32.54C 150.991 32.54 152.284 32.98 153.151 33.86C 154.017 34.7267 154.451 36.0733 154.451 37.9C 154.451 39.66 154.004 41 153.111 41.92C 152.217 42.84 150.937 43.3 149.271 43.3ZM 149.271 40.92C 150.004 40.92 150.557 40.6667 150.931 40.16C 151.304 39.64 151.491 38.8867 151.491 37.9C 151.491 36.82 151.304 36.0533 150.931 35.6C 150.571 35.1333 150.017 34.9 149.271 34.9C 148.497 34.9 147.937 35.1333 147.591 35.6C 147.257 36.0533 147.091 36.82 147.091 37.9C 147.091 38.9267 147.264 39.6867 147.611 40.18C 147.971 40.6733 148.524 40.92 149.271 40.92ZM 156.507 33.74C 157.027 33.46 157.821 33.2 158.888 32.96C 159.954 32.72 160.907 32.6 161.748 32.6C 163.174 32.6 164.247 32.88 164.967 33.44C 165.687 34 166.047 34.92 166.047 36.2L 166.047 43L 163.067 43L 163.067 36.8C 163.067 35.64 162.414 35.06 161.108 35.06C 160.814 35.06 160.514 35.0933 160.207 35.16C 159.901 35.2267 159.661 35.3067 159.488 35.4L 159.488 43L 156.507 43L 156.507 33.74ZM 168.995 29.48L 171.235 29.48L 170.895 33.5L 169.355 33.5L 168.995 29.48ZM 178.323 43.4C 177.163 43.4 176.29 43.1267 175.703 42.58C 175.13 42.0333 174.843 41.2467 174.843 40.22L 174.843 35.16L 173.363 35.16L 173.363 32.88L 174.843 32.88L 174.843 30.1L 177.963 30.1L 177.963 32.88L 180.183 32.88L 180.183 35.16L 177.963 35.16L 177.963 39.84C 177.963 40.1867 178.037 40.4467 178.183 40.62C 178.33 40.78 178.577 40.86 178.923 40.86C 179.137 40.86 179.357 40.8267 179.583 40.76C 179.81 40.68 180.01 40.5733 180.183 40.44L 180.183 42.98C 179.677 43.26 179.057 43.4 178.323 43.4ZM 194.112 43L 190.952 38.82L 190.932 43L 187.972 43L 187.972 29.06L 190.972 29.06L 190.952 36.62L 194.012 32.88L 197.632 32.88L 193.452 37.28L 197.892 43L 194.112 43ZM 199.73 33.74C 200.25 33.46 201.043 33.2 202.11 32.96C 203.177 32.72 204.13 32.6 204.97 32.6C 206.397 32.6 207.47 32.88 208.19 33.44C 208.91 34 209.27 34.92 209.27 36.2L 209.27 43L 206.29 43L 206.29 36.8C 206.29 35.64 205.637 35.06 204.33 35.06C 204.037 35.06 203.737 35.0933 203.43 35.16C 203.123 35.2267 202.883 35.3067 202.71 35.4L 202.71 43L 199.73 43L 199.73 33.74ZM 216.478 43.3C 214.771 43.3 213.491 42.8467 212.638 41.94C 211.784 41.0333 211.358 39.6867 211.358 37.9C 211.358 36.0333 211.778 34.6733 212.618 33.82C 213.471 32.9667 214.758 32.54 216.478 32.54C 218.198 32.54 219.491 32.98 220.358 33.86C 221.224 34.7267 221.658 36.0733 221.658 37.9C 221.658 39.66 221.211 41 220.318 41.92C 219.424 42.84 218.144 43.3 216.478 43.3ZM 216.478 40.92C 217.211 40.92 217.764 40.6667 218.138 40.16C 218.511 39.64 218.698 38.8867 218.698 37.9C 218.698 36.82 218.511 36.0533 218.138 35.6C 217.778 35.1333 217.224 34.9 216.478 34.9C 215.704 34.9 215.144 35.1333 214.798 35.6C 214.464 36.0533 214.298 36.82 214.298 37.9C 214.298 38.9267 214.471 39.6867 214.818 40.18C 215.178 40.6733 215.731 40.92 216.478 40.92ZM 237.79 32.88L 234.43 43L 231.73 43L 229.99 37.32L 228.33 43L 225.63 43L 222.25 32.88L 225.45 32.88L 227.23 39.32L 228.91 32.88L 231.11 32.88L 232.85 39.48L 234.65 32.88L 237.79 32.88ZM 249.7 43.3C 247.994 43.3 246.714 42.8467 245.86 41.94C 245.007 41.0333 244.58 39.6867 244.58 37.9C 244.58 36.0333 245 34.6733 245.84 33.82C 246.694 32.9667 247.98 32.54 249.7 32.54C 251.42 32.54 252.714 32.98 253.58 33.86C 254.447 34.7267 254.88 36.0733 254.88 37.9C 254.88 39.66 254.434 41 253.54 41.92C 252.647 42.84 251.367 43.3 249.7 43.3ZM 249.7 40.92C 250.434 40.92 250.987 40.6667 251.36 40.16C 251.734 39.64 251.92 38.8867 251.92 37.9C 251.92 36.82 251.734 36.0533 251.36 35.6C 251 35.1333 250.447 34.9 249.7 34.9C 248.927 34.9 248.367 35.1333 248.02 35.6C 247.687 36.0533 247.52 36.82 247.52 37.9C 247.52 38.9267 247.694 39.6867 248.04 40.18C 248.4 40.6733 248.954 40.92 249.7 40.92ZM 257.697 35.16L 256.217 35.16L 256.217 32.88L 257.717 32.88L 257.717 32.64C 257.731 31.12 258.077 30.0667 258.757 29.48C 259.451 28.88 260.391 28.58 261.577 28.58C 261.791 28.58 262.024 28.6 262.277 28.64C 262.531 28.68 262.737 28.7267 262.897 28.78L 262.897 31.4C 262.751 31.2533 262.604 31.1467 262.457 31.08C 262.311 31 262.124 30.96 261.897 30.96C 261.524 30.96 261.231 31.06 261.017 31.26C 260.804 31.46 260.697 31.8 260.697 32.28L 260.697 32.88L 262.897 32.88L 262.897 35.16L 260.677 35.16L 260.677 43L 257.697 43L 257.697 35.16ZM 45.335 67.4C 44.175 67.4 43.3017 67.1267 42.715 66.58C 42.1417 66.0333 41.855 65.2467 41.855 64.22L 41.855 59.16L 40.375 59.16L 40.375 56.88L 41.855 56.88L 41.855 54.1L 44.975 54.1L 44.975 56.88L 47.195 56.88L 47.195 59.16L 44.975 59.16L 44.975 63.84C 44.975 64.1867 45.0483 64.4467 45.195 64.62C 45.3417 64.78 45.5883 64.86 45.935 64.86C 46.1483 64.86 46.3683 64.8267 46.595 64.76C 46.8217 64.68 47.0217 64.5733 47.195 64.44L 47.195 66.98C 46.6883 67.26 46.0683 67.4 45.335 67.4ZM 54.0167 67.3C 52.3101 67.3 51.0301 66.8467 50.1767 65.94C 49.3234 65.0333 48.8967 63.6867 48.8967 61.9C 48.8967 60.0333 49.3167 58.6733 50.1567 57.82C 51.0101 56.9667 52.2967 56.54 54.0167 56.54C 55.7367 56.54 57.0301 56.98 57.8967 57.86C 58.7634 58.7267 59.1967 60.0733 59.1967 61.9C 59.1967 63.66 58.7501 65 57.8567 65.92C 56.9634 66.84 55.6834 67.3 54.0167 67.3ZM 54.0167 64.92C 54.7501 64.92 55.3034 64.6667 55.6767 64.16C 56.0501 63.64 56.2367 62.8867 56.2367 61.9C 56.2367 60.82 56.0501 60.0533 55.6767 59.6C 55.3167 59.1333 54.7634 58.9 54.0167 58.9C 53.2434 58.9 52.6834 59.1333 52.3367 59.6C 52.0034 60.0533 51.8367 60.82 51.8367 61.9C 51.8367 62.9267 52.0101 63.6867 52.3567 64.18C 52.7167 64.6733 53.2701 64.92 54.0167 64.92ZM 66.7809 53.2L 69.8609 53.2L 69.8609 55.5L 66.7809 55.5L 66.7809 53.2ZM 66.8409 57.02L 69.8209 57.02L 69.8409 67L 66.8409 67L 66.8409 57.02ZM 72.5036 57.74C 73.0236 57.46 73.8169 57.2 74.8836 56.96C 75.9503 56.72 76.9036 56.6 77.7436 56.6C 79.1703 56.6 80.2436 56.88 80.9636 57.44C 81.6836 58 82.0436 58.92 82.0436 60.2L 82.0436 67L 79.0636 67L 79.0636 60.8C 79.0636 59.64 78.4103 59.06 77.1036 59.06C 76.8103 59.06 76.5103 59.0933 76.2036 59.16C 75.8969 59.2267 75.6569 59.3067 75.4836 59.4L 75.4836 67L 72.5036 67L 72.5036 57.74ZM 94.8614 56.88L 90.6414 67L 87.6614 67L 83.4414 56.88L 86.6614 56.88L 89.3414 63.72L 91.7214 56.88L 94.8614 56.88ZM 100.519 56.54C 103.679 56.54 105.239 58.6 105.199 62.72L 98.5187 62.72C 98.7721 64.12 99.7121 64.82 101.339 64.82C 101.832 64.82 102.312 64.7533 102.779 64.62C 103.259 64.4733 103.765 64.2867 104.299 64.06L 104.299 66.62C 103.205 67.0733 101.979 67.3 100.619 67.3C 99.5921 67.3 98.6921 67.0933 97.9187 66.68C 97.1454 66.2533 96.5454 65.6467 96.1188 64.86C 95.6921 64.0733 95.4787 63.1467 95.4787 62.08C 95.4787 60.32 95.9121 58.96 96.7788 58C 97.6587 57.0267 98.9054 56.54 100.519 56.54ZM 100.399 58.82C 99.3321 58.82 98.6987 59.4867 98.4987 60.82L 102.239 60.82C 102.145 60.1 101.952 59.5867 101.659 59.28C 101.379 58.9733 100.959 58.82 100.399 58.82ZM 110.269 67.3C 109.629 67.3 109.069 67.2333 108.589 67.1C 108.109 66.98 107.576 66.8 106.989 66.56L 106.989 63.94C 108.069 64.7533 109.203 65.16 110.389 65.16C 110.843 65.16 111.169 65.0867 111.369 64.94C 111.583 64.78 111.689 64.5667 111.689 64.3C 111.689 63.9933 111.523 63.7667 111.189 63.62C 110.856 63.4733 110.323 63.3133 109.589 63.14C 108.816 62.98 108.176 62.66 107.669 62.18C 107.176 61.7 106.929 61 106.929 60.08C 106.929 59.2933 107.129 58.6467 107.529 58.14C 107.929 57.6333 108.429 57.2667 109.029 57.04C 109.643 56.8 110.276 56.68 110.929 56.68C 111.729 56.68 112.376 56.7533 112.869 56.9C 113.376 57.0333 113.869 57.2467 114.349 57.54L 114.349 59.88C 113.669 59.5067 113.143 59.24 112.769 59.08C 112.396 58.92 111.963 58.84 111.469 58.84C 110.976 58.84 110.609 58.92 110.369 59.08C 110.129 59.2267 110.009 59.44 110.009 59.72C 110.009 60.0533 110.143 60.3 110.409 60.46C 110.676 60.6067 111.103 60.76 111.689 60.92C 112.356 61.0933 112.883 61.2667 113.269 61.44C 113.656 61.6 114.003 61.8867 114.309 62.3C 114.616 62.7 114.769 63.2667 114.769 64C 114.743 65.1467 114.309 65.9867 113.469 66.52C 112.629 67.04 111.563 67.3 110.269 67.3ZM 121.058 67.4C 119.898 67.4 119.024 67.1267 118.438 66.58C 117.864 66.0333 117.578 65.2467 117.578 64.22L 117.578 59.16L 116.098 59.16L 116.098 56.88L 117.578 56.88L 117.578 54.1L 120.698 54.1L 120.698 56.88L 122.918 56.88L 122.918 59.16L 120.698 59.16L 120.698 63.84C 120.698 64.1867 120.771 64.4467 120.918 64.62C 121.064 64.78 121.311 64.86 121.658 64.86C 121.871 64.86 122.091 64.8267 122.318 64.76C 122.544 64.68 122.744 64.5733 122.918 64.44L 122.918 66.98C 122.411 67.26 121.791 67.4 121.058 67.4ZM 130.707 53.2L 133.787 53.2L 133.787 55.5L 130.707 55.5L 130.707 53.2ZM 130.767 57.02L 133.747 57.02L 133.767 67L 130.767 67L 130.767 57.02ZM 136.429 57.74C 136.949 57.46 137.743 57.2 138.809 56.96C 139.876 56.72 140.829 56.6 141.669 56.6C 143.096 56.6 144.169 56.88 144.889 57.44C 145.609 58 145.969 58.92 145.969 60.2L 145.969 67L 142.989 67L 142.989 60.8C 142.989 59.64 142.336 59.06 141.029 59.06C 140.736 59.06 140.436 59.0933 140.129 59.16C 139.823 59.2267 139.583 59.3067 139.409 59.4L 139.409 67L 136.429 67L 136.429 57.74ZM 158.884 67.26C 157.898 67.26 157.004 67.0667 156.204 66.68C 155.404 66.2933 154.764 65.7133 154.284 64.94C 153.818 64.1533 153.584 63.2 153.584 62.08C 153.584 60.28 154.064 58.92 155.024 58C 155.984 57.0667 157.264 56.6 158.864 56.6C 159.424 56.6 159.991 56.66 160.564 56.78C 161.138 56.8867 161.644 57.04 162.084 57.24L 162.084 59.8C 161.538 59.56 161.051 59.38 160.624 59.26C 160.198 59.1267 159.771 59.06 159.344 59.06C 158.464 59.06 157.778 59.28 157.284 59.72C 156.791 60.1467 156.544 60.82 156.544 61.74C 156.544 62.7667 156.771 63.5267 157.224 64.02C 157.691 64.5133 158.444 64.76 159.484 64.76C 160.271 64.76 161.144 64.4933 162.104 63.96L 162.104 66.5C 161.624 66.7533 161.124 66.94 160.604 67.06C 160.098 67.1933 159.524 67.26 158.884 67.26ZM 164.183 57.94C 164.383 57.7667 164.73 57.5733 165.223 57.36C 165.73 57.1467 166.29 56.9667 166.903 56.82C 167.53 56.66 168.13 56.58 168.703 56.58C 169.81 56.58 170.577 56.7467 171.003 57.08L 171.003 59.26C 170.47 59.14 169.703 59.08 168.703 59.08C 168.077 59.08 167.563 59.1133 167.163 59.18L 167.163 67L 164.183 67L 164.183 57.94ZM 182.798 56.88L 178.818 67.16C 177.845 69.6667 176.551 70.92 174.938 70.92C 174.245 70.92 173.645 70.8 173.138 70.56L 173.138 68.14C 173.538 68.2867 173.931 68.36 174.318 68.36C 174.718 68.36 175.051 68.2467 175.318 68.02C 175.598 67.7933 175.818 67.42 175.978 66.9L 171.918 56.88L 175.318 56.88L 177.458 63.52L 179.598 56.88L 182.798 56.88ZM 189.413 56.54C 191.04 56.54 192.3 56.9667 193.193 57.82C 194.087 58.66 194.533 60.0667 194.533 62.04C 194.533 63.6267 194.133 64.9 193.333 65.86C 192.533 66.82 191.44 67.3 190.053 67.3C 189.04 67.3 188.193 67.12 187.513 66.76L 187.513 70.62L 184.593 70.62L 184.593 59.02C 184.593 58.2067 185.04 57.5933 185.933 57.18C 186.84 56.7667 188 56.5533 189.413 56.54ZM 189.173 64.9C 189.987 64.9 190.587 64.6733 190.973 64.22C 191.36 63.7667 191.553 63.0067 191.553 61.94C 191.553 60.98 191.38 60.26 191.033 59.78C 190.7 59.2867 190.12 59.04 189.293 59.04C 188.107 59.04 187.513 59.2667 187.513 59.72L 187.513 64.48C 187.753 64.6267 188.02 64.7333 188.313 64.8C 188.607 64.8667 188.893 64.9 189.173 64.9ZM 200.745 67.4C 199.585 67.4 198.712 67.1267 198.125 66.58C 197.552 66.0333 197.265 65.2467 197.265 64.22L 197.265 59.16L 195.785 59.16L 195.785 56.88L 197.265 56.88L 197.265 54.1L 200.385 54.1L 200.385 56.88L 202.605 56.88L 202.605 59.16L 200.385 59.16L 200.385 63.84C 200.385 64.1867 200.458 64.4467 200.605 64.62C 200.752 64.78 200.998 64.86 201.345 64.86C 201.558 64.86 201.778 64.8267 202.005 64.76C 202.232 64.68 202.432 64.5733 202.605 64.44L 202.605 66.98C 202.098 67.26 201.478 67.4 200.745 67.4ZM 209.427 67.3C 207.72 67.3 206.44 66.8467 205.587 65.94C 204.734 65.0333 204.307 63.6867 204.307 61.9C 204.307 60.0333 204.727 58.6733 205.567 57.82C 206.42 56.9667 207.707 56.54 209.427 56.54C 211.147 56.54 212.44 56.98 213.307 57.86C 214.174 58.7267 214.607 60.0733 214.607 61.9C 214.607 63.66 214.16 65 213.267 65.92C 212.374 66.84 211.094 67.3 209.427 67.3ZM 209.427 64.92C 210.16 64.92 210.714 64.6667 211.087 64.16C 211.46 63.64 211.647 62.8867 211.647 61.9C 211.647 60.82 211.46 60.0533 211.087 59.6C 210.727 59.1333 210.174 58.9 209.427 58.9C 208.654 58.9 208.094 59.1333 207.747 59.6C 207.414 60.0533 207.247 60.82 207.247 61.9C 207.247 62.9267 207.42 63.6867 207.767 64.18C 208.127 64.6733 208.68 64.92 209.427 64.92ZM 224.471 62.82C 224.471 62.1533 224.558 61.5867 224.731 61.12C 224.918 60.6533 225.131 60.28 225.371 60C 225.624 59.7067 225.944 59.3867 226.331 59.04C 226.718 58.6933 226.998 58.4067 227.171 58.18C 227.344 57.94 227.431 57.6533 227.431 57.32C 227.431 56.7067 227.244 56.28 226.871 56.04C 226.511 55.8 226.011 55.68 225.371 55.68C 224.851 55.68 224.331 55.7733 223.811 55.96C 223.291 56.1333 222.844 56.36 222.471 56.64L 222.471 54.38C 222.778 54.1667 223.231 53.9667 223.831 53.78C 224.431 53.5933 225.058 53.5 225.711 53.5C 226.978 53.5 227.971 53.8467 228.691 54.54C 229.424 55.22 229.791 56.1467 229.791 57.32C 229.791 57.7733 229.718 58.1733 229.571 58.52C 229.438 58.8533 229.271 59.1333 229.071 59.36C 228.884 59.5867 228.624 59.8533 228.291 60.16C 227.811 60.5867 227.444 60.9933 227.191 61.38C 226.951 61.7667 226.831 62.2733 226.831 62.9L 226.831 63.3L 224.471 63.3L 224.471 62.82ZM 224.331 64.72L 226.971 64.72L 226.971 67L 224.331 67L 224.331 64.72ZM 14.6837 77.66L 17.9237 77.66L 17.9237 88.46L 23.7237 88.46L 23.7237 91L 14.6837 91L 14.6837 77.66ZM 30.1574 80.54C 33.3174 80.54 34.8774 82.6 34.8374 86.72L 28.1574 86.72C 28.4108 88.12 29.3508 88.82 30.9774 88.82C 31.4708 88.82 31.9508 88.7533 32.4174 88.62C 32.8974 88.4733 33.4041 88.2867 33.9374 88.06L 33.9374 90.62C 32.8441 91.0733 31.6174 91.3 30.2574 91.3C 29.2308 91.3 28.3308 91.0933 27.5574 90.68C 26.7841 90.2533 26.1841 89.6467 25.7574 88.86C 25.3308 88.0733 25.1174 87.1467 25.1174 86.08C 25.1174 84.32 25.5508 82.96 26.4174 82C 27.2974 81.0267 28.5441 80.54 30.1574 80.54ZM 30.0374 82.82C 28.9708 82.82 28.3374 83.4867 28.1374 84.82L 31.8774 84.82C 31.7841 84.1 31.5908 83.5867 31.2974 83.28C 31.0174 82.9733 30.5974 82.82 30.0374 82.82ZM 41.0479 91.4C 39.8879 91.4 39.0146 91.1267 38.4279 90.58C 37.8546 90.0333 37.5679 89.2467 37.5679 88.22L 37.5679 83.16L 36.0879 83.16L 36.0879 80.88L 37.5679 80.88L 37.5679 78.1L 40.6879 78.1L 40.6879 80.88L 42.9079 80.88L 42.9079 83.16L 40.6879 83.16L 40.6879 87.84C 40.6879 88.1867 40.7612 88.4467 40.9079 88.62C 41.0546 88.78 41.3012 88.86 41.6479 88.86C 41.8612 88.86 42.0812 88.8267 42.3079 88.76C 42.5346 88.68 42.7346 88.5733 42.9079 88.44L 42.9079 90.98C 42.4012 91.26 41.7812 91.4 41.0479 91.4ZM 54.837 91.4C 53.677 91.4 52.8036 91.1267 52.217 90.58C 51.6436 90.0333 51.357 89.2467 51.357 88.22L 51.357 83.16L 49.877 83.16L 49.877 80.88L 51.357 80.88L 51.357 78.1L 54.477 78.1L 54.477 80.88L 56.697 80.88L 56.697 83.16L 54.477 83.16L 54.477 87.84C 54.477 88.1867 54.5503 88.4467 54.697 88.62C 54.8436 88.78 55.0903 88.86 55.437 88.86C 55.6503 88.86 55.8703 88.8267 56.097 88.76C 56.3236 88.68 56.5236 88.5733 56.697 88.44L 56.697 90.98C 56.1903 91.26 55.5703 91.4 54.837 91.4ZM 64.8187 80.6C 65.992 80.6 66.9053 80.8933 67.5587 81.48C 68.212 82.0667 68.5387 83.0267 68.5387 84.36L 68.5387 91L 65.5587 91L 65.5587 84.98C 65.5587 83.7 64.9187 83.06 63.6387 83.06C 63.332 83.06 63.0187 83.1067 62.6987 83.2C 62.3787 83.2933 62.132 83.4067 61.9587 83.54L 61.9187 91L 58.9587 91L 58.9587 76.88L 61.9587 76.88L 61.9587 81.34C 62.8787 80.8467 63.832 80.6 64.8187 80.6ZM 75.6652 80.54C 78.8252 80.54 80.3852 82.6 80.3452 86.72L 73.6652 86.72C 73.9186 88.12 74.8586 88.82 76.4852 88.82C 76.9786 88.82 77.4586 88.7533 77.9252 88.62C 78.4052 88.4733 78.9119 88.2867 79.4452 88.06L 79.4452 90.62C 78.3519 91.0733 77.1252 91.3 75.7652 91.3C 74.7386 91.3 73.8386 91.0933 73.0652 90.68C 72.2919 90.2533 71.6919 89.6467 71.2652 88.86C 70.8386 88.0733 70.6252 87.1467 70.6252 86.08C 70.6252 84.32 71.0586 82.96 71.9252 82C 72.8052 81.0267 74.0519 80.54 75.6652 80.54ZM 75.5452 82.82C 74.4786 82.82 73.8452 83.4867 73.6452 84.82L 77.3852 84.82C 77.2919 84.1 77.0986 83.5867 76.8052 83.28C 76.5252 82.9733 76.1052 82.82 75.5452 82.82ZM 92.683 91.26C 91.6964 91.26 90.803 91.0667 90.003 90.68C 89.203 90.2933 88.563 89.7133 88.083 88.94C 87.6164 88.1533 87.383 87.2 87.383 86.08C 87.383 84.28 87.863 82.92 88.823 82C 89.783 81.0667 91.063 80.6 92.663 80.6C 93.223 80.6 93.7897 80.66 94.363 80.78C 94.9364 80.8867 95.443 81.04 95.883 81.24L 95.883 83.8C 95.3364 83.56 94.8497 83.38 94.423 83.26C 93.9964 83.1267 93.5697 83.06 93.143 83.06C 92.263 83.06 91.5764 83.28 91.083 83.72C 90.5897 84.1467 90.343 84.82 90.343 85.74C 90.343 86.7667 90.5697 87.5267 91.023 88.02C 91.4897 88.5133 92.243 88.76 93.283 88.76C 94.0697 88.76 94.943 88.4933 95.903 87.96L 95.903 90.5C 95.423 90.7533 94.923 90.94 94.403 91.06C 93.8964 91.1933 93.323 91.26 92.683 91.26ZM 102.542 91.3C 100.835 91.3 99.5554 90.8467 98.7021 89.94C 97.8488 89.0333 97.4221 87.6867 97.4221 85.9C 97.4221 84.0333 97.8421 82.6733 98.6821 81.82C 99.5354 80.9667 100.822 80.54 102.542 80.54C 104.262 80.54 105.555 80.98 106.422 81.86C 107.289 82.7267 107.722 84.0733 107.722 85.9C 107.722 87.66 107.275 89 106.382 89.92C 105.489 90.84 104.209 91.3 102.542 91.3ZM 102.542 88.92C 103.275 88.92 103.829 88.6667 104.202 88.16C 104.575 87.64 104.762 86.8867 104.762 85.9C 104.762 84.82 104.575 84.0533 104.202 83.6C 103.842 83.1333 103.289 82.9 102.542 82.9C 101.769 82.9 101.209 83.1333 100.862 83.6C 100.529 84.0533 100.362 84.82 100.362 85.9C 100.362 86.9267 100.535 87.6867 100.882 88.18C 101.242 88.6733 101.795 88.92 102.542 88.92ZM 121.299 80.6C 122.712 80.6 123.759 80.88 124.439 81.44C 125.119 81.9867 125.459 82.9067 125.459 84.2L 125.459 91L 122.479 91L 122.479 84.8C 122.479 83.64 121.826 83.06 120.519 83.06C 119.972 83.06 119.512 83.1867 119.139 83.44C 119.166 83.76 119.179 84.0133 119.179 84.2L 119.179 91L 116.199 91L 116.199 84.8C 116.199 83.64 115.546 83.06 114.239 83.06C 113.706 83.06 113.212 83.1733 112.759 83.4L 112.759 91L 109.779 91L 109.779 81.74C 110.299 81.46 111.092 81.2 112.159 80.96C 113.226 80.72 114.179 80.6 115.019 80.6C 116.366 80.6 117.359 80.84 117.999 81.32C 118.519 81.0933 119.066 80.92 119.639 80.8C 120.226 80.6667 120.779 80.6 121.299 80.6ZM 139.619 80.6C 141.033 80.6 142.079 80.88 142.759 81.44C 143.439 81.9867 143.779 82.9067 143.779 84.2L 143.779 91L 140.799 91L 140.799 84.8C 140.799 83.64 140.146 83.06 138.839 83.06C 138.293 83.06 137.833 83.1867 137.459 83.44C 137.486 83.76 137.499 84.0133 137.499 84.2L 137.499 91L 134.519 91L 134.519 84.8C 134.519 83.64 133.866 83.06 132.559 83.06C 132.026 83.06 131.533 83.1733 131.079 83.4L 131.079 91L 128.099 91L 128.099 81.74C 128.619 81.46 129.413 81.2 130.479 80.96C 131.546 80.72 132.499 80.6 133.339 80.6C 134.686 80.6 135.679 80.84 136.319 81.32C 136.839 81.0933 137.386 80.92 137.959 80.8C 138.546 80.6667 139.099 80.6 139.619 80.6ZM 151.18 91.3C 149.7 91.3 148.533 90.9533 147.68 90.26C 146.84 89.5667 146.42 88.5267 146.42 87.14L 146.42 80.88L 149.4 80.88L 149.4 86.9C 149.4 87.54 149.54 88.02 149.82 88.34C 150.113 88.6467 150.573 88.8 151.2 88.8C 151.826 88.8 152.28 88.6467 152.56 88.34C 152.853 88.02 153 87.54 153 86.9L 153 80.88L 155.8 80.88L 155.8 87.14C 155.8 88.54 155.393 89.5867 154.58 90.28C 153.78 90.96 152.646 91.3 151.18 91.3ZM 158.431 81.74C 158.951 81.46 159.745 81.2 160.811 80.96C 161.878 80.72 162.831 80.6 163.671 80.6C 165.098 80.6 166.171 80.88 166.891 81.44C 167.611 82 167.971 82.92 167.971 84.2L 167.971 91L 164.991 91L 164.991 84.8C 164.991 83.64 164.338 83.06 163.031 83.06C 162.738 83.06 162.438 83.0933 162.131 83.16C 161.825 83.2267 161.585 83.3067 161.411 83.4L 161.411 91L 158.431 91L 158.431 81.74ZM 170.619 77.2L 173.699 77.2L 173.699 79.5L 170.619 79.5L 170.619 77.2ZM 170.679 81.02L 173.659 81.02L 173.679 91L 170.679 91L 170.679 81.02ZM 180.481 91.4C 179.321 91.4 178.448 91.1267 177.861 90.58C 177.288 90.0333 177.001 89.2467 177.001 88.22L 177.001 83.16L 175.521 83.16L 175.521 80.88L 177.001 80.88L 177.001 78.1L 180.121 78.1L 180.121 80.88L 182.341 80.88L 182.341 83.16L 180.121 83.16L 180.121 87.84C 180.121 88.1867 180.195 88.4467 180.341 88.62C 180.488 88.78 180.735 88.86 181.081 88.86C 181.295 88.86 181.515 88.8267 181.741 88.76C 181.968 88.68 182.168 88.5733 182.341 88.44L 182.341 90.98C 181.835 91.26 181.215 91.4 180.481 91.4ZM 194.663 80.88L 190.683 91.16C 189.71 93.6667 188.417 94.92 186.803 94.92C 186.11 94.92 185.51 94.8 185.003 94.56L 185.003 92.14C 185.403 92.2867 185.797 92.36 186.183 92.36C 186.583 92.36 186.917 92.2467 187.183 92.02C 187.463 91.7933 187.683 91.42 187.843 90.9L 183.783 80.88L 187.183 80.88L 189.323 87.52L 191.463 80.88L 194.663 80.88ZM 211.526 76.72L 211.526 88.36C 211.526 88.9867 211.306 89.52 210.866 89.96C 210.426 90.4 209.846 90.7333 209.126 90.96C 208.406 91.1867 207.639 91.3 206.826 91.3C 205.106 91.3 203.773 90.8933 202.826 90.08C 201.893 89.2667 201.426 87.86 201.426 85.86C 201.426 84.18 201.833 82.88 202.646 81.96C 203.473 81.0267 204.679 80.56 206.266 80.56C 207.213 80.56 207.979 80.7333 208.566 81.08L 208.566 76.72L 211.526 76.72ZM 208.566 83.38C 208.033 83.1 207.513 82.96 207.006 82.96C 206.113 82.96 205.459 83.1867 205.046 83.64C 204.633 84.0933 204.426 84.86 204.426 85.94C 204.426 86.8733 204.619 87.5867 205.006 88.08C 205.393 88.56 206.039 88.8 206.946 88.8C 207.439 88.8 207.833 88.7333 208.126 88.6C 208.419 88.4667 208.566 88.28 208.566 88.04L 208.566 83.38ZM 218.654 80.54C 221.814 80.54 223.374 82.6 223.334 86.72L 216.654 86.72C 216.907 88.12 217.847 88.82 219.474 88.82C 219.967 88.82 220.447 88.7533 220.914 88.62C 221.394 88.4733 221.9 88.2867 222.434 88.06L 222.434 90.62C 221.34 91.0733 220.114 91.3 218.754 91.3C 217.727 91.3 216.827 91.0933 216.054 90.68C 215.28 90.2533 214.68 89.6467 214.254 88.86C 213.827 88.0733 213.614 87.1467 213.614 86.08C 213.614 84.32 214.047 82.96 214.914 82C 215.794 81.0267 217.04 80.54 218.654 80.54ZM 218.534 82.82C 217.467 82.82 216.834 83.4867 216.634 84.82L 220.374 84.82C 220.28 84.1 220.087 83.5867 219.794 83.28C 219.514 82.9733 219.094 82.82 218.534 82.82ZM 230.144 91.26C 229.157 91.26 228.264 91.0667 227.464 90.68C 226.664 90.2933 226.024 89.7133 225.544 88.94C 225.077 88.1533 224.844 87.2 224.844 86.08C 224.844 84.28 225.324 82.92 226.284 82C 227.244 81.0667 228.524 80.6 230.124 80.6C 230.684 80.6 231.251 80.66 231.824 80.78C 232.397 80.8867 232.904 81.04 233.344 81.24L 233.344 83.8C 232.797 83.56 232.311 83.38 231.884 83.26C 231.457 83.1267 231.031 83.06 230.604 83.06C 229.724 83.06 229.037 83.28 228.544 83.72C 228.051 84.1467 227.804 84.82 227.804 85.74C 227.804 86.7667 228.031 87.5267 228.484 88.02C 228.951 88.5133 229.704 88.76 230.744 88.76C 231.531 88.76 232.404 88.4933 233.364 87.96L 233.364 90.5C 232.884 90.7533 232.384 90.94 231.864 91.06C 231.357 91.1933 230.784 91.26 230.144 91.26ZM 235.443 77.2L 238.523 77.2L 238.523 79.5L 235.443 79.5L 235.443 77.2ZM 235.503 81.02L 238.483 81.02L 238.503 91L 235.503 91L 235.503 81.02ZM 250.706 76.72L 250.706 88.36C 250.706 88.9867 250.486 89.52 250.046 89.96C 249.606 90.4 249.026 90.7333 248.306 90.96C 247.586 91.1867 246.819 91.3 246.006 91.3C 244.286 91.3 242.952 90.8933 242.006 90.08C 241.072 89.2667 240.606 87.86 240.606 85.86C 240.606 84.18 241.012 82.88 241.826 81.96C 242.652 81.0267 243.859 80.56 245.446 80.56C 246.392 80.56 247.159 80.7333 247.746 81.08L 247.746 76.72L 250.706 76.72ZM 247.746 83.38C 247.212 83.1 246.692 82.96 246.186 82.96C 245.292 82.96 244.639 83.1867 244.226 83.64C 243.812 84.0933 243.606 84.86 243.606 85.94C 243.606 86.8733 243.799 87.5867 244.186 88.08C 244.572 88.56 245.219 88.8 246.126 88.8C 246.619 88.8 247.012 88.7333 247.306 88.6C 247.599 88.4667 247.746 88.28 247.746 88.04L 247.746 83.38ZM 257.833 80.54C 260.993 80.54 262.553 82.6 262.513 86.72L 255.833 86.72C 256.087 88.12 257.027 88.82 258.653 88.82C 259.147 88.82 259.627 88.7533 260.093 88.62C 260.573 88.4733 261.08 88.2867 261.613 88.06L 261.613 90.62C 260.52 91.0733 259.293 91.3 257.933 91.3C 256.907 91.3 256.007 91.0933 255.233 90.68C 254.46 90.2533 253.86 89.6467 253.433 88.86C 253.007 88.0733 252.793 87.1467 252.793 86.08C 252.793 84.32 253.227 82.96 254.093 82C 254.973 81.0267 256.22 80.54 257.833 80.54ZM 257.713 82.82C 256.647 82.82 256.013 83.4867 255.813 84.82L 259.553 84.82C 259.46 84.1 259.267 83.5867 258.973 83.28C 258.693 82.9733 258.273 82.82 257.713 82.82ZM 100.744 107.16L 99.2641 107.16L 99.2641 104.88L 100.764 104.88L 100.764 104.64C 100.777 103.12 101.124 102.067 101.804 101.48C 102.497 100.88 103.437 100.58 104.624 100.58C 104.837 100.58 105.071 100.6 105.324 100.64C 105.577 100.68 105.784 100.727 105.944 100.78L 105.944 103.4C 105.797 103.253 105.651 103.147 105.504 103.08C 105.357 103 105.171 102.96 104.944 102.96C 104.571 102.96 104.277 103.06 104.064 103.26C 103.851 103.46 103.744 103.8 103.744 104.28L 103.744 104.88L 105.944 104.88L 105.944 107.16L 103.724 107.16L 103.724 115L 100.744 115L 100.744 107.16ZM 112.064 115.3C 110.357 115.3 109.077 114.847 108.224 113.94C 107.37 113.033 106.944 111.687 106.944 109.9C 106.944 108.033 107.364 106.673 108.204 105.82C 109.057 104.967 110.344 104.54 112.064 104.54C 113.784 104.54 115.077 104.98 115.944 105.86C 116.81 106.727 117.244 108.073 117.244 109.9C 117.244 111.66 116.797 113 115.904 113.92C 115.01 114.84 113.73 115.3 112.064 115.3ZM 112.064 112.92C 112.797 112.92 113.35 112.667 113.724 112.16C 114.097 111.64 114.284 110.887 114.284 109.9C 114.284 108.82 114.097 108.053 113.724 107.6C 113.364 107.133 112.81 106.9 112.064 106.9C 111.29 106.9 110.73 107.133 110.384 107.6C 110.05 108.053 109.884 108.82 109.884 109.9C 109.884 110.927 110.057 111.687 110.404 112.18C 110.764 112.673 111.317 112.92 112.064 112.92ZM 119.3 105.94C 119.5 105.767 119.847 105.573 120.34 105.36C 120.847 105.147 121.407 104.967 122.02 104.82C 122.647 104.66 123.247 104.58 123.82 104.58C 124.927 104.58 125.694 104.747 126.12 105.08L 126.12 107.26C 125.587 107.14 124.82 107.08 123.82 107.08C 123.194 107.08 122.68 107.113 122.28 107.18L 122.28 115L 119.3 115L 119.3 105.94ZM 143.443 104.88L 139.463 115.16C 138.489 117.667 137.196 118.92 135.582 118.92C 134.889 118.92 134.289 118.8 133.783 118.56L 133.783 116.14C 134.182 116.287 134.576 116.36 134.962 116.36C 135.362 116.36 135.696 116.247 135.962 116.02C 136.243 115.793 136.463 115.42 136.623 114.9L 132.563 104.88L 135.962 104.88L 138.102 111.52L 140.243 104.88L 143.443 104.88ZM 149.153 115.3C 147.447 115.3 146.167 114.847 145.313 113.94C 144.46 113.033 144.033 111.687 144.033 109.9C 144.033 108.033 144.453 106.673 145.293 105.82C 146.147 104.967 147.433 104.54 149.153 104.54C 150.873 104.54 152.167 104.98 153.033 105.86C 153.9 106.727 154.333 108.073 154.333 109.9C 154.333 111.66 153.887 113 152.993 113.92C 152.1 114.84 150.82 115.3 149.153 115.3ZM 149.153 112.92C 149.887 112.92 150.44 112.667 150.813 112.16C 151.187 111.64 151.373 110.887 151.373 109.9C 151.373 108.82 151.187 108.053 150.813 107.6C 150.453 107.133 149.9 106.9 149.153 106.9C 148.38 106.9 147.82 107.133 147.473 107.6C 147.14 108.053 146.973 108.82 146.973 109.9C 146.973 110.927 147.147 111.687 147.493 112.18C 147.853 112.673 148.407 112.92 149.153 112.92ZM 161.15 115.3C 159.67 115.3 158.504 114.953 157.65 114.26C 156.81 113.567 156.39 112.527 156.39 111.14L 156.39 104.88L 159.37 104.88L 159.37 110.9C 159.37 111.54 159.51 112.02 159.79 112.34C 160.084 112.647 160.544 112.8 161.17 112.8C 161.797 112.8 162.25 112.647 162.53 112.34C 162.824 112.02 162.97 111.54 162.97 110.9L 162.97 104.88L 165.77 104.88L 165.77 111.14C 165.77 112.54 165.364 113.587 164.55 114.28C 163.75 114.96 162.617 115.3 161.15 115.3ZM 168.262 112.18L 171.162 112.18L 171.162 115L 168.262 115L 168.262 112.18Z" transform="translate(192 267)" fill="white"/>
</g>
</g>
</g>
</g>
<defs>
<filter id="filter0_dd" x="32" y="56" width="590.632" height="593.288" filterUnits="userSpaceOnUse" color-interpolation-filters="sRGB">
<feFlood flood-opacity="0" result="BackgroundImageFix"/>
<feColorMatrix in="SourceAlpha" type="matrix" values="0 0 0 0 0 0 0 0 0 0 0 0 0 0 0 0 0 0 255 0"/>
<feOffset dy="8"/>
<feGaussianBlur stdDeviation="7.5"/>
<feColorMatrix type="matrix" values="0 0 0 0 0 0 0 0 0 0 0 0 0 0 0 0 0 0 0.07 0"/>
<feBlend mode="normal" in2="BackgroundImageFix" result="effect1_dropShadow"/>
<feColorMatrix in="SourceAlpha" type="matrix" values="0 0 0 0 0 0 0 0 0 0 0 0 0 0 0 0 0 0 255 0"/>
<feOffset dy="18"/>
<feGaussianBlur stdDeviation="17.5"/>
<feColorMatrix type="matrix" values="0 0 0 0 0.196078 0 0 0 0 0.196078 0 0 0 0 0.364706 0 0 0 0.1 0"/>
<feBlend mode="normal" in2="effect1_dropShadow" result="effect2_dropShadow"/>
<feBlend mode="normal" in="SourceGraphic" in2="effect2_dropShadow" result="shape"/>
</filter>

</defs>
</svg>

