<svg width="656" height="663" viewBox="0 0 656 663" version="1.1" xmlns="http://www.w3.org/2000/svg" xmlns:xlink="http://www.w3.org/1999/xlink">
<title>bg-investment-cycle</title>
<desc>Created using Figma</desc>
<g id="Canvas" transform="translate(-6417 -2879)">
<g id="bg-investment-cycle">
<g id="Group 10">
<g id="Ellipse 3">
<use xlink:href="#path0_stroke" transform="translate(6421.89 2887.25)" fill="#D8D8D8"/>
</g>
<g id="Group">
<g id="Ellipse 4" filter="url(#filter0_dd)">
<use xlink:href="#path1_fill" transform="translate(6485 2950)" fill="#002B49"/>
</g>
</g>
<g id="betoken-logo">
<g id="layer1">
<g id="g4871">
<g id="g4887">
<g id="g4167">
<g id="path4168">
<mask id="mask0_outline_ins">
<use xlink:href="#path2_fill" fill="white" transform="matrix(4.22495 0 0 4.22495 6585 3052)"/>
</mask>
<g mask="url(#mask0_outline_ins)">
<use xlink:href="#path3_stroke_2x" transform="matrix(4.22495 0 0 4.22495 6585 3052)" fill="#EEEEEE" fill-opacity="0.87"/>
</g>
</g>
<g id="path4186">
<mask id="mask1_outline_ins">
<use xlink:href="#path4_fill" fill="white" transform="matrix(4.22495 0 0 4.22495 6622.54 3089.54)"/>
</mask>
<g mask="url(#mask1_outline_ins)">
<use xlink:href="#path5_stroke_2x" transform="matrix(4.22495 0 0 4.22495 6622.54 3089.54)" fill="#EEEEEE" fill-opacity="0.87"/>
</g>
</g>
<g id="g4863">
<g id="g4867">
<g id="path4841-6">
<mask id="mask2_outline_ins">
<use xlink:href="#path6_fill" fill="white" transform="matrix(1.77694 0 0 1.77694 6682.72 3106.46)"/>
</mask>
<g mask="url(#mask2_outline_ins)">
<use xlink:href="#path7_stroke_2x" transform="matrix(1.77694 0 0 1.77694 6682.72 3106.46)" fill="#EEEEEE" fill-opacity="0.87"/>
</g>
</g>
<g id="path4843-9">
<mask id="mask3_outline_ins">
<use xlink:href="#path8_fill" fill="white" transform="matrix(1.77694 0 0 1.77694 6683.63 3221.96)"/>
</mask>
<g mask="url(#mask3_outline_ins)">
<use xlink:href="#path9_stroke_2x" transform="matrix(1.77694 0 0 1.77694 6683.63 3221.96)" fill="#EEEEEE" fill-opacity="0.87"/>
</g>
</g>
</g>
</g>
</g>
</g>
</g>
</g>
</g>
</g>
<g id="Group">
<g id="Ellipse 3">
<use xlink:href="#path10_fill" transform="translate(6419 3139)" fill="#84E1BE"/>
</g>
<g id="Ellipse 3">
<use xlink:href="#path11_fill" transform="translate(6424 3144)" fill="#1CC886"/>
</g>
</g>
<g id="Group">
<g id="Ellipse 3">
<use xlink:href="#path10_fill" transform="translate(6556 3473)" fill="#84E1BE"/>
</g>
<g id="Ellipse 3">
<use xlink:href="#path11_fill" transform="translate(6561 3478)" fill="#1CC886"/>
</g>
</g>
<g id="Group">
<g id="Ellipse 3">
<use xlink:href="#path10_fill" transform="translate(7032 3079)" fill="#84E1BE"/>
</g>
<g id="Ellipse 3">
<use xlink:href="#path11_fill" transform="translate(7037 3084)" fill="#1CC886"/>
</g>
</g>
<g id="Group">
<g id="Ellipse 3">
<use xlink:href="#path10_fill" transform="translate(6735 2879)" fill="#84E1BE"/>
</g>
<g id="Ellipse 3">
<use xlink:href="#path11_fill" transform="translate(6740 2884)" fill="#1CC886"/>
</g>
</g>
<g id="Group">
<g id="Ellipse 3">
<use xlink:href="#path10_fill" transform="translate(7005 3380)" fill="#84E1BE"/>
</g>
<g id="Ellipse 3">
<use xlink:href="#path11_fill" transform="translate(7010 3385)" fill="#1CC886"/>
</g>
</g>
</g>
</g>
<defs>
<filter id="filter0_dd" filterUnits="userSpaceOnUse" x="6450" y="2933" width="591" height="594" color-interpolation-filters="sRGB">
<feFlood flood-opacity="0" result="BackgroundImageFix"/>
<feColorMatrix in="SourceAlpha" type="matrix" values="0 0 0 0 0 0 0 0 0 0 0 0 0 0 0 0 0 0 255 0"/>
<feOffset dx="0" dy="8"/>
<feGaussianBlur stdDeviation="7.5"/>
<feColorMatrix type="matrix" values="0 0 0 0 0 0 0 0 0 0 0 0 0 0 0 0 0 0 0.07 0"/>
<feBlend mode="normal" in2="BackgroundImageFix" result="effect1_dropShadow"/>
<feColorMatrix in="SourceAlpha" type="matrix" values="0 0 0 0 0 0 0 0 0 0 0 0 0 0 0 0 0 0 255 0"/>
<feOffset dx="0" dy="18"/>
<feGaussianBlur stdDeviation="17.5"/>
<feColorMatrix type="matrix" values="0 0 0 0 0.196078 0 0 0 0 0.196078 0 0 0 0 0.364706 0 0 0 0.1 0"/>
<feBlend mode="normal" in2="effect1_dropShadow" result="effect2_dropShadow"/>
<feBlend mode="normal" in="SourceGraphic" in2="effect2_dropShadow" result="shape"/>
</filter>
<path id="path0_stroke" d="M 651.083 325.142C 651.083 322.933 649.292 321.142 647.083 321.142C 644.874 321.143 643.083 322.934 643.083 325.143L 651.083 325.142ZM 637.04 262.7C 637.465 264.868 639.567 266.281 641.735 265.856C 643.903 265.43 645.315 263.328 644.89 261.16L 637.04 262.7ZM 644.871 261.062C 644.445 258.894 642.342 257.482 640.175 257.908C 638.007 258.334 636.595 260.437 637.021 262.604L 644.871 261.062ZM 618.964 202.55C 619.804 204.593 622.141 205.568 624.184 204.727C 626.227 203.887 627.202 201.549 626.362 199.506L 618.964 202.55ZM 626.324 199.413C 625.483 197.371 623.145 196.396 621.102 197.237C 619.059 198.078 618.085 200.416 618.926 202.459L 626.324 199.413ZM 589.494 147.082C 590.716 148.922 593.199 149.423 595.039 148.201C 596.88 146.979 597.38 144.496 596.158 142.656L 589.494 147.082ZM 596.103 142.572C 594.88 140.732 592.397 140.232 590.557 141.455C 588.717 142.678 588.217 145.16 589.44 147L 596.103 142.572ZM 549.806 98.3918C 551.362 99.9601 553.895 99.9701 555.463 98.4142C 557.032 96.8583 557.042 94.3257 555.486 92.7574L 549.806 98.3918ZM 555.415 92.686C 553.858 91.1182 551.326 91.1089 549.758 92.6653C 548.19 94.2217 548.181 96.7543 549.737 98.3221L 555.415 92.686ZM 501.426 58.33C 503.257 59.5657 505.744 59.083 506.979 57.2519C 508.215 55.4207 507.732 52.9344 505.901 51.6987L 501.426 58.33ZM 505.818 51.6425C 503.986 50.4073 501.5 50.8908 500.265 52.7223C 499.03 54.5539 499.513 57.04 501.345 58.2752L 505.818 51.6425ZM 446.162 28.4977C 448.2 29.3498 450.543 28.3882 451.395 26.35C 452.247 24.3118 451.285 21.9688 449.247 21.1167L 446.162 28.4977ZM 449.155 21.078C 447.116 20.2266 444.773 21.1888 443.922 23.2273C 443.07 25.2658 444.033 27.6085 446.071 28.4599L 449.155 21.078ZM 386.105 10.1529C 388.272 10.5851 390.378 9.17926 390.811 7.01282C 391.243 4.84638 389.837 2.73974 387.671 2.30751L 386.105 10.1529ZM 387.572 2.28789C 385.406 1.85633 383.299 3.26284 382.868 5.42942C 382.436 7.59599 383.843 9.7022 386.009 10.1338L 387.572 2.28789ZM 323.591 4C 325.8 4.00034 327.591 2.20975 327.592 0.000611612C 327.592 -2.20853 325.801 -3.99966 323.592 -4L 323.591 4ZM 323.491 -4C 321.282 -3.99966 319.491 -2.20853 319.492 0.000611435C 319.492 2.20975 321.283 4.00034 323.492 4L 323.491 -4ZM 261.074 10.1338C 263.241 9.7022 264.647 7.59599 264.216 5.42942C 263.784 3.26284 261.678 1.85633 259.511 2.28789L 261.074 10.1338ZM 259.413 2.30751C 257.246 2.73974 255.841 4.84638 256.273 7.01282C 256.705 9.17926 258.812 10.5851 260.978 10.1529L 259.413 2.30751ZM 201.012 28.4599C 203.051 27.6085 204.013 25.2658 203.162 23.2273C 202.31 21.1888 199.967 20.2266 197.929 21.078L 201.012 28.4599ZM 197.836 21.1167C 195.798 21.9688 194.836 24.3118 195.689 26.35C 196.541 28.3882 198.884 29.3498 200.922 28.4977L 197.836 21.1167ZM 145.738 58.2751C 147.57 57.04 148.054 54.5539 146.818 52.7223C 145.583 50.8908 143.097 50.4073 141.266 51.6425L 145.738 58.2751ZM 141.182 51.6987C 139.351 52.9344 138.868 55.4207 140.104 57.2519C 141.34 59.083 143.826 59.5657 145.657 58.33L 141.182 51.6987ZM 97.3461 98.3221C 98.9025 96.7543 98.8932 94.2217 97.3254 92.6653C 95.7576 91.1089 93.225 91.1182 91.6686 92.686L 97.3461 98.3221ZM 91.5978 92.7574C 90.0419 94.3256 90.0519 96.8583 91.6202 98.4142C 93.1885 99.9701 95.7211 99.9601 97.277 98.3918L 91.5978 92.7574ZM 57.6435 147C 58.8663 145.16 58.3661 142.678 56.5262 141.455C 54.6864 140.232 52.2036 140.732 50.9808 142.572L 57.6435 147ZM 50.9252 142.656C 49.703 144.496 50.2039 146.979 52.0442 148.201C 53.8844 149.423 56.367 148.922 57.5892 147.082L 50.9252 142.656ZM 28.1572 202.459C 28.9982 200.416 28.024 198.078 25.9812 197.237C 23.9384 196.396 21.6006 197.371 20.7596 199.413L 28.1572 202.459ZM 20.7214 199.506C 19.881 201.549 20.8559 203.887 22.899 204.727C 24.942 205.568 27.2795 204.593 28.1199 202.55L 20.7214 199.506ZM 10.0624 262.604C 10.4884 260.437 9.07636 258.334 6.90867 257.908C 4.74098 257.482 2.63844 258.894 2.21253 261.062L 10.0624 262.604ZM 2.19321 261.16C 1.76796 263.328 3.18059 265.43 5.34842 265.856C 7.51624 266.281 9.61834 264.868 10.0436 262.7L 2.19321 261.16ZM 4 325.143C 4.00033 322.934 2.20974 321.143 0.000602351 321.142C -2.20854 321.142 -3.99967 322.933 -4 325.142L 4 325.143ZM -4 325.243C -3.99967 327.452 -2.20854 329.243 0.000602175 329.242C 2.20974 329.242 4.00033 327.451 4 325.242L -4 325.243ZM 10.0436 387.685C 9.61834 385.517 7.51624 384.104 5.34842 384.529C 3.18059 384.955 1.76796 387.057 2.19321 389.225L 10.0436 387.685ZM 2.21253 389.323C 2.63844 391.491 4.74097 392.903 6.90867 392.477C 9.07636 392.051 10.4884 389.948 10.0624 387.781L 2.21253 389.323ZM 28.1199 447.835C 27.2795 445.792 24.942 444.817 22.899 445.658C 20.8559 446.498 19.881 448.836 20.7214 450.879L 28.1199 447.835ZM 20.7596 450.971C 21.6007 453.014 23.9384 453.988 25.9812 453.147C 28.024 452.306 28.9982 449.969 28.1572 447.926L 20.7596 450.971ZM 57.5892 503.303C 56.367 501.463 53.8844 500.962 52.0442 502.184C 50.2039 503.406 49.703 505.889 50.9252 507.729L 57.5892 503.303ZM 50.9808 507.813C 52.2036 509.653 54.6864 510.153 56.5262 508.93C 58.3661 507.707 58.8663 505.225 57.6435 503.385L 50.9808 507.813ZM 97.277 551.993C 95.7211 550.425 93.1884 550.415 91.6202 551.971C 90.0519 553.527 90.0419 556.059 91.5978 557.628L 97.277 551.993ZM 91.6686 557.699C 93.225 559.267 95.7576 559.276 97.3254 557.72C 98.8932 556.163 98.9025 553.631 97.3461 552.063L 91.6686 557.699ZM 145.657 592.055C 143.826 590.819 141.34 591.302 140.104 593.133C 138.868 594.964 139.351 597.45 141.182 598.686L 145.657 592.055ZM 141.266 598.742C 143.097 599.978 145.583 599.494 146.818 597.663C 148.054 595.831 147.57 593.345 145.738 592.11L 141.266 598.742ZM 200.922 621.887C 198.884 621.035 196.541 621.997 195.689 624.035C 194.836 626.073 195.798 628.416 197.836 629.268L 200.922 621.887ZM 197.929 629.307C 199.967 630.158 202.31 629.196 203.162 627.158C 204.013 625.119 203.051 622.776 201.012 621.925L 197.929 629.307ZM 260.978 640.232C 258.812 639.8 256.705 641.206 256.273 643.372C 255.841 645.539 257.246 647.645 259.413 648.077L 260.978 640.232ZM 259.511 648.097C 261.678 648.529 263.784 647.122 264.216 644.955C 264.647 642.789 263.241 640.683 261.074 640.251L 259.511 648.097ZM 323.492 646.385C 321.283 646.385 319.492 648.175 319.492 650.384C 319.491 652.593 321.282 654.385 323.491 654.385L 323.492 646.385ZM 323.592 654.385C 325.801 654.385 327.592 652.593 327.592 650.384C 327.591 648.175 325.8 646.385 323.591 646.385L 323.592 654.385ZM 386.009 640.251C 383.843 640.683 382.436 642.789 382.868 644.955C 383.299 647.122 385.406 648.529 387.572 648.097L 386.009 640.251ZM 387.671 648.077C 389.837 647.645 391.243 645.539 390.811 643.372C 390.378 641.206 388.272 639.8 386.105 640.232L 387.671 648.077ZM 446.071 621.925C 444.033 622.776 443.07 625.119 443.922 627.158C 444.773 629.196 447.116 630.158 449.155 629.307L 446.071 621.925ZM 449.247 629.268C 451.285 628.416 452.247 626.073 451.395 624.035C 450.543 621.997 448.2 621.035 446.162 621.887L 449.247 629.268ZM 501.345 592.11C 499.513 593.345 499.03 595.831 500.265 597.663C 501.5 599.494 503.986 599.978 505.818 598.742L 501.345 592.11ZM 505.901 598.686C 507.732 597.45 508.215 594.964 506.979 593.133C 505.744 591.302 503.257 590.819 501.426 592.055L 505.901 598.686ZM 549.737 552.063C 548.181 553.631 548.19 556.163 549.758 557.72C 551.326 559.276 553.858 559.267 555.415 557.699L 549.737 552.063ZM 555.486 557.628C 557.042 556.059 557.032 553.527 555.463 551.971C 553.895 550.415 551.362 550.425 549.806 551.993L 555.486 557.628ZM 589.44 503.385C 588.217 505.225 588.717 507.707 590.557 508.93C 592.397 510.153 594.88 509.653 596.103 507.813L 589.44 503.385ZM 596.158 507.729C 597.38 505.889 596.88 503.406 595.039 502.184C 593.199 500.962 590.716 501.463 589.494 503.303L 596.158 507.729ZM 618.926 447.926C 618.085 449.969 619.059 452.306 621.102 453.147C 623.145 453.988 625.483 453.014 626.324 450.971L 618.926 447.926ZM 626.362 450.879C 627.202 448.836 626.227 446.498 624.184 445.658C 622.141 444.817 619.804 445.792 618.964 447.835L 626.362 450.879ZM 637.021 387.781C 636.595 389.948 638.007 392.051 640.175 392.477C 642.342 392.903 644.445 391.491 644.871 389.323L 637.021 387.781ZM 644.89 389.225C 645.315 387.057 643.903 384.955 641.735 384.529C 639.567 384.104 637.465 385.517 637.04 387.685L 644.89 389.225ZM 643.083 325.242C 643.083 327.451 644.874 329.242 647.083 329.242C 649.292 329.243 651.083 327.452 651.083 325.243L 643.083 325.242ZM 651.083 325.192C 651.083 325.176 651.083 325.159 651.083 325.142L 643.083 325.143C 643.083 325.16 643.083 325.176 643.083 325.192L 651.083 325.192ZM 644.89 261.16C 644.884 261.128 644.877 261.095 644.871 261.062L 637.021 262.604C 637.027 262.636 637.034 262.668 637.04 262.7L 644.89 261.16ZM 626.362 199.506C 626.349 199.475 626.337 199.444 626.324 199.413L 618.926 202.459C 618.939 202.489 618.951 202.519 618.964 202.55L 626.362 199.506ZM 596.158 142.656C 596.14 142.628 596.121 142.6 596.103 142.572L 589.44 147C 589.458 147.027 589.476 147.055 589.494 147.082L 596.158 142.656ZM 555.486 92.7574C 555.462 92.7336 555.438 92.7098 555.415 92.686L 549.737 98.3221C 549.76 98.3454 549.783 98.3686 549.806 98.3918L 555.486 92.7574ZM 505.901 51.6987C 505.873 51.68 505.846 51.6612 505.818 51.6425L 501.345 58.2752C 501.372 58.2934 501.399 58.3117 501.426 58.33L 505.901 51.6987ZM 449.247 21.1167C 449.216 21.1038 449.185 21.0909 449.155 21.078L 446.071 28.4599C 446.101 28.4725 446.132 28.4851 446.162 28.4977L 449.247 21.1167ZM 387.671 2.30751C 387.638 2.30096 387.605 2.29443 387.572 2.28789L 386.009 10.1338C 386.041 10.1401 386.073 10.1465 386.105 10.1529L 387.671 2.30751ZM 323.592 -4C 323.575 -4 323.559 -4 323.542 -4L 323.542 4C 323.558 4 323.575 4 323.591 4L 323.592 -4ZM 323.542 -4C 323.525 -4 323.508 -4 323.491 -4L 323.492 4C 323.509 4 323.525 4 323.542 4L 323.542 -4ZM 259.511 2.28789C 259.478 2.29443 259.446 2.30096 259.413 2.30751L 260.978 10.1529C 261.01 10.1465 261.042 10.1401 261.074 10.1338L 259.511 2.28789ZM 197.929 21.078C 197.898 21.0909 197.867 21.1038 197.836 21.1167L 200.922 28.4977C 200.952 28.4851 200.982 28.4725 201.012 28.4599L 197.929 21.078ZM 141.266 51.6425C 141.238 51.6612 141.21 51.6799 141.182 51.6987L 145.657 58.33C 145.684 58.3117 145.711 58.2934 145.738 58.2751L 141.266 51.6425ZM 91.6686 92.686C 91.645 92.7098 91.6214 92.7336 91.5978 92.7574L 97.277 98.3918C 97.3 98.3686 97.3231 98.3453 97.3461 98.3221L 91.6686 92.686ZM 50.9808 142.572C 50.9623 142.6 50.9437 142.628 50.9252 142.656L 57.5892 147.082C 57.6073 147.055 57.6254 147.027 57.6435 147L 50.9808 142.572ZM 20.7596 199.413C 20.7469 199.444 20.7341 199.475 20.7214 199.506L 28.1199 202.55C 28.1323 202.519 28.1448 202.489 28.1572 202.459L 20.7596 199.413ZM 2.21253 261.062C 2.20609 261.095 2.19965 261.128 2.19321 261.16L 10.0436 262.7C 10.0499 262.668 10.0562 262.636 10.0624 262.604L 2.21253 261.062ZM -4 325.142C -4 325.159 -4 325.176 -4 325.192L 4 325.192C 4 325.176 4 325.16 4 325.143L -4 325.142ZM -4 325.192C -4 325.209 -4 325.226 -4 325.243L 4 325.242C 4 325.225 4 325.209 4 325.192L -4 325.192ZM 2.19321 389.225C 2.19964 389.257 2.20608 389.29 2.21253 389.323L 10.0624 387.781C 10.0562 387.749 10.0499 387.717 10.0436 387.685L 2.19321 389.225ZM 20.7214 450.879C 20.7341 450.91 20.7469 450.941 20.7596 450.971L 28.1572 447.926C 28.1448 447.896 28.1323 447.865 28.1199 447.835L 20.7214 450.879ZM 50.9252 507.729C 50.9437 507.757 50.9623 507.785 50.9808 507.813L 57.6435 503.385C 57.6254 503.357 57.6073 503.33 57.5892 503.303L 50.9252 507.729ZM 91.5978 557.628C 91.6214 557.651 91.645 557.675 91.6686 557.699L 97.3461 552.063C 97.3231 552.04 97.3 552.016 97.277 551.993L 91.5978 557.628ZM 141.182 598.686C 141.21 598.705 141.238 598.724 141.266 598.742L 145.738 592.11C 145.711 592.091 145.684 592.073 145.657 592.055L 141.182 598.686ZM 197.836 629.268C 197.867 629.281 197.898 629.294 197.929 629.307L 201.012 621.925C 200.982 621.912 200.952 621.9 200.922 621.887L 197.836 629.268ZM 259.413 648.077C 259.446 648.084 259.478 648.09 259.511 648.097L 261.074 640.251C 261.042 640.245 261.01 640.238 260.978 640.232L 259.413 648.077ZM 323.491 654.385C 323.508 654.385 323.525 654.385 323.542 654.385L 323.542 646.385C 323.525 646.385 323.509 646.385 323.492 646.385L 323.491 654.385ZM 323.542 654.385C 323.559 654.385 323.575 654.385 323.592 654.385L 323.591 646.385C 323.575 646.385 323.558 646.385 323.542 646.385L 323.542 654.385ZM 387.572 648.097C 387.605 648.09 387.638 648.084 387.671 648.077L 386.105 640.232C 386.073 640.238 386.041 640.245 386.009 640.251L 387.572 648.097ZM 449.155 629.307C 449.185 629.294 449.216 629.281 449.247 629.268L 446.162 621.887C 446.132 621.9 446.101 621.912 446.071 621.925L 449.155 629.307ZM 505.818 598.742C 505.846 598.724 505.873 598.705 505.901 598.686L 501.426 592.055C 501.399 592.073 501.372 592.091 501.345 592.11L 505.818 598.742ZM 555.415 557.699C 555.438 557.675 555.462 557.651 555.486 557.628L 549.806 551.993C 549.783 552.016 549.76 552.04 549.737 552.063L 555.415 557.699ZM 596.103 507.813C 596.121 507.785 596.14 507.757 596.158 507.729L 589.494 503.303C 589.476 503.33 589.458 503.357 589.44 503.385L 596.103 507.813ZM 626.324 450.971C 626.337 450.941 626.349 450.91 626.362 450.879L 618.964 447.835C 618.951 447.865 618.939 447.896 618.926 447.926L 626.324 450.971ZM 644.871 389.323C 644.877 389.29 644.884 389.257 644.89 389.225L 637.04 387.685C 637.034 387.717 637.027 387.749 637.021 387.781L 644.871 389.323ZM 651.083 325.243C 651.083 325.226 651.083 325.209 651.083 325.192L 643.083 325.192C 643.083 325.209 643.083 325.225 643.083 325.242L 651.083 325.243Z"/>
<path id="path1_fill" d="M 520.632 261.644C 520.632 406.146 404.084 523.288 260.316 523.288C 116.547 523.288 0 406.146 0 261.644C 0 117.142 116.547 0 260.316 0C 404.084 0 520.632 117.142 520.632 261.644Z"/>
<path id="path2_fill" d="M 37.8703 3.89825e-08C 27.827 -0.000455349 18.1949 3.98895 11.0928 11.0906C 3.99079 18.1923 0.000604633 27.8245 3.89255e-08 37.8683C -0.000225446 42.8418 0.979181 47.7666 2.88226 52.3616C 4.78534 56.9566 7.57483 61.1317 11.0915 64.6485C 14.6081 68.1653 18.783 70.9549 23.3777 72.8581C 27.9724 74.7613 32.897 75.7407 37.8703 75.7405C 42.8435 75.7407 47.7681 74.7613 52.3628 72.8581C 56.9576 70.9549 61.1324 68.1653 64.6491 64.6485C 68.1657 61.1317 70.9552 56.9566 72.8583 52.3616C 74.7613 47.7666 75.7407 42.8418 75.7405 37.8683C 75.7399 27.8245 71.7497 18.1923 64.6477 11.0906C 57.5457 3.98895 47.9135 -0.000449941 37.8703 3.89825e-08ZM 37.8703 3.91507C 46.8747 3.91512 55.5103 7.49231 61.8774 13.8598C 68.2446 20.2272 71.8216 28.8633 71.8217 37.8683C 71.8216 46.8732 68.2446 55.5093 61.8774 61.8768C 55.5103 68.2442 46.8747 71.8214 37.8703 71.8215C 28.8658 71.8214 20.2302 68.2442 13.8631 61.8768C 7.49596 55.5093 3.91889 46.8732 3.91885 37.8683C 3.91889 28.8633 7.49596 20.2272 13.8631 13.8598C 20.2302 7.49231 28.8658 3.91512 37.8703 3.91507Z"/>
<path id="path3_stroke_2x" d="M 37.8703 3.89825e-08L 37.8702 1L 37.8703 1L 37.8703 3.89825e-08ZM 11.0928 11.0906L 10.3857 10.3835L 11.0928 11.0906ZM 3.89255e-08 37.8683L -1 37.8682L -1 37.8682L 3.89255e-08 37.8683ZM 2.88226 52.3616L 1.95837 52.7442L 1.95837 52.7442L 2.88226 52.3616ZM 11.0915 64.6485L 10.3843 65.3556L 10.3843 65.3556L 11.0915 64.6485ZM 23.3777 72.8581L 23.7604 71.9342L 23.7604 71.9342L 23.3777 72.8581ZM 37.8703 75.7405L 37.8703 74.7405L 37.8702 74.7405L 37.8703 75.7405ZM 52.3628 72.8581L 51.9802 71.9342L 52.3628 72.8581ZM 64.6491 64.6485L 63.9419 63.9414L 64.6491 64.6485ZM 72.8583 52.3616L 73.7822 52.7442L 73.7822 52.7442L 72.8583 52.3616ZM 75.7405 37.8683L 76.7405 37.8682L 76.7405 37.8682L 75.7405 37.8683ZM 64.6477 11.0906L 65.3548 10.3835L 64.6477 11.0906ZM 37.8703 3.91507L 37.8703 2.91507L 37.8703 2.91507L 37.8703 3.91507ZM 61.8774 13.8598L 61.1703 14.5668L 61.8774 13.8598ZM 71.8217 37.8683L 72.8217 37.8683L 72.8217 37.8683L 71.8217 37.8683ZM 61.8774 61.8768L 62.5846 62.5839L 61.8774 61.8768ZM 37.8703 71.8215L 37.8703 72.8215L 37.8703 72.8215L 37.8703 71.8215ZM 13.8631 61.8768L 13.156 62.5839L 13.156 62.5839L 13.8631 61.8768ZM 3.91885 37.8683L 2.91885 37.8683L 2.91885 37.8683L 3.91885 37.8683ZM 13.8631 13.8598L 14.5702 14.5668L 13.8631 13.8598ZM 37.8703 -1C 27.5618 -1.00047 17.6753 3.09429 10.3857 10.3835L 11.7999 11.7977C 18.7144 4.88361 28.0922 0.999557 37.8702 1L 37.8703 -1ZM 10.3857 10.3835C 3.09616 17.6727 -0.999379 27.5592 -1 37.8682L 1 37.8683C 1.00059 28.0897 4.88542 18.7119 11.7999 11.7977L 10.3857 10.3835ZM -1 37.8682C -1.00023 42.9731 0.0050365 48.0279 1.95837 52.7442L 3.80616 51.979C 1.95333 47.5053 0.999781 42.7105 1 37.8683L -1 37.8682ZM 1.95837 52.7442C 3.9117 57.4605 6.77485 61.7459 10.3843 65.3556L 11.7986 63.9414C 8.37482 60.5174 5.65898 56.4526 3.80616 51.979L 1.95837 52.7442ZM 10.3843 65.3556C 13.9938 68.9652 18.2789 71.8285 22.995 73.782L 23.7604 71.9342C 19.287 70.0813 15.2223 67.3653 11.7986 63.9414L 10.3843 65.3556ZM 22.995 73.782C 27.7111 75.7354 32.7657 76.7407 37.8703 76.7405L 37.8702 74.7405C 33.0283 74.7407 28.2338 73.7871 23.7604 71.9342L 22.995 73.782ZM 37.8702 76.7405C 42.9748 76.7407 48.0294 75.7354 52.7455 73.782L 51.9802 71.9342C 47.5068 73.7871 42.7122 74.7407 37.8703 74.7405L 37.8702 76.7405ZM 52.7455 73.782C 57.4616 71.8285 61.7467 68.9652 65.3562 65.3556L 63.9419 63.9414C 60.5182 67.3653 56.4535 70.0813 51.9802 71.9342L 52.7455 73.782ZM 65.3562 65.3556C 68.9657 61.7459 71.8288 57.4605 73.7822 52.7442L 71.9344 51.979C 70.0815 56.4526 67.3657 60.5174 63.9419 63.9414L 65.3562 65.3556ZM 73.7822 52.7442C 75.7355 48.0279 76.7407 42.9731 76.7405 37.8682L 74.7405 37.8683C 74.7407 42.7105 73.7872 47.5053 71.9344 51.979L 73.7822 52.7442ZM 76.7405 37.8682C 76.7399 27.5592 72.6443 17.6727 65.3548 10.3835L 63.9406 11.7977C 70.8551 18.7119 74.7399 28.0897 74.7405 37.8683L 76.7405 37.8682ZM 65.3548 10.3835C 58.0652 3.09429 48.1787 -1.00046 37.8702 -1L 37.8703 1C 47.6483 0.999562 57.0261 4.88361 63.9406 11.7977L 65.3548 10.3835ZM 37.8703 4.91507C 46.6095 4.91511 54.9907 8.38694 61.1703 14.5668L 62.5846 13.1527C 56.0299 6.59768 47.14 2.91512 37.8703 2.91507L 37.8703 4.91507ZM 61.1703 14.5668C 67.3499 20.7468 70.8216 29.1285 70.8217 37.8683L 72.8217 37.8683C 72.8216 28.5981 69.1392 19.7077 62.5846 13.1527L 61.1703 14.5668ZM 70.8217 37.8683C 70.8216 46.608 67.3499 54.9898 61.1703 61.1697L 62.5846 62.5839C 69.1392 56.0289 72.8216 47.1384 72.8217 37.8683L 70.8217 37.8683ZM 61.1703 61.1697C 54.9907 67.3496 46.6095 70.8214 37.8703 70.8215L 37.8703 72.8215C 47.14 72.8214 56.0299 69.1388 62.5846 62.5839L 61.1703 61.1697ZM 37.8703 70.8215C 29.131 70.8214 20.7498 67.3496 14.5702 61.1697L 13.156 62.5839C 19.7106 69.1388 28.6006 72.8214 37.8703 72.8215L 37.8703 70.8215ZM 14.5702 61.1697C 8.39062 54.9898 4.91889 46.608 4.91885 37.8683L 2.91885 37.8683C 2.91889 47.1384 6.60131 56.0289 13.156 62.5839L 14.5702 61.1697ZM 4.91885 37.8683C 4.91889 29.1285 8.39062 20.7468 14.5702 14.5668L 13.156 13.1527C 6.60131 19.7077 2.91889 28.5981 2.91885 37.8683L 4.91885 37.8683ZM 14.5702 14.5668C 20.7498 8.38694 29.131 4.91511 37.8703 4.91507L 37.8703 2.91507C 28.6006 2.91512 19.7106 6.59768 13.156 13.1527L 14.5702 14.5668Z"/>
<path id="path4_fill" d="M 28.984 57.9711C 44.9915 57.9711 57.968 44.9938 57.968 28.9855C 57.968 12.9773 44.9915 0 28.984 0C 12.9766 0 0 12.9773 0 28.9855C 0 44.9938 12.9766 57.9711 28.984 57.9711Z"/>
<path id="path5_stroke_2x" d="M 28.984 58.9711C 45.5438 58.9711 58.968 45.546 58.968 28.9855L 56.968 28.9855C 56.968 44.4416 44.4391 56.9711 28.984 56.9711L 28.984 58.9711ZM 58.968 28.9855C 58.968 12.425 45.5438 -1 28.984 -1L 28.984 1C 44.4391 1 56.968 13.5295 56.968 28.9855L 58.968 28.9855ZM 28.984 -1C 12.4243 -1 -1 12.425 -1 28.9855L 1 28.9855C 1 13.5295 13.5289 1 28.984 1L 28.984 -1ZM -1 28.9855C -1 45.546 12.4243 58.9711 28.984 58.9711L 28.984 56.9711C 13.5289 56.9711 1 44.4416 1 28.9855L -1 28.9855Z"/>
<path id="path6_fill" fill-rule="evenodd" d="M 35.1741 0L 0 58.1167L 34.6643 79.0183L 70.0932 58.3716L 35.1741 0Z"/>
<path id="path7_stroke_2x" d="M 35.1741 0L 36.0322 -0.513373L 35.1791 -1.93956L 34.3186 -0.517783L 35.1741 0ZM 0 58.1167L -0.855512 57.5989L -1.37415 58.4559L -0.516366 58.9731L 0 58.1167ZM 34.6643 79.0183L 34.1479 79.8747L 34.6556 80.1808L 35.1678 79.8823L 34.6643 79.0183ZM 70.0932 58.3716L 70.5967 59.2356L 71.4707 58.7263L 70.9514 57.8582L 70.0932 58.3716ZM 34.3186 -0.517783L -0.855512 57.5989L 0.855512 58.6345L 36.0296 0.517783L 34.3186 -0.517783ZM -0.516366 58.9731L 34.1479 79.8747L 35.1807 78.162L 0.516366 57.2604L -0.516366 58.9731ZM 35.1678 79.8823L 70.5967 59.2356L 69.5897 57.5076L 34.1608 78.1544L 35.1678 79.8823ZM 70.9514 57.8582L 36.0322 -0.513373L 34.3159 0.513373L 69.2351 58.885L 70.9514 57.8582Z"/>
<path id="path8_fill" fill-rule="evenodd" d="M 0 0L 34.6643 20.6467L 69.0737 0.509796L 35.1741 48.9404L 0 0Z"/>
<path id="path9_stroke_2x" d="M 0 0L 0.511726 -0.859149L -0.81203 0.583616L 0 0ZM 34.6643 20.6467L 34.1526 21.5059L 34.6598 21.808L 35.1694 21.5098L 34.6643 20.6467ZM 69.0737 0.509796L 69.8929 1.08324L 68.5686 -0.353275L 69.0737 0.509796ZM 35.1741 48.9404L 34.362 49.524L 35.1848 50.6688L 35.9933 49.5138L 35.1741 48.9404ZM -0.511726 0.859149L 34.1526 21.5059L 35.176 19.7876L 0.511726 -0.859149L -0.511726 0.859149ZM 35.1694 21.5098L 69.5788 1.37287L 68.5686 -0.353275L 34.1592 19.7837L 35.1694 21.5098ZM 68.2544 -0.0636464L 34.3548 48.3669L 35.9933 49.5138L 69.8929 1.08324L 68.2544 -0.0636464ZM 35.9861 48.3568L 0.81203 -0.583616L -0.81203 0.583616L 34.362 49.524L 35.9861 48.3568Z"/>
<path id="path10_fill" d="M 20 10C 20 15.5228 15.5228 20 10 20C 4.47715 20 0 15.5228 0 10C 0 4.47715 4.47715 0 10 0C 15.5228 0 20 4.47715 20 10Z"/>
<path id="path11_fill" d="M 10 5C 10 7.76142 7.76142 10 5 10C 2.23858 10 0 7.76142 0 5C 0 2.23858 2.23858 0 5 0C 7.76142 0 10 2.23858 10 5Z"/>
</defs>
</svg>
