<svg width="656" height="665" viewBox="0 0 656 665" version="1.1" xmlns="http://www.w3.org/2000/svg" xmlns:xlink="http://www.w3.org/1999/xlink">
<g data-name="Canvas" fill="none">
<g data-name="bg-investment-cycle">
<g data-name="Group 10">
<g data-name="Ellipse 3">
<ellipse cx="323.542" cy="325.192" rx="323.542" ry="325.192" stroke-width="8" stroke-linecap="round" stroke-linejoin="round" stroke-dasharray="0.1 64" transform="translate(4 10)" stroke="#D8D8D8"/>
</g>
<g data-name="Group">
<g data-name="Ellipse 4" filter="url(#filter0_dd)">
<ellipse cx="260.316" cy="261.644" rx="260.316" ry="261.644" transform="translate(67 73)" fill="#002B49"/>
</g>
</g>
<g data-name="betoken-logo">
<g data-name="layer1">
<g data-name="g4871">
<g data-name="g4887">
<g data-name="g4167">
<g data-name="path4168">
<path fill-rule="evenodd" clip-rule="evenodd" d="M 45.4443 0.5C 33.525 0.49946 22.0936 5.23407 13.6649 13.6623C 5.23626 22.0905 0.500718 33.522 0.5 45.4419C 0.499732 51.3445 1.66209 57.1893 3.92066 62.6426C 6.17923 68.0959 9.48979 73.0509 13.6633 77.2246C 17.8368 81.3984 22.7916 84.7091 28.2446 86.9678C 33.6976 89.2265 39.542 90.3889 45.4443 90.3886C 51.3466 90.3889 57.191 89.2265 62.6441 86.9678C 68.0971 84.7091 73.0518 81.3984 77.2253 77.2246C 81.3988 73.0509 84.7094 68.0959 86.968 62.6426C 89.2265 57.1893 90.3889 51.3445 90.3886 45.4419C 90.3879 33.522 85.6524 22.0905 77.2237 13.6623C 68.795 5.23407 57.3636 0.499466 45.4443 0.5ZM 45.4443 4.19809C 56.3823 4.19814 66.8722 8.54346 74.6065 16.2782C 82.3408 24.0129 86.686 34.5034 86.686 45.4419C 86.686 56.3804 82.3408 66.871 74.6065 74.6057C 66.8722 82.3404 56.3823 86.6857 45.4443 86.6858C 34.5063 86.6857 24.0164 82.3404 16.2821 74.6057C 8.54783 66.871 4.20267 56.3804 4.20262 45.4419C 4.20267 34.5034 8.54783 24.0129 16.2821 16.2782C 24.0164 8.54346 34.5063 4.19814 45.4443 4.19809Z" stroke-miterlimit="8" transform="translate(135 142) scale(4.22495)" stroke="#EEEEEE" stroke-opacity="0.24"/>
</g>
<g data-name="path4186">
<path fill-rule="evenodd" clip-rule="evenodd" d="M 34.7808 69.0653C 53.7136 69.0653 69.0617 53.7165 69.0617 34.7827C 69.0617 15.8489 53.7136 0.5 34.7808 0.5C 15.8481 0.5 0.5 15.8489 0.5 34.7827C 0.5 53.7165 15.8481 69.0653 34.7808 69.0653Z" stroke-miterlimit="8" transform="translate(180.053 187.044) scale(4.22495)" stroke="#EEEEEE" stroke-opacity="0.24"/>
</g>
</g>
</g>
</g>
</g>
</g>
</g>
<g data-name="Group">
<g data-name="Ellipse 3">
<circle cx="10" cy="10" r="10" transform="translate(327 2)" fill="#84E1BE"/>
</g>
<g data-name="Ellipse 3">
<circle cx="5" cy="5" r="5" transform="translate(332 7)" fill="#1CC886"/>
</g>
</g>
<g data-name="Arrow">
<path d="M 25.0607 1.06066C 25.6464 0.474874 25.6464 -0.474874 25.0607 -1.06066L 15.5147 -10.6066C 14.9289 -11.1924 13.9792 -11.1924 13.3934 -10.6066C 12.8076 -10.0208 12.8076 -9.07107 13.3934 -8.48528L 21.8787 0L 13.3934 8.48528C 12.8076 9.07107 12.8076 10.0208 13.3934 10.6066C 13.9792 11.1924 14.9289 11.1924 15.5147 10.6066L 25.0607 1.06066ZM 0 1.5L 24 1.5L 24 -1.5L 0 -1.5L 0 1.5Z" transform="translate(343 12)" fill="#84E1BE"/>
</g>
<g data-name="Title">
<g data-name="Title">
<path d="M 30.3743 8.16L 26.6343 8.16L 26.6343 5.66L 37.4143 5.66L 37.4143 8.16L 33.6143 8.16L 33.6143 19L 30.3743 19L 30.3743 8.16ZM 39.2126 5.2L 42.2926 5.2L 42.2926 7.5L 39.2126 7.5L 39.2126 5.2ZM 39.2726 9.02L 42.2526 9.02L 42.2726 19L 39.2726 19L 39.2726 9.02ZM 44.9352 9.94C 45.1352 9.76667 45.4819 9.57333 45.9752 9.36C 46.4819 9.14667 47.0419 8.96667 47.6552 8.82C 48.2819 8.66 48.8819 8.58 49.4552 8.58C 50.5619 8.58 51.3286 8.74667 51.7552 9.08L 51.7552 11.26C 51.2219 11.14 50.4552 11.08 49.4552 11.08C 48.8286 11.08 48.3152 11.1133 47.9152 11.18L 47.9152 19L 44.9352 19L 44.9352 9.94ZM 57.6184 8.54C 60.7784 8.54 62.3384 10.6 62.2984 14.72L 55.6184 14.72C 55.8717 16.12 56.8117 16.82 58.4384 16.82C 58.9317 16.82 59.4117 16.7533 59.8784 16.62C 60.3584 16.4733 60.865 16.2867 61.3984 16.06L 61.3984 18.62C 60.305 19.0733 59.0784 19.3 57.7184 19.3C 56.6917 19.3 55.7917 19.0933 55.0184 18.68C 54.245 18.2533 53.645 17.6467 53.2184 16.86C 52.7917 16.0733 52.5784 15.1467 52.5784 14.08C 52.5784 12.32 53.0117 10.96 53.8784 10C 54.7584 9.02667 56.005 8.54 57.6184 8.54ZM 57.4984 10.82C 56.4317 10.82 55.7984 11.4867 55.5984 12.82L 59.3384 12.82C 59.245 12.1 59.0517 11.5867 58.7584 11.28C 58.4784 10.9733 58.0584 10.82 57.4984 10.82ZM 73.9088 4.72L 73.9088 16.36C 73.9088 16.9867 73.6888 17.52 73.2488 17.96C 72.8088 18.4 72.2288 18.7333 71.5088 18.96C 70.7888 19.1867 70.0222 19.3 69.2088 19.3C 67.4888 19.3 66.1555 18.8933 65.2088 18.08C 64.2755 17.2667 63.8088 15.86 63.8088 13.86C 63.8088 12.18 64.2155 10.88 65.0288 9.96C 65.8555 9.02667 67.0622 8.56 68.6488 8.56C 69.5955 8.56 70.3622 8.73333 70.9488 9.08L 70.9488 4.72L 73.9088 4.72ZM 70.9488 11.38C 70.4155 11.1 69.8955 10.96 69.3888 10.96C 68.4955 10.96 67.8422 11.1867 67.4288 11.64C 67.0155 12.0933 66.8088 12.86 66.8088 13.94C 66.8088 14.8733 67.0022 15.5867 67.3888 16.08C 67.7755 16.56 68.4222 16.8 69.3288 16.8C 69.8222 16.8 70.2155 16.7333 70.5088 16.6C 70.8022 16.4667 70.9488 16.28 70.9488 16.04L 70.9488 11.38ZM 86.6437 19.3C 84.937 19.3 83.657 18.8467 82.8037 17.94C 81.9503 17.0333 81.5237 15.6867 81.5237 13.9C 81.5237 12.0333 81.9437 10.6733 82.7837 9.82C 83.637 8.96667 84.9237 8.54 86.6437 8.54C 88.3637 8.54 89.657 8.98 90.5237 9.86C 91.3903 10.7267 91.8237 12.0733 91.8237 13.9C 91.8237 15.66 91.377 17 90.4837 17.92C 89.5903 18.84 88.3103 19.3 86.6437 19.3ZM 86.6437 16.92C 87.377 16.92 87.9303 16.6667 88.3037 16.16C 88.677 15.64 88.8637 14.8867 88.8637 13.9C 88.8637 12.82 88.677 12.0533 88.3037 11.6C 87.9437 11.1333 87.3903 10.9 86.6437 10.9C 85.8703 10.9 85.3103 11.1333 84.9637 11.6C 84.6303 12.0533 84.4637 12.82 84.4637 13.9C 84.4637 14.9267 84.637 15.6867 84.9837 16.18C 85.3437 16.6733 85.897 16.92 86.6437 16.92ZM 94.6405 11.16L 93.1605 11.16L 93.1605 8.88L 94.6605 8.88L 94.6605 8.64C 94.6739 7.12 95.0205 6.06667 95.7005 5.48C 96.3939 4.88 97.3339 4.58 98.5205 4.58C 98.7339 4.58 98.9672 4.6 99.2205 4.64C 99.4739 4.68 99.6805 4.72667 99.8405 4.78L 99.8405 7.4C 99.6939 7.25333 99.5472 7.14667 99.4005 7.08C 99.2539 7 99.0672 6.96 98.8405 6.96C 98.4672 6.96 98.1739 7.06 97.9605 7.26C 97.7472 7.46 97.6405 7.8 97.6405 8.28L 97.6405 8.88L 99.8405 8.88L 99.8405 11.16L 97.6205 11.16L 97.6205 19L 94.6405 19L 94.6405 11.16ZM 107.279 19L 107.279 5.06L 110.239 5.06L 110.239 19L 107.279 19ZM 117.444 19.3C 115.738 19.3 114.458 18.8467 113.604 17.94C 112.751 17.0333 112.324 15.6867 112.324 13.9C 112.324 12.0333 112.744 10.6733 113.584 9.82C 114.438 8.96667 115.724 8.54 117.444 8.54C 119.164 8.54 120.458 8.98 121.324 9.86C 122.191 10.7267 122.624 12.0733 122.624 13.9C 122.624 15.66 122.178 17 121.284 17.92C 120.391 18.84 119.111 19.3 117.444 19.3ZM 117.444 16.92C 118.178 16.92 118.731 16.6667 119.104 16.16C 119.478 15.64 119.664 14.8867 119.664 13.9C 119.664 12.82 119.478 12.0533 119.104 11.6C 118.744 11.1333 118.191 10.9 117.444 10.9C 116.671 10.9 116.111 11.1333 115.764 11.6C 115.431 12.0533 115.264 12.82 115.264 13.9C 115.264 14.9267 115.438 15.6867 115.784 16.18C 116.144 16.6733 116.698 16.92 117.444 16.92ZM 129.241 19.3C 127.535 19.3 126.255 18.8467 125.401 17.94C 124.548 17.0333 124.121 15.6867 124.121 13.9C 124.121 12.0333 124.541 10.6733 125.381 9.82C 126.235 8.96667 127.521 8.54 129.241 8.54C 130.961 8.54 132.255 8.98 133.121 9.86C 133.988 10.7267 134.421 12.0733 134.421 13.9C 134.421 15.66 133.975 17 133.081 17.92C 132.188 18.84 130.908 19.3 129.241 19.3ZM 129.241 16.92C 129.975 16.92 130.528 16.6667 130.901 16.16C 131.275 15.64 131.461 14.8867 131.461 13.9C 131.461 12.82 131.275 12.0533 130.901 11.6C 130.541 11.1333 129.988 10.9 129.241 10.9C 128.468 10.9 127.908 11.1333 127.561 11.6C 127.228 12.0533 127.061 12.82 127.061 13.9C 127.061 14.9267 127.235 15.6867 127.581 16.18C 127.941 16.6733 128.495 16.92 129.241 16.92ZM 139.478 19.3C 138.838 19.3 138.278 19.2333 137.798 19.1C 137.318 18.98 136.785 18.8 136.198 18.56L 136.198 15.94C 137.278 16.7533 138.412 17.16 139.598 17.16C 140.052 17.16 140.378 17.0867 140.578 16.94C 140.792 16.78 140.898 16.5667 140.898 16.3C 140.898 15.9933 140.732 15.7667 140.398 15.62C 140.065 15.4733 139.532 15.3133 138.798 15.14C 138.025 14.98 137.385 14.66 136.878 14.18C 136.385 13.7 136.138 13 136.138 12.08C 136.138 11.2933 136.338 10.6467 136.738 10.14C 137.138 9.63333 137.638 9.26667 138.238 9.04C 138.852 8.8 139.485 8.68 140.138 8.68C 140.938 8.68 141.585 8.75333 142.078 8.9C 142.585 9.03333 143.078 9.24667 143.558 9.54L 143.558 11.88C 142.878 11.5067 142.352 11.24 141.978 11.08C 141.605 10.92 141.172 10.84 140.678 10.84C 140.185 10.84 139.818 10.92 139.578 11.08C 139.338 11.2267 139.218 11.44 139.218 11.72C 139.218 12.0533 139.352 12.3 139.618 12.46C 139.885 12.6067 140.312 12.76 140.898 12.92C 141.565 13.0933 142.092 13.2667 142.478 13.44C 142.865 13.6 143.212 13.8867 143.518 14.3C 143.825 14.7 143.978 15.2667 143.978 16C 143.952 17.1467 143.518 17.9867 142.678 18.52C 141.838 19.04 140.772 19.3 139.478 19.3ZM 146.127 5.2L 149.207 5.2L 149.207 7.5L 146.127 7.5L 146.127 5.2ZM 146.187 9.02L 149.167 9.02L 149.187 19L 146.187 19L 146.187 9.02ZM 151.849 9.74C 152.369 9.46 153.163 9.2 154.229 8.96C 155.296 8.72 156.249 8.6 157.089 8.6C 158.516 8.6 159.589 8.88 160.309 9.44C 161.029 10 161.389 10.92 161.389 12.2L 161.389 19L 158.409 19L 158.409 12.8C 158.409 11.64 157.756 11.06 156.449 11.06C 156.156 11.06 155.856 11.0933 155.549 11.16C 155.243 11.2267 155.003 11.3067 154.829 11.4L 154.829 19L 151.849 19L 151.849 9.74ZM 169.137 8.6C 170.443 8.6 171.477 8.84 172.237 9.32C 173.01 9.78667 173.397 10.4533 173.397 11.32L 173.397 19.12C 173.397 20.52 172.95 21.5933 172.057 22.34C 171.163 23.0867 169.89 23.46 168.237 23.46C 167.383 23.46 166.637 23.4 165.997 23.28C 165.357 23.16 164.857 23 164.497 22.8L 164.497 20.18C 164.883 20.3667 165.423 20.5467 166.117 20.72C 166.81 20.8933 167.477 20.98 168.117 20.98C 168.983 20.98 169.59 20.8067 169.937 20.46C 170.297 20.1133 170.477 19.6267 170.477 19L 170.477 18.42C 169.797 19.0067 168.943 19.3 167.917 19.3C 166.503 19.2333 165.41 18.7867 164.637 17.96C 163.863 17.12 163.477 15.8867 163.477 14.26C 163.477 12.1533 163.957 10.6867 164.917 9.86C 165.89 9.02 167.297 8.6 169.137 8.6ZM 166.437 14.08C 166.437 15 166.637 15.7333 167.037 16.28C 167.45 16.8133 167.997 17.08 168.677 17.08C 169.343 17.08 169.943 16.9267 170.477 16.62L 170.477 11.98C 170.477 11.3 169.943 10.96 168.877 10.96C 167.25 10.96 166.437 12 166.437 14.08ZM 192.94 8.6C 194.353 8.6 195.4 8.88 196.08 9.44C 196.76 9.98667 197.1 10.9067 197.1 12.2L 197.1 19L 194.12 19L 194.12 12.8C 194.12 11.64 193.466 11.06 192.16 11.06C 191.613 11.06 191.153 11.1867 190.78 11.44C 190.806 11.76 190.82 12.0133 190.82 12.2L 190.82 19L 187.84 19L 187.84 12.8C 187.84 11.64 187.186 11.06 185.88 11.06C 185.346 11.06 184.853 11.1733 184.4 11.4L 184.4 19L 181.42 19L 181.42 9.74C 181.94 9.46 182.733 9.2 183.8 8.96C 184.866 8.72 185.82 8.6 186.66 8.6C 188.006 8.6 189 8.84 189.64 9.32C 190.16 9.09333 190.706 8.92 191.28 8.8C 191.866 8.66667 192.42 8.6 192.94 8.6ZM 204.3 19.3C 202.593 19.3 201.313 18.8467 200.46 17.94C 199.607 17.0333 199.18 15.6867 199.18 13.9C 199.18 12.0333 199.6 10.6733 200.44 9.82C 201.293 8.96667 202.58 8.54 204.3 8.54C 206.02 8.54 207.313 8.98 208.18 9.86C 209.047 10.7267 209.48 12.0733 209.48 13.9C 209.48 15.66 209.033 17 208.14 17.92C 207.247 18.84 205.967 19.3 204.3 19.3ZM 204.3 16.92C 205.033 16.92 205.587 16.6667 205.96 16.16C 206.333 15.64 206.52 14.8867 206.52 13.9C 206.52 12.82 206.333 12.0533 205.96 11.6C 205.6 11.1333 205.047 10.9 204.3 10.9C 203.527 10.9 202.967 11.1333 202.62 11.6C 202.287 12.0533 202.12 12.82 202.12 13.9C 202.12 14.9267 202.293 15.6867 202.64 16.18C 203 16.6733 203.553 16.92 204.3 16.92ZM 211.537 9.74C 212.057 9.46 212.85 9.2 213.917 8.96C 214.983 8.72 215.937 8.6 216.777 8.6C 218.203 8.6 219.277 8.88 219.997 9.44C 220.717 10 221.077 10.92 221.077 12.2L 221.077 19L 218.097 19L 218.097 12.8C 218.097 11.64 217.443 11.06 216.137 11.06C 215.843 11.06 215.543 11.0933 215.237 11.16C 214.93 11.2267 214.69 11.3067 214.517 11.4L 214.517 19L 211.537 19L 211.537 9.74ZM 228.204 8.54C 231.364 8.54 232.924 10.6 232.884 14.72L 226.204 14.72C 226.458 16.12 227.398 16.82 229.024 16.82C 229.518 16.82 229.998 16.7533 230.464 16.62C 230.944 16.4733 231.451 16.2867 231.984 16.06L 231.984 18.62C 230.891 19.0733 229.664 19.3 228.304 19.3C 227.278 19.3 226.378 19.0933 225.604 18.68C 224.831 18.2533 224.231 17.6467 223.804 16.86C 223.378 16.0733 223.164 15.1467 223.164 14.08C 223.164 12.32 223.598 10.96 224.464 10C 225.344 9.02667 226.591 8.54 228.204 8.54ZM 228.084 10.82C 227.018 10.82 226.384 11.4867 226.184 12.82L 229.924 12.82C 229.831 12.1 229.638 11.5867 229.344 11.28C 229.064 10.9733 228.644 10.82 228.084 10.82ZM 244.37 8.88L 240.39 19.16C 239.417 21.6667 238.124 22.92 236.51 22.92C 235.817 22.92 235.217 22.8 234.71 22.56L 234.71 20.14C 235.11 20.2867 235.504 20.36 235.89 20.36C 236.29 20.36 236.624 20.2467 236.89 20.02C 237.17 19.7933 237.39 19.42 237.55 18.9L 233.49 8.88L 236.89 8.88L 239.03 15.52L 241.17 8.88L 244.37 8.88ZM 14.2117 32.6C 15.6917 32.6 16.8251 33.0533 17.6117 33.96C 18.3984 34.8667 18.7917 36.18 18.7917 37.9C 18.7784 41.5 17.0051 43.3 13.4717 43.3C 10.3784 43.3 8.83172 42.42 8.83172 40.66L 8.83172 29.14L 11.7517 29.14L 11.7517 33.24C 12.1117 33.0267 12.5184 32.8667 12.9717 32.76C 13.4384 32.6533 13.8517 32.6 14.2117 32.6ZM 13.4317 40.82C 15.0184 40.82 15.8117 39.9067 15.8117 38.08C 15.8117 36.0133 15.0384 34.98 13.4917 34.98C 13.2117 34.98 12.9117 35.02 12.5917 35.1C 12.2717 35.1667 11.9917 35.2667 11.7517 35.4L 11.7517 39.88C 11.7517 40.5067 12.3117 40.82 13.4317 40.82ZM 25.3234 32.54C 28.4834 32.54 30.0434 34.6 30.0034 38.72L 23.3234 38.72C 23.5768 40.12 24.5168 40.82 26.1434 40.82C 26.6368 40.82 27.1168 40.7533 27.5834 40.62C 28.0634 40.4733 28.5701 40.2867 29.1034 40.06L 29.1034 42.62C 28.0101 43.0733 26.7834 43.3 25.4234 43.3C 24.3968 43.3 23.4968 43.0933 22.7234 42.68C 21.9501 42.2533 21.3501 41.6467 20.9234 40.86C 20.4968 40.0733 20.2834 39.1467 20.2834 38.08C 20.2834 36.32 20.7168 34.96 21.5834 34C 22.4634 33.0267 23.7101 32.54 25.3234 32.54ZM 25.2034 34.82C 24.1368 34.82 23.5034 35.4867 23.3034 36.82L 27.0434 36.82C 26.9501 36.1 26.7568 35.5867 26.4634 35.28C 26.1834 34.9733 25.7634 34.82 25.2034 34.82ZM 36.8139 43.26C 35.8272 43.26 34.9339 43.0667 34.1339 42.68C 33.3339 42.2933 32.6939 41.7133 32.2139 40.94C 31.7472 40.1533 31.5139 39.2 31.5139 38.08C 31.5139 36.28 31.9939 34.92 32.9539 34C 33.9139 33.0667 35.1939 32.6 36.7939 32.6C 37.3539 32.6 37.9206 32.66 38.4939 32.78C 39.0672 32.8867 39.5739 33.04 40.0139 33.24L 40.0139 35.8C 39.4672 35.56 38.9806 35.38 38.5539 35.26C 38.1272 35.1267 37.7006 35.06 37.2739 35.06C 36.3939 35.06 35.7072 35.28 35.2139 35.72C 34.7206 36.1467 34.4739 36.82 34.4739 37.74C 34.4739 38.7667 34.7006 39.5267 35.1539 40.02C 35.6206 40.5133 36.3739 40.76 37.4139 40.76C 38.2006 40.76 39.0739 40.4933 40.0339 39.96L 40.0339 42.5C 39.5539 42.7533 39.0539 42.94 38.5339 43.06C 38.0272 43.1933 37.4539 43.26 36.8139 43.26ZM 46.533 32.58C 47.6396 32.58 48.6463 32.84 49.553 33.36C 50.4596 33.8667 50.913 34.7867 50.913 36.12L 50.893 40.9C 50.8796 41.74 50.4596 42.3533 49.633 42.74C 48.8063 43.1133 47.5996 43.3 46.013 43.3C 43.053 43.3 41.573 42.1467 41.573 39.84C 41.573 38.8667 41.873 38.1067 42.473 37.56C 43.0863 37.0133 43.993 36.74 45.193 36.74C 45.6863 36.74 46.1796 36.8067 46.673 36.94C 47.1663 37.06 47.593 37.22 47.953 37.42L 47.953 36.78C 47.953 35.62 47.2063 35.04 45.713 35.04C 45.1396 35.04 44.5463 35.1467 43.933 35.36C 43.333 35.56 42.853 35.8067 42.493 36.1L 42.493 33.46C 42.853 33.22 43.3996 33.0133 44.133 32.84C 44.8796 32.6667 45.6796 32.58 46.533 32.58ZM 46.113 41.2C 46.8063 41.2 47.2863 41.1533 47.553 41.06C 47.8196 40.9667 47.953 40.78 47.953 40.5L 47.953 38.94C 47.4863 38.78 46.973 38.7 46.413 38.7C 45.7596 38.7 45.2796 38.8 44.973 39C 44.6796 39.1867 44.533 39.4867 44.533 39.9C 44.533 40.2867 44.6863 40.6 44.993 40.84C 45.313 41.08 45.6863 41.2 46.113 41.2ZM 58.3183 43.3C 56.8383 43.3 55.6716 42.9533 54.8183 42.26C 53.9783 41.5667 53.5583 40.5267 53.5583 39.14L 53.5583 32.88L 56.5383 32.88L 56.5383 38.9C 56.5383 39.54 56.6783 40.02 56.9583 40.34C 57.2516 40.6467 57.7116 40.8 58.3383 40.8C 58.9649 40.8 59.4183 40.6467 59.6983 40.34C 59.9916 40.02 60.1383 39.54 60.1383 38.9L 60.1383 32.88L 62.9383 32.88L 62.9383 39.14C 62.9383 40.54 62.5316 41.5867 61.7183 42.28C 60.9183 42.96 59.7849 43.3 58.3183 43.3ZM 68.57 43.3C 67.93 43.3 67.37 43.2333 66.89 43.1C 66.41 42.98 65.8767 42.8 65.29 42.56L 65.29 39.94C 66.37 40.7533 67.5033 41.16 68.69 41.16C 69.1433 41.16 69.47 41.0867 69.67 40.94C 69.8833 40.78 69.99 40.5667 69.99 40.3C 69.99 39.9933 69.8233 39.7667 69.49 39.62C 69.1567 39.4733 68.6233 39.3133 67.89 39.14C 67.1167 38.98 66.4767 38.66 65.97 38.18C 65.4767 37.7 65.23 37 65.23 36.08C 65.23 35.2933 65.43 34.6467 65.83 34.14C 66.23 33.6333 66.73 33.2667 67.33 33.04C 67.9433 32.8 68.5767 32.68 69.23 32.68C 70.03 32.68 70.6767 32.7533 71.17 32.9C 71.6767 33.0333 72.17 33.2467 72.65 33.54L 72.65 35.88C 71.97 35.5067 71.4433 35.24 71.07 35.08C 70.6967 34.92 70.2633 34.84 69.77 34.84C 69.2767 34.84 68.91 34.92 68.67 35.08C 68.43 35.2267 68.31 35.44 68.31 35.72C 68.31 36.0533 68.4433 36.3 68.71 36.46C 68.9767 36.6067 69.4033 36.76 69.99 36.92C 70.6567 37.0933 71.1833 37.2667 71.57 37.44C 71.9567 37.6 72.3033 37.8867 72.61 38.3C 72.9167 38.7 73.07 39.2667 73.07 40C 73.0433 41.1467 72.61 41.9867 71.77 42.52C 70.93 43.04 69.8633 43.3 68.57 43.3ZM 79.6984 32.54C 82.8584 32.54 84.4184 34.6 84.3784 38.72L 77.6984 38.72C 77.9518 40.12 78.8918 40.82 80.5184 40.82C 81.0118 40.82 81.4918 40.7533 81.9584 40.62C 82.4384 40.4733 82.9451 40.2867 83.4784 40.06L 83.4784 42.62C 82.3851 43.0733 81.1584 43.3 79.7984 43.3C 78.7718 43.3 77.8718 43.0933 77.0984 42.68C 76.3251 42.2533 75.7251 41.6467 75.2984 40.86C 74.8718 40.0733 74.6584 39.1467 74.6584 38.08C 74.6584 36.32 75.0918 34.96 75.9584 34C 76.8384 33.0267 78.0851 32.54 79.6984 32.54ZM 79.5784 34.82C 78.5118 34.82 77.8784 35.4867 77.6784 36.82L 81.4184 36.82C 81.3251 36.1 81.1318 35.5867 80.8384 35.28C 80.5584 34.9733 80.1384 34.82 79.5784 34.82ZM 102.036 32.88L 98.0563 43.16C 97.0829 45.6667 95.7896 46.92 94.1762 46.92C 93.4829 46.92 92.8829 46.8 92.3763 46.56L 92.3763 44.14C 92.7762 44.2867 93.1696 44.36 93.5562 44.36C 93.9562 44.36 94.2896 44.2467 94.5562 44.02C 94.8363 43.7933 95.0563 43.42 95.2163 42.9L 91.1563 32.88L 94.5562 32.88L 96.6962 39.52L 98.8363 32.88L 102.036 32.88ZM 107.747 43.3C 106.041 43.3 104.761 42.8467 103.907 41.94C 103.054 41.0333 102.627 39.6867 102.627 37.9C 102.627 36.0333 103.047 34.6733 103.887 33.82C 104.741 32.9667 106.027 32.54 107.747 32.54C 109.467 32.54 110.761 32.98 111.627 33.86C 112.494 34.7267 112.927 36.0733 112.927 37.9C 112.927 39.66 112.481 41 111.587 41.92C 110.694 42.84 109.414 43.3 107.747 43.3ZM 107.747 40.92C 108.481 40.92 109.034 40.6667 109.407 40.16C 109.781 39.64 109.967 38.8867 109.967 37.9C 109.967 36.82 109.781 36.0533 109.407 35.6C 109.047 35.1333 108.494 34.9 107.747 34.9C 106.974 34.9 106.414 35.1333 106.067 35.6C 105.734 36.0533 105.567 36.82 105.567 37.9C 105.567 38.9267 105.741 39.6867 106.087 40.18C 106.447 40.6733 107.001 40.92 107.747 40.92ZM 119.744 43.3C 118.264 43.3 117.097 42.9533 116.244 42.26C 115.404 41.5667 114.984 40.5267 114.984 39.14L 114.984 32.88L 117.964 32.88L 117.964 38.9C 117.964 39.54 118.104 40.02 118.384 40.34C 118.677 40.6467 119.137 40.8 119.764 40.8C 120.391 40.8 120.844 40.6467 121.124 40.34C 121.417 40.02 121.564 39.54 121.564 38.9L 121.564 32.88L 124.364 32.88L 124.364 39.14C 124.364 40.54 123.957 41.5867 123.144 42.28C 122.344 42.96 121.211 43.3 119.744 43.3ZM 142.063 28.72L 142.063 40.36C 142.063 40.9867 141.843 41.52 141.403 41.96C 140.963 42.4 140.383 42.7333 139.663 42.96C 138.943 43.1867 138.176 43.3 137.363 43.3C 135.643 43.3 134.31 42.8933 133.363 42.08C 132.43 41.2667 131.963 39.86 131.963 37.86C 131.963 36.18 132.37 34.88 133.183 33.96C 134.01 33.0267 135.216 32.56 136.803 32.56C 137.75 32.56 138.516 32.7333 139.103 33.08L 139.103 28.72L 142.063 28.72ZM 139.103 35.38C 138.57 35.1 138.05 34.96 137.543 34.96C 136.65 34.96 135.996 35.1867 135.583 35.64C 135.17 36.0933 134.963 36.86 134.963 37.94C 134.963 38.8733 135.156 39.5867 135.543 40.08C 135.93 40.56 136.576 40.8 137.483 40.8C 137.976 40.8 138.37 40.7333 138.663 40.6C 138.956 40.4667 139.103 40.28 139.103 40.04L 139.103 35.38ZM 149.271 43.3C 147.564 43.3 146.284 42.8467 145.431 41.94C 144.577 41.0333 144.151 39.6867 144.151 37.9C 144.151 36.0333 144.571 34.6733 145.411 33.82C 146.264 32.9667 147.551 32.54 149.271 32.54C 150.991 32.54 152.284 32.98 153.151 33.86C 154.017 34.7267 154.451 36.0733 154.451 37.9C 154.451 39.66 154.004 41 153.111 41.92C 152.217 42.84 150.937 43.3 149.271 43.3ZM 149.271 40.92C 150.004 40.92 150.557 40.6667 150.931 40.16C 151.304 39.64 151.491 38.8867 151.491 37.9C 151.491 36.82 151.304 36.0533 150.931 35.6C 150.571 35.1333 150.017 34.9 149.271 34.9C 148.497 34.9 147.937 35.1333 147.591 35.6C 147.257 36.0533 147.091 36.82 147.091 37.9C 147.091 38.9267 147.264 39.6867 147.611 40.18C 147.971 40.6733 148.524 40.92 149.271 40.92ZM 156.507 33.74C 157.027 33.46 157.821 33.2 158.888 32.96C 159.954 32.72 160.907 32.6 161.748 32.6C 163.174 32.6 164.247 32.88 164.967 33.44C 165.687 34 166.047 34.92 166.047 36.2L 166.047 43L 163.067 43L 163.067 36.8C 163.067 35.64 162.414 35.06 161.108 35.06C 160.814 35.06 160.514 35.0933 160.207 35.16C 159.901 35.2267 159.661 35.3067 159.488 35.4L 159.488 43L 156.507 43L 156.507 33.74ZM 168.995 29.48L 171.235 29.48L 170.895 33.5L 169.355 33.5L 168.995 29.48ZM 178.323 43.4C 177.163 43.4 176.29 43.1267 175.703 42.58C 175.13 42.0333 174.843 41.2467 174.843 40.22L 174.843 35.16L 173.363 35.16L 173.363 32.88L 174.843 32.88L 174.843 30.1L 177.963 30.1L 177.963 32.88L 180.183 32.88L 180.183 35.16L 177.963 35.16L 177.963 39.84C 177.963 40.1867 178.037 40.4467 178.183 40.62C 178.33 40.78 178.577 40.86 178.923 40.86C 179.137 40.86 179.357 40.8267 179.583 40.76C 179.81 40.68 180.01 40.5733 180.183 40.44L 180.183 42.98C 179.677 43.26 179.057 43.4 178.323 43.4ZM 194.112 43L 190.952 38.82L 190.932 43L 187.972 43L 187.972 29.06L 190.972 29.06L 190.952 36.62L 194.012 32.88L 197.632 32.88L 193.452 37.28L 197.892 43L 194.112 43ZM 199.73 33.74C 200.25 33.46 201.043 33.2 202.11 32.96C 203.177 32.72 204.13 32.6 204.97 32.6C 206.397 32.6 207.47 32.88 208.19 33.44C 208.91 34 209.27 34.92 209.27 36.2L 209.27 43L 206.29 43L 206.29 36.8C 206.29 35.64 205.637 35.06 204.33 35.06C 204.037 35.06 203.737 35.0933 203.43 35.16C 203.123 35.2267 202.883 35.3067 202.71 35.4L 202.71 43L 199.73 43L 199.73 33.74ZM 216.478 43.3C 214.771 43.3 213.491 42.8467 212.638 41.94C 211.784 41.0333 211.358 39.6867 211.358 37.9C 211.358 36.0333 211.778 34.6733 212.618 33.82C 213.471 32.9667 214.758 32.54 216.478 32.54C 218.198 32.54 219.491 32.98 220.358 33.86C 221.224 34.7267 221.658 36.0733 221.658 37.9C 221.658 39.66 221.211 41 220.318 41.92C 219.424 42.84 218.144 43.3 216.478 43.3ZM 216.478 40.92C 217.211 40.92 217.764 40.6667 218.138 40.16C 218.511 39.64 218.698 38.8867 218.698 37.9C 218.698 36.82 218.511 36.0533 218.138 35.6C 217.778 35.1333 217.224 34.9 216.478 34.9C 215.704 34.9 215.144 35.1333 214.798 35.6C 214.464 36.0533 214.298 36.82 214.298 37.9C 214.298 38.9267 214.471 39.6867 214.818 40.18C 215.178 40.6733 215.731 40.92 216.478 40.92ZM 237.79 32.88L 234.43 43L 231.73 43L 229.99 37.32L 228.33 43L 225.63 43L 222.25 32.88L 225.45 32.88L 227.23 39.32L 228.91 32.88L 231.11 32.88L 232.85 39.48L 234.65 32.88L 237.79 32.88ZM 249.7 43.3C 247.994 43.3 246.714 42.8467 245.86 41.94C 245.007 41.0333 244.58 39.6867 244.58 37.9C 244.58 36.0333 245 34.6733 245.84 33.82C 246.694 32.9667 247.98 32.54 249.7 32.54C 251.42 32.54 252.714 32.98 253.58 33.86C 254.447 34.7267 254.88 36.0733 254.88 37.9C 254.88 39.66 254.434 41 253.54 41.92C 252.647 42.84 251.367 43.3 249.7 43.3ZM 249.7 40.92C 250.434 40.92 250.987 40.6667 251.36 40.16C 251.734 39.64 251.92 38.8867 251.92 37.9C 251.92 36.82 251.734 36.0533 251.36 35.6C 251 35.1333 250.447 34.9 249.7 34.9C 248.927 34.9 248.367 35.1333 248.02 35.6C 247.687 36.0533 247.52 36.82 247.52 37.9C 247.52 38.9267 247.694 39.6867 248.04 40.18C 248.4 40.6733 248.954 40.92 249.7 40.92ZM 257.697 35.16L 256.217 35.16L 256.217 32.88L 257.717 32.88L 257.717 32.64C 257.731 31.12 258.077 30.0667 258.757 29.48C 259.451 28.88 260.391 28.58 261.577 28.58C 261.791 28.58 262.024 28.6 262.277 28.64C 262.531 28.68 262.737 28.7267 262.897 28.78L 262.897 31.4C 262.751 31.2533 262.604 31.1467 262.457 31.08C 262.311 31 262.124 30.96 261.897 30.96C 261.524 30.96 261.231 31.06 261.017 31.26C 260.804 31.46 260.697 31.8 260.697 32.28L 260.697 32.88L 262.897 32.88L 262.897 35.16L 260.677 35.16L 260.677 43L 257.697 43L 257.697 35.16ZM 48.0987 67.4C 46.9387 67.4 46.0653 67.1267 45.4787 66.58C 44.9053 66.0333 44.6187 65.2467 44.6187 64.22L 44.6187 59.16L 43.1387 59.16L 43.1387 56.88L 44.6187 56.88L 44.6187 54.1L 47.7387 54.1L 47.7387 56.88L 49.9587 56.88L 49.9587 59.16L 47.7387 59.16L 47.7387 63.84C 47.7387 64.1867 47.812 64.4467 47.9587 64.62C 48.1053 64.78 48.352 64.86 48.6987 64.86C 48.912 64.86 49.132 64.8267 49.3587 64.76C 49.5853 64.68 49.7853 64.5733 49.9587 64.44L 49.9587 66.98C 49.452 67.26 48.832 67.4 48.0987 67.4ZM 56.7804 67.3C 55.0737 67.3 53.7937 66.8467 52.9404 65.94C 52.0871 65.0333 51.6604 63.6867 51.6604 61.9C 51.6604 60.0333 52.0804 58.6733 52.9204 57.82C 53.7737 56.9667 55.0604 56.54 56.7804 56.54C 58.5004 56.54 59.7937 56.98 60.6604 57.86C 61.5271 58.7267 61.9604 60.0733 61.9604 61.9C 61.9604 63.66 61.5137 65 60.6204 65.92C 59.7271 66.84 58.4471 67.3 56.7804 67.3ZM 56.7804 64.92C 57.5137 64.92 58.0671 64.6667 58.4404 64.16C 58.8137 63.64 59.0004 62.8867 59.0004 61.9C 59.0004 60.82 58.8137 60.0533 58.4404 59.6C 58.0804 59.1333 57.5271 58.9 56.7804 58.9C 56.0071 58.9 55.4471 59.1333 55.1004 59.6C 54.7671 60.0533 54.6004 60.82 54.6004 61.9C 54.6004 62.9267 54.7737 63.6867 55.1204 64.18C 55.4804 64.6733 56.0337 64.92 56.7804 64.92ZM 69.5446 53.2L 72.6246 53.2L 72.6246 55.5L 69.5446 55.5L 69.5446 53.2ZM 69.6046 57.02L 72.5846 57.02L 72.6046 67L 69.6046 67L 69.6046 57.02ZM 75.2673 57.74C 75.7873 57.46 76.5806 57.2 77.6473 56.96C 78.7139 56.72 79.6673 56.6 80.5073 56.6C 81.9339 56.6 83.0073 56.88 83.7273 57.44C 84.4473 58 84.8073 58.92 84.8073 60.2L 84.8073 67L 81.8273 67L 81.8273 60.8C 81.8273 59.64 81.1739 59.06 79.8673 59.06C 79.5739 59.06 79.2739 59.0933 78.9673 59.16C 78.6606 59.2267 78.4206 59.3067 78.2473 59.4L 78.2473 67L 75.2673 67L 75.2673 57.74ZM 97.6251 56.88L 93.4051 67L 90.4251 67L 86.2051 56.88L 89.4251 56.88L 92.1051 63.72L 94.4851 56.88L 97.6251 56.88ZM 103.282 56.54C 106.442 56.54 108.002 58.6 107.962 62.72L 101.282 62.72C 101.536 64.12 102.476 64.82 104.102 64.82C 104.596 64.82 105.076 64.7533 105.542 64.62C 106.022 64.4733 106.529 64.2867 107.062 64.06L 107.062 66.62C 105.969 67.0733 104.742 67.3 103.382 67.3C 102.356 67.3 101.456 67.0933 100.682 66.68C 99.9091 66.2533 99.3091 65.6467 98.8824 64.86C 98.4558 64.0733 98.2424 63.1467 98.2424 62.08C 98.2424 60.32 98.6758 58.96 99.5424 58C 100.422 57.0267 101.669 56.54 103.282 56.54ZM 103.162 58.82C 102.096 58.82 101.462 59.4867 101.262 60.82L 105.002 60.82C 104.909 60.1 104.716 59.5867 104.422 59.28C 104.142 58.9733 103.722 58.82 103.162 58.82ZM 113.033 67.3C 112.393 67.3 111.833 67.2333 111.353 67.1C 110.873 66.98 110.34 66.8 109.753 66.56L 109.753 63.94C 110.833 64.7533 111.966 65.16 113.153 65.16C 113.606 65.16 113.933 65.0867 114.133 64.94C 114.346 64.78 114.453 64.5667 114.453 64.3C 114.453 63.9933 114.286 63.7667 113.953 63.62C 113.62 63.4733 113.086 63.3133 112.353 63.14C 111.58 62.98 110.94 62.66 110.433 62.18C 109.94 61.7 109.693 61 109.693 60.08C 109.693 59.2933 109.893 58.6467 110.293 58.14C 110.693 57.6333 111.193 57.2667 111.793 57.04C 112.406 56.8 113.04 56.68 113.693 56.68C 114.493 56.68 115.14 56.7533 115.633 56.9C 116.14 57.0333 116.633 57.2467 117.113 57.54L 117.113 59.88C 116.433 59.5067 115.906 59.24 115.533 59.08C 115.16 58.92 114.726 58.84 114.233 58.84C 113.74 58.84 113.373 58.92 113.133 59.08C 112.893 59.2267 112.773 59.44 112.773 59.72C 112.773 60.0533 112.906 60.3 113.173 60.46C 113.44 60.6067 113.866 60.76 114.453 60.92C 115.12 61.0933 115.646 61.2667 116.033 61.44C 116.42 61.6 116.766 61.8867 117.073 62.3C 117.38 62.7 117.533 63.2667 117.533 64C 117.506 65.1467 117.073 65.9867 116.233 66.52C 115.393 67.04 114.326 67.3 113.033 67.3ZM 123.821 67.4C 122.661 67.4 121.788 67.1267 121.201 66.58C 120.628 66.0333 120.341 65.2467 120.341 64.22L 120.341 59.16L 118.861 59.16L 118.861 56.88L 120.341 56.88L 120.341 54.1L 123.461 54.1L 123.461 56.88L 125.681 56.88L 125.681 59.16L 123.461 59.16L 123.461 63.84C 123.461 64.1867 123.535 64.4467 123.681 64.62C 123.828 64.78 124.075 64.86 124.421 64.86C 124.635 64.86 124.855 64.8267 125.081 64.76C 125.308 64.68 125.508 64.5733 125.681 64.44L 125.681 66.98C 125.175 67.26 124.555 67.4 123.821 67.4ZM 133.47 53.2L 136.55 53.2L 136.55 55.5L 133.47 55.5L 133.47 53.2ZM 133.53 57.02L 136.51 57.02L 136.53 67L 133.53 67L 133.53 57.02ZM 139.193 57.74C 139.713 57.46 140.506 57.2 141.573 56.96C 142.64 56.72 143.593 56.6 144.433 56.6C 145.86 56.6 146.933 56.88 147.653 57.44C 148.373 58 148.733 58.92 148.733 60.2L 148.733 67L 145.753 67L 145.753 60.8C 145.753 59.64 145.1 59.06 143.793 59.06C 143.5 59.06 143.2 59.0933 142.893 59.16C 142.586 59.2267 142.346 59.3067 142.173 59.4L 142.173 67L 139.193 67L 139.193 57.74ZM 161.648 67.26C 160.661 67.26 159.768 67.0667 158.968 66.68C 158.168 66.2933 157.528 65.7133 157.048 64.94C 156.581 64.1533 156.348 63.2 156.348 62.08C 156.348 60.28 156.828 58.92 157.788 58C 158.748 57.0667 160.028 56.6 161.628 56.6C 162.188 56.6 162.755 56.66 163.328 56.78C 163.901 56.8867 164.408 57.04 164.848 57.24L 164.848 59.8C 164.301 59.56 163.815 59.38 163.388 59.26C 162.961 59.1267 162.535 59.06 162.108 59.06C 161.228 59.06 160.541 59.28 160.048 59.72C 159.555 60.1467 159.308 60.82 159.308 61.74C 159.308 62.7667 159.535 63.5267 159.988 64.02C 160.455 64.5133 161.208 64.76 162.248 64.76C 163.035 64.76 163.908 64.4933 164.868 63.96L 164.868 66.5C 164.388 66.7533 163.888 66.94 163.368 67.06C 162.861 67.1933 162.288 67.26 161.648 67.26ZM 166.947 57.94C 167.147 57.7667 167.494 57.5733 167.987 57.36C 168.494 57.1467 169.054 56.9667 169.667 56.82C 170.294 56.66 170.894 56.58 171.467 56.58C 172.574 56.58 173.34 56.7467 173.767 57.08L 173.767 59.26C 173.234 59.14 172.467 59.08 171.467 59.08C 170.84 59.08 170.327 59.1133 169.927 59.18L 169.927 67L 166.947 67L 166.947 57.94ZM 185.562 56.88L 181.582 67.16C 180.608 69.6667 179.315 70.92 177.702 70.92C 177.008 70.92 176.408 70.8 175.902 70.56L 175.902 68.14C 176.302 68.2867 176.695 68.36 177.082 68.36C 177.482 68.36 177.815 68.2467 178.082 68.02C 178.362 67.7933 178.582 67.42 178.742 66.9L 174.682 56.88L 178.082 56.88L 180.222 63.52L 182.362 56.88L 185.562 56.88ZM 192.177 56.54C 193.804 56.54 195.064 56.9667 195.957 57.82C 196.85 58.66 197.297 60.0667 197.297 62.04C 197.297 63.6267 196.897 64.9 196.097 65.86C 195.297 66.82 194.204 67.3 192.817 67.3C 191.804 67.3 190.957 67.12 190.277 66.76L 190.277 70.62L 187.357 70.62L 187.357 59.02C 187.357 58.2067 187.804 57.5933 188.697 57.18C 189.604 56.7667 190.764 56.5533 192.177 56.54ZM 191.937 64.9C 192.75 64.9 193.35 64.6733 193.737 64.22C 194.124 63.7667 194.317 63.0067 194.317 61.94C 194.317 60.98 194.144 60.26 193.797 59.78C 193.464 59.2867 192.884 59.04 192.057 59.04C 190.87 59.04 190.277 59.2667 190.277 59.72L 190.277 64.48C 190.517 64.6267 190.784 64.7333 191.077 64.8C 191.37 64.8667 191.657 64.9 191.937 64.9ZM 203.509 67.4C 202.349 67.4 201.475 67.1267 200.889 66.58C 200.315 66.0333 200.029 65.2467 200.029 64.22L 200.029 59.16L 198.549 59.16L 198.549 56.88L 200.029 56.88L 200.029 54.1L 203.149 54.1L 203.149 56.88L 205.369 56.88L 205.369 59.16L 203.149 59.16L 203.149 63.84C 203.149 64.1867 203.222 64.4467 203.369 64.62C 203.515 64.78 203.762 64.86 204.109 64.86C 204.322 64.86 204.542 64.8267 204.769 64.76C 204.995 64.68 205.195 64.5733 205.369 64.44L 205.369 66.98C 204.862 67.26 204.242 67.4 203.509 67.4ZM 212.191 67.3C 210.484 67.3 209.204 66.8467 208.351 65.94C 207.497 65.0333 207.071 63.6867 207.071 61.9C 207.071 60.0333 207.491 58.6733 208.331 57.82C 209.184 56.9667 210.471 56.54 212.191 56.54C 213.911 56.54 215.204 56.98 216.071 57.86C 216.937 58.7267 217.371 60.0733 217.371 61.9C 217.371 63.66 216.924 65 216.031 65.92C 215.137 66.84 213.857 67.3 212.191 67.3ZM 212.191 64.92C 212.924 64.92 213.477 64.6667 213.851 64.16C 214.224 63.64 214.411 62.8867 214.411 61.9C 214.411 60.82 214.224 60.0533 213.851 59.6C 213.491 59.1333 212.937 58.9 212.191 58.9C 211.417 58.9 210.857 59.1333 210.511 59.6C 210.177 60.0533 210.011 60.82 210.011 61.9C 210.011 62.9267 210.184 63.6867 210.531 64.18C 210.891 64.6733 211.444 64.92 212.191 64.92ZM 221.707 62.82C 221.707 62.1533 221.794 61.5867 221.967 61.12C 222.154 60.6533 222.367 60.28 222.607 60C 222.861 59.7067 223.181 59.3867 223.567 59.04C 223.954 58.6933 224.234 58.4067 224.407 58.18C 224.581 57.94 224.667 57.6533 224.667 57.32C 224.667 56.7067 224.481 56.28 224.107 56.04C 223.747 55.8 223.247 55.68 222.607 55.68C 222.087 55.68 221.567 55.7733 221.047 55.96C 220.527 56.1333 220.081 56.36 219.707 56.64L 219.707 54.38C 220.014 54.1667 220.467 53.9667 221.067 53.78C 221.667 53.5933 222.294 53.5 222.947 53.5C 224.214 53.5 225.207 53.8467 225.927 54.54C 226.661 55.22 227.027 56.1467 227.027 57.32C 227.027 57.7733 226.954 58.1733 226.807 58.52C 226.674 58.8533 226.507 59.1333 226.307 59.36C 226.121 59.5867 225.861 59.8533 225.527 60.16C 225.047 60.5867 224.681 60.9933 224.427 61.38C 224.187 61.7667 224.067 62.2733 224.067 62.9L 224.067 63.3L 221.707 63.3L 221.707 62.82ZM 221.567 64.72L 224.207 64.72L 224.207 67L 221.567 67L 221.567 64.72ZM 9.85945 77.66L 13.0995 77.66L 13.0995 88.46L 18.8995 88.46L 18.8995 91L 9.85945 91L 9.85945 77.66ZM 25.3332 80.54C 28.4932 80.54 30.0532 82.6 30.0132 86.72L 23.3332 86.72C 23.5865 88.12 24.5265 88.82 26.1532 88.82C 26.6465 88.82 27.1265 88.7533 27.5932 88.62C 28.0732 88.4733 28.5799 88.2867 29.1132 88.06L 29.1132 90.62C 28.0199 91.0733 26.7932 91.3 25.4332 91.3C 24.4065 91.3 23.5065 91.0933 22.7332 90.68C 21.9599 90.2533 21.3599 89.6467 20.9332 88.86C 20.5065 88.0733 20.2932 87.1467 20.2932 86.08C 20.2932 84.32 20.7265 82.96 21.5932 82C 22.4732 81.0267 23.7199 80.54 25.3332 80.54ZM 25.2132 82.82C 24.1465 82.82 23.5132 83.4867 23.3132 84.82L 27.0532 84.82C 26.9599 84.1 26.7665 83.5867 26.4732 83.28C 26.1932 82.9733 25.7732 82.82 25.2132 82.82ZM 36.2237 91.4C 35.0637 91.4 34.1903 91.1267 33.6037 90.58C 33.0303 90.0333 32.7437 89.2467 32.7437 88.22L 32.7437 83.16L 31.2637 83.16L 31.2637 80.88L 32.7437 80.88L 32.7437 78.1L 35.8637 78.1L 35.8637 80.88L 38.0837 80.88L 38.0837 83.16L 35.8637 83.16L 35.8637 87.84C 35.8637 88.1867 35.937 88.4467 36.0837 88.62C 36.2303 88.78 36.477 88.86 36.8237 88.86C 37.037 88.86 37.257 88.8267 37.4837 88.76C 37.7103 88.68 37.9103 88.5733 38.0837 88.44L 38.0837 90.98C 37.577 91.26 36.957 91.4 36.2237 91.4ZM 50.0127 91.4C 48.8527 91.4 47.9794 91.1267 47.3927 90.58C 46.8194 90.0333 46.5327 89.2467 46.5327 88.22L 46.5327 83.16L 45.0527 83.16L 45.0527 80.88L 46.5327 80.88L 46.5327 78.1L 49.6527 78.1L 49.6527 80.88L 51.8727 80.88L 51.8727 83.16L 49.6527 83.16L 49.6527 87.84C 49.6527 88.1867 49.7261 88.4467 49.8727 88.62C 50.0194 88.78 50.2661 88.86 50.6127 88.86C 50.8261 88.86 51.0461 88.8267 51.2727 88.76C 51.4994 88.68 51.6994 88.5733 51.8727 88.44L 51.8727 90.98C 51.3661 91.26 50.7461 91.4 50.0127 91.4ZM 59.9945 80.6C 61.1678 80.6 62.0811 80.8933 62.7345 81.48C 63.3878 82.0667 63.7145 83.0267 63.7145 84.36L 63.7145 91L 60.7345 91L 60.7345 84.98C 60.7345 83.7 60.0945 83.06 58.8145 83.06C 58.5078 83.06 58.1945 83.1067 57.8745 83.2C 57.5545 83.2933 57.3078 83.4067 57.1345 83.54L 57.0945 91L 54.1345 91L 54.1345 76.88L 57.1345 76.88L 57.1345 81.34C 58.0545 80.8467 59.0078 80.6 59.9945 80.6ZM 70.841 80.54C 74.001 80.54 75.561 82.6 75.521 86.72L 68.841 86.72C 69.0943 88.12 70.0343 88.82 71.661 88.82C 72.1543 88.82 72.6343 88.7533 73.101 88.62C 73.581 88.4733 74.0877 88.2867 74.621 88.06L 74.621 90.62C 73.5277 91.0733 72.301 91.3 70.941 91.3C 69.9143 91.3 69.0143 91.0933 68.241 90.68C 67.4677 90.2533 66.8677 89.6467 66.441 88.86C 66.0143 88.0733 65.801 87.1467 65.801 86.08C 65.801 84.32 66.2343 82.96 67.101 82C 67.981 81.0267 69.2277 80.54 70.841 80.54ZM 70.721 82.82C 69.6543 82.82 69.021 83.4867 68.821 84.82L 72.561 84.82C 72.4677 84.1 72.2743 83.5867 71.981 83.28C 71.701 82.9733 71.281 82.82 70.721 82.82ZM 87.8588 91.26C 86.8722 91.26 85.9788 91.0667 85.1788 90.68C 84.3788 90.2933 83.7388 89.7133 83.2588 88.94C 82.7922 88.1533 82.5588 87.2 82.5588 86.08C 82.5588 84.28 83.0388 82.92 83.9988 82C 84.9588 81.0667 86.2388 80.6 87.8388 80.6C 88.3988 80.6 88.9655 80.66 89.5388 80.78C 90.1122 80.8867 90.6188 81.04 91.0588 81.24L 91.0588 83.8C 90.5122 83.56 90.0255 83.38 89.5988 83.26C 89.1722 83.1267 88.7455 83.06 88.3188 83.06C 87.4388 83.06 86.7522 83.28 86.2588 83.72C 85.7655 84.1467 85.5188 84.82 85.5188 85.74C 85.5188 86.7667 85.7455 87.5267 86.1988 88.02C 86.6655 88.5133 87.4188 88.76 88.4588 88.76C 89.2455 88.76 90.1188 88.4933 91.0788 87.96L 91.0788 90.5C 90.5988 90.7533 90.0988 90.94 89.5788 91.06C 89.0722 91.1933 88.4988 91.26 87.8588 91.26ZM 97.7179 91.3C 96.0112 91.3 94.7312 90.8467 93.8779 89.94C 93.0246 89.0333 92.5979 87.6867 92.5979 85.9C 92.5979 84.0333 93.0179 82.6733 93.8579 81.82C 94.7112 80.9667 95.9979 80.54 97.7179 80.54C 99.4379 80.54 100.731 80.98 101.598 81.86C 102.465 82.7267 102.898 84.0733 102.898 85.9C 102.898 87.66 102.451 89 101.558 89.92C 100.665 90.84 99.3846 91.3 97.7179 91.3ZM 97.7179 88.92C 98.4512 88.92 99.0046 88.6667 99.3779 88.16C 99.7512 87.64 99.9379 86.8867 99.9379 85.9C 99.9379 84.82 99.7512 84.0533 99.3779 83.6C 99.0179 83.1333 98.4646 82.9 97.7179 82.9C 96.9446 82.9 96.3846 83.1333 96.0379 83.6C 95.7046 84.0533 95.5379 84.82 95.5379 85.9C 95.5379 86.9267 95.7112 87.6867 96.0579 88.18C 96.4179 88.6733 96.9712 88.92 97.7179 88.92ZM 116.475 80.6C 117.888 80.6 118.935 80.88 119.615 81.44C 120.295 81.9867 120.635 82.9067 120.635 84.2L 120.635 91L 117.655 91L 117.655 84.8C 117.655 83.64 117.001 83.06 115.695 83.06C 115.148 83.06 114.688 83.1867 114.315 83.44C 114.341 83.76 114.355 84.0133 114.355 84.2L 114.355 91L 111.375 91L 111.375 84.8C 111.375 83.64 110.721 83.06 109.415 83.06C 108.881 83.06 108.388 83.1733 107.935 83.4L 107.935 91L 104.955 91L 104.955 81.74C 105.475 81.46 106.268 81.2 107.335 80.96C 108.401 80.72 109.355 80.6 110.195 80.6C 111.541 80.6 112.535 80.84 113.175 81.32C 113.695 81.0933 114.241 80.92 114.815 80.8C 115.401 80.6667 115.955 80.6 116.475 80.6ZM 134.795 80.6C 136.208 80.6 137.255 80.88 137.935 81.44C 138.615 81.9867 138.955 82.9067 138.955 84.2L 138.955 91L 135.975 91L 135.975 84.8C 135.975 83.64 135.322 83.06 134.015 83.06C 133.468 83.06 133.008 83.1867 132.635 83.44C 132.662 83.76 132.675 84.0133 132.675 84.2L 132.675 91L 129.695 91L 129.695 84.8C 129.695 83.64 129.042 83.06 127.735 83.06C 127.202 83.06 126.708 83.1733 126.255 83.4L 126.255 91L 123.275 91L 123.275 81.74C 123.795 81.46 124.588 81.2 125.655 80.96C 126.722 80.72 127.675 80.6 128.515 80.6C 129.862 80.6 130.855 80.84 131.495 81.32C 132.015 81.0933 132.562 80.92 133.135 80.8C 133.722 80.6667 134.275 80.6 134.795 80.6ZM 146.355 91.3C 144.875 91.3 143.709 90.9533 142.855 90.26C 142.015 89.5667 141.595 88.5267 141.595 87.14L 141.595 80.88L 144.575 80.88L 144.575 86.9C 144.575 87.54 144.715 88.02 144.995 88.34C 145.289 88.6467 145.749 88.8 146.375 88.8C 147.002 88.8 147.455 88.6467 147.735 88.34C 148.029 88.02 148.175 87.54 148.175 86.9L 148.175 80.88L 150.975 80.88L 150.975 87.14C 150.975 88.54 150.569 89.5867 149.755 90.28C 148.955 90.96 147.822 91.3 146.355 91.3ZM 153.607 81.74C 154.127 81.46 154.92 81.2 155.987 80.96C 157.054 80.72 158.007 80.6 158.847 80.6C 160.274 80.6 161.347 80.88 162.067 81.44C 162.787 82 163.147 82.92 163.147 84.2L 163.147 91L 160.167 91L 160.167 84.8C 160.167 83.64 159.514 83.06 158.207 83.06C 157.914 83.06 157.614 83.0933 157.307 83.16C 157 83.2267 156.76 83.3067 156.587 83.4L 156.587 91L 153.607 91L 153.607 81.74ZM 165.795 77.2L 168.875 77.2L 168.875 79.5L 165.795 79.5L 165.795 77.2ZM 165.855 81.02L 168.835 81.02L 168.855 91L 165.855 91L 165.855 81.02ZM 175.657 91.4C 174.497 91.4 173.624 91.1267 173.037 90.58C 172.464 90.0333 172.177 89.2467 172.177 88.22L 172.177 83.16L 170.697 83.16L 170.697 80.88L 172.177 80.88L 172.177 78.1L 175.297 78.1L 175.297 80.88L 177.517 80.88L 177.517 83.16L 175.297 83.16L 175.297 87.84C 175.297 88.1867 175.371 88.4467 175.517 88.62C 175.664 88.78 175.911 88.86 176.257 88.86C 176.471 88.86 176.691 88.8267 176.917 88.76C 177.144 88.68 177.344 88.5733 177.517 88.44L 177.517 90.98C 177.011 91.26 176.391 91.4 175.657 91.4ZM 189.839 80.88L 185.859 91.16C 184.886 93.6667 183.592 94.92 181.979 94.92C 181.286 94.92 180.686 94.8 180.179 94.56L 180.179 92.14C 180.579 92.2867 180.972 92.36 181.359 92.36C 181.759 92.36 182.092 92.2467 182.359 92.02C 182.639 91.7933 182.859 91.42 183.019 90.9L 178.959 80.88L 182.359 80.88L 184.499 87.52L 186.639 80.88L 189.839 80.88ZM 206.702 76.72L 206.702 88.36C 206.702 88.9867 206.482 89.52 206.042 89.96C 205.602 90.4 205.022 90.7333 204.302 90.96C 203.582 91.1867 202.815 91.3 202.002 91.3C 200.282 91.3 198.948 90.8933 198.002 90.08C 197.068 89.2667 196.602 87.86 196.602 85.86C 196.602 84.18 197.008 82.88 197.822 81.96C 198.648 81.0267 199.855 80.56 201.442 80.56C 202.388 80.56 203.155 80.7333 203.742 81.08L 203.742 76.72L 206.702 76.72ZM 203.742 83.38C 203.208 83.1 202.688 82.96 202.182 82.96C 201.288 82.96 200.635 83.1867 200.222 83.64C 199.808 84.0933 199.602 84.86 199.602 85.94C 199.602 86.8733 199.795 87.5867 200.182 88.08C 200.568 88.56 201.215 88.8 202.122 88.8C 202.615 88.8 203.008 88.7333 203.302 88.6C 203.595 88.4667 203.742 88.28 203.742 88.04L 203.742 83.38ZM 213.829 80.54C 216.989 80.54 218.549 82.6 218.509 86.72L 211.829 86.72C 212.083 88.12 213.023 88.82 214.649 88.82C 215.143 88.82 215.623 88.7533 216.089 88.62C 216.569 88.4733 217.076 88.2867 217.609 88.06L 217.609 90.62C 216.516 91.0733 215.289 91.3 213.929 91.3C 212.903 91.3 212.003 91.0933 211.229 90.68C 210.456 90.2533 209.856 89.6467 209.429 88.86C 209.003 88.0733 208.789 87.1467 208.789 86.08C 208.789 84.32 209.223 82.96 210.089 82C 210.969 81.0267 212.216 80.54 213.829 80.54ZM 213.709 82.82C 212.643 82.82 212.009 83.4867 211.809 84.82L 215.549 84.82C 215.456 84.1 215.263 83.5867 214.969 83.28C 214.689 82.9733 214.269 82.82 213.709 82.82ZM 225.32 91.26C 224.333 91.26 223.44 91.0667 222.64 90.68C 221.84 90.2933 221.2 89.7133 220.72 88.94C 220.253 88.1533 220.02 87.2 220.02 86.08C 220.02 84.28 220.5 82.92 221.46 82C 222.42 81.0667 223.7 80.6 225.3 80.6C 225.86 80.6 226.426 80.66 227 80.78C 227.573 80.8867 228.08 81.04 228.52 81.24L 228.52 83.8C 227.973 83.56 227.486 83.38 227.06 83.26C 226.633 83.1267 226.206 83.06 225.78 83.06C 224.9 83.06 224.213 83.28 223.72 83.72C 223.226 84.1467 222.98 84.82 222.98 85.74C 222.98 86.7667 223.206 87.5267 223.66 88.02C 224.126 88.5133 224.88 88.76 225.92 88.76C 226.706 88.76 227.58 88.4933 228.54 87.96L 228.54 90.5C 228.06 90.7533 227.56 90.94 227.04 91.06C 226.533 91.1933 225.96 91.26 225.32 91.26ZM 230.619 77.2L 233.699 77.2L 233.699 79.5L 230.619 79.5L 230.619 77.2ZM 230.679 81.02L 233.659 81.02L 233.679 91L 230.679 91L 230.679 81.02ZM 245.881 76.72L 245.881 88.36C 245.881 88.9867 245.661 89.52 245.221 89.96C 244.781 90.4 244.201 90.7333 243.481 90.96C 242.761 91.1867 241.995 91.3 241.181 91.3C 239.461 91.3 238.128 90.8933 237.181 90.08C 236.248 89.2667 235.781 87.86 235.781 85.86C 235.781 84.18 236.188 82.88 237.001 81.96C 237.828 81.0267 239.035 80.56 240.621 80.56C 241.568 80.56 242.335 80.7333 242.921 81.08L 242.921 76.72L 245.881 76.72ZM 242.921 83.38C 242.388 83.1 241.868 82.96 241.361 82.96C 240.468 82.96 239.815 83.1867 239.401 83.64C 238.988 84.0933 238.781 84.86 238.781 85.94C 238.781 86.8733 238.975 87.5867 239.361 88.08C 239.748 88.56 240.395 88.8 241.301 88.8C 241.795 88.8 242.188 88.7333 242.481 88.6C 242.775 88.4667 242.921 88.28 242.921 88.04L 242.921 83.38ZM 253.009 80.54C 256.169 80.54 257.729 82.6 257.689 86.72L 251.009 86.72C 251.262 88.12 252.202 88.82 253.829 88.82C 254.322 88.82 254.802 88.7533 255.269 88.62C 255.749 88.4733 256.256 88.2867 256.789 88.06L 256.789 90.62C 255.696 91.0733 254.469 91.3 253.109 91.3C 252.082 91.3 251.182 91.0933 250.409 90.68C 249.636 90.2533 249.036 89.6467 248.609 88.86C 248.182 88.0733 247.969 87.1467 247.969 86.08C 247.969 84.32 248.402 82.96 249.269 82C 250.149 81.0267 251.396 80.54 253.009 80.54ZM 252.889 82.82C 251.822 82.82 251.189 83.4867 250.989 84.82L 254.729 84.82C 254.636 84.1 254.442 83.5867 254.149 83.28C 253.869 82.9733 253.449 82.82 252.889 82.82ZM 262.759 91.3C 262.119 91.3 261.559 91.2333 261.079 91.1C 260.599 90.98 260.066 90.8 259.479 90.56L 259.479 87.94C 260.559 88.7533 261.693 89.16 262.879 89.16C 263.333 89.16 263.659 89.0867 263.859 88.94C 264.073 88.78 264.179 88.5667 264.179 88.3C 264.179 87.9933 264.013 87.7667 263.679 87.62C 263.346 87.4733 262.813 87.3133 262.079 87.14C 261.306 86.98 260.666 86.66 260.159 86.18C 259.666 85.7 259.419 85 259.419 84.08C 259.419 83.2933 259.619 82.6467 260.019 82.14C 260.419 81.6333 260.919 81.2667 261.519 81.04C 262.133 80.8 262.766 80.68 263.419 80.68C 264.219 80.68 264.866 80.7533 265.359 80.9C 265.866 81.0333 266.359 81.2467 266.839 81.54L 266.839 83.88C 266.159 83.5067 265.633 83.24 265.259 83.08C 264.886 82.92 264.453 82.84 263.959 82.84C 263.466 82.84 263.099 82.92 262.859 83.08C 262.619 83.2267 262.499 83.44 262.499 83.72C 262.499 84.0533 262.633 84.3 262.899 84.46C 263.166 84.6067 263.593 84.76 264.179 84.92C 264.846 85.0933 265.373 85.2667 265.759 85.44C 266.146 85.6 266.493 85.8867 266.799 86.3C 267.106 86.7 267.259 87.2667 267.259 88C 267.233 89.1467 266.799 89.9867 265.959 90.52C 265.119 91.04 264.053 91.3 262.759 91.3ZM 100.744 107.16L 99.2641 107.16L 99.2641 104.88L 100.764 104.88L 100.764 104.64C 100.777 103.12 101.124 102.067 101.804 101.48C 102.497 100.88 103.437 100.58 104.624 100.58C 104.837 100.58 105.071 100.6 105.324 100.64C 105.577 100.68 105.784 100.727 105.944 100.78L 105.944 103.4C 105.797 103.253 105.651 103.147 105.504 103.08C 105.357 103 105.171 102.96 104.944 102.96C 104.571 102.96 104.277 103.06 104.064 103.26C 103.851 103.46 103.744 103.8 103.744 104.28L 103.744 104.88L 105.944 104.88L 105.944 107.16L 103.724 107.16L 103.724 115L 100.744 115L 100.744 107.16ZM 112.064 115.3C 110.357 115.3 109.077 114.847 108.224 113.94C 107.37 113.033 106.944 111.687 106.944 109.9C 106.944 108.033 107.364 106.673 108.204 105.82C 109.057 104.967 110.344 104.54 112.064 104.54C 113.784 104.54 115.077 104.98 115.944 105.86C 116.81 106.727 117.244 108.073 117.244 109.9C 117.244 111.66 116.797 113 115.904 113.92C 115.01 114.84 113.73 115.3 112.064 115.3ZM 112.064 112.92C 112.797 112.92 113.35 112.667 113.724 112.16C 114.097 111.64 114.284 110.887 114.284 109.9C 114.284 108.82 114.097 108.053 113.724 107.6C 113.364 107.133 112.81 106.9 112.064 106.9C 111.29 106.9 110.73 107.133 110.384 107.6C 110.05 108.053 109.884 108.82 109.884 109.9C 109.884 110.927 110.057 111.687 110.404 112.18C 110.764 112.673 111.317 112.92 112.064 112.92ZM 119.3 105.94C 119.5 105.767 119.847 105.573 120.34 105.36C 120.847 105.147 121.407 104.967 122.02 104.82C 122.647 104.66 123.247 104.58 123.82 104.58C 124.927 104.58 125.694 104.747 126.12 105.08L 126.12 107.26C 125.587 107.14 124.82 107.08 123.82 107.08C 123.194 107.08 122.68 107.113 122.28 107.18L 122.28 115L 119.3 115L 119.3 105.94ZM 143.443 104.88L 139.463 115.16C 138.489 117.667 137.196 118.92 135.582 118.92C 134.889 118.92 134.289 118.8 133.783 118.56L 133.783 116.14C 134.182 116.287 134.576 116.36 134.962 116.36C 135.362 116.36 135.696 116.247 135.962 116.02C 136.243 115.793 136.463 115.42 136.623 114.9L 132.563 104.88L 135.962 104.88L 138.102 111.52L 140.243 104.88L 143.443 104.88ZM 149.153 115.3C 147.447 115.3 146.167 114.847 145.313 113.94C 144.46 113.033 144.033 111.687 144.033 109.9C 144.033 108.033 144.453 106.673 145.293 105.82C 146.147 104.967 147.433 104.54 149.153 104.54C 150.873 104.54 152.167 104.98 153.033 105.86C 153.9 106.727 154.333 108.073 154.333 109.9C 154.333 111.66 153.887 113 152.993 113.92C 152.1 114.84 150.82 115.3 149.153 115.3ZM 149.153 112.92C 149.887 112.92 150.44 112.667 150.813 112.16C 151.187 111.64 151.373 110.887 151.373 109.9C 151.373 108.82 151.187 108.053 150.813 107.6C 150.453 107.133 149.9 106.9 149.153 106.9C 148.38 106.9 147.82 107.133 147.473 107.6C 147.14 108.053 146.973 108.82 146.973 109.9C 146.973 110.927 147.147 111.687 147.493 112.18C 147.853 112.673 148.407 112.92 149.153 112.92ZM 161.15 115.3C 159.67 115.3 158.504 114.953 157.65 114.26C 156.81 113.567 156.39 112.527 156.39 111.14L 156.39 104.88L 159.37 104.88L 159.37 110.9C 159.37 111.54 159.51 112.02 159.79 112.34C 160.084 112.647 160.544 112.8 161.17 112.8C 161.797 112.8 162.25 112.647 162.53 112.34C 162.824 112.02 162.97 111.54 162.97 110.9L 162.97 104.88L 165.77 104.88L 165.77 111.14C 165.77 112.54 165.364 113.587 164.55 114.28C 163.75 114.96 162.617 115.3 161.15 115.3ZM 168.262 112.18L 171.162 112.18L 171.162 115L 168.262 115L 168.262 112.18Z" transform="translate(192 267)" fill="white"/>
</g>
</g>
</g>
</g>
<defs>
<filter id="filter0_dd" x="32" y="56" width="590.632" height="593.288" filterUnits="userSpaceOnUse" color-interpolation-filters="sRGB">
<feFlood flood-opacity="0" result="BackgroundImageFix"/>
<feColorMatrix in="SourceAlpha" type="matrix" values="0 0 0 0 0 0 0 0 0 0 0 0 0 0 0 0 0 0 255 0"/>
<feOffset dy="8"/>
<feGaussianBlur stdDeviation="7.5"/>
<feColorMatrix type="matrix" values="0 0 0 0 0 0 0 0 0 0 0 0 0 0 0 0 0 0 0.07 0"/>
<feBlend mode="normal" in2="BackgroundImageFix" result="effect1_dropShadow"/>
<feColorMatrix in="SourceAlpha" type="matrix" values="0 0 0 0 0 0 0 0 0 0 0 0 0 0 0 0 0 0 255 0"/>
<feOffset dy="18"/>
<feGaussianBlur stdDeviation="17.5"/>
<feColorMatrix type="matrix" values="0 0 0 0 0.196078 0 0 0 0 0.196078 0 0 0 0 0.364706 0 0 0 0.1 0"/>
<feBlend mode="normal" in2="effect1_dropShadow" result="effect2_dropShadow"/>
<feBlend mode="normal" in="SourceGraphic" in2="effect2_dropShadow" result="shape"/>
</filter>

</defs>
</svg>

