<svg width="2236" height="563" viewBox="0 0 2236 563" version="1.1" xmlns="http://www.w3.org/2000/svg" xmlns:xlink="http://www.w3.org/1999/xlink">
<title>logo</title>
<desc>Created using Figma</desc>
<g id="Canvas" transform="translate(-13637 350)">
<clipPath id="clip-0" clip-rule="evenodd">
<path d="M 13637 -350L 15873 -350L 15873 213L 13637 213L 13637 -350Z" fill="#FFFFFF"/>
</clipPath>
<g id="logo" clip-path="url(#clip-0)">
<g id="logo-alone">
<g id="g5025">
<g id="g5035">
<g id="g4183">
<g id="path4903">
<use xlink:href="#path0_fill" transform="matrix(4.22495 0 0 4.22495 13646.2 -318.779)" fill="#DEF7ED"/>
<use xlink:href="#path1_stroke" transform="matrix(4.22495 0 0 4.22495 13646.2 -318.779)" fill="#18A66F"/>
</g>
<g id="path4903-3">
<use xlink:href="#path2_fill" transform="matrix(4.22495 0 0 4.22495 13682.5 -282.439)" fill="#1CC886"/>
</g>
<g id="path4903-3-8">
<use xlink:href="#path3_fill" transform="matrix(4.22495 0 0 4.22495 13751.5 -224.225)" fill="#0C5338"/>
</g>
<g id="path4903-3-1" opacity="0.35">
<use xlink:href="#path4_fill" transform="matrix(4.22495 0 0 4.22495 13883.7 -327)" fill="#FFFFFF"/>
</g>
<g id="path4903-3-1-5" opacity="0.35">
<use xlink:href="#path5_fill" transform="matrix(4.22495 0 0 4.22495 13637 -326.934)"/>
</g>
<g id="path5007">
<use xlink:href="#path6_fill" transform="matrix(4.22495 0 0 4.22495 13830.2 -145.619)" fill="#6BDBB0"/>
</g>
</g>
</g>
</g>
</g>
<g id="BETOKEN">
<use xlink:href="#path7_fill" transform="translate(14240 -350)" fill="#000000" fill-opacity="0.8"/>
</g>
</g>
</g>
<defs>
<path id="path0_fill" d="M 58.4451 116.89C 90.7235 116.89 116.89 90.7235 116.89 58.4452C 116.89 26.1668 90.7235 -3.09749e-05 58.4451 -3.09749e-05C 26.1668 -3.09749e-05 2.56182e-05 26.1668 2.56182e-05 58.4452C 2.56182e-05 90.7235 26.1668 116.89 58.4451 116.89Z"/>
<path id="path1_stroke" d="M 115.89 58.4452C 115.89 90.1712 90.1712 115.89 58.4451 115.89L 58.4451 117.89C 91.2758 117.89 117.89 91.2758 117.89 58.4452L 115.89 58.4452ZM 58.4451 115.89C 26.7191 115.89 1.00003 90.1712 1.00003 58.4452L -0.999974 58.4452C -0.999974 91.2758 25.6145 117.89 58.4451 117.89L 58.4451 115.89ZM 1.00003 58.4452C 1.00003 26.7191 26.7191 0.999969 58.4451 0.999969L 58.4451 -1.00003C 25.6145 -1.00003 -0.999974 25.6145 -0.999974 58.4452L 1.00003 58.4452ZM 58.4451 0.999969C 90.1712 0.999969 115.89 26.7191 115.89 58.4452L 117.89 58.4452C 117.89 25.6145 91.2758 -1.00003 58.4451 -1.00003L 58.4451 0.999969Z"/>
<path id="path2_fill" d="M 49.844 99.6879C 77.372 99.6879 99.6879 77.372 99.6879 49.844C 99.6879 22.3159 77.372 0 49.844 0C 22.3159 0 0 22.3159 0 49.844C 0 77.372 22.3159 99.6879 49.844 99.6879Z"/>
<path id="path3_fill" d="M 24.5256 1.88293C 15.4619 4.94561 7.98602 11.4833 3.74256 20.0579C -0.500901 28.6325 -1.1643 38.5415 1.89813 47.6053C 4.96081 56.6689 11.4984 64.1448 20.073 68.3882C 28.6475 72.6317 38.5566 73.2952 47.6203 70.2328C 55.7655 67.4657 62.6537 61.8789 67.0424 54.4802L 57.3066 50.8487C 54.1468 55.3996 49.6113 58.8176 44.3659 60.6011C 37.8566 62.8004 30.7403 62.3239 24.5823 59.2764C 18.4244 56.2289 13.7292 50.86 11.5297 44.3508C 9.33039 37.8416 9.8069 30.7252 12.8544 24.5673C 15.9019 18.4093 21.2708 13.7141 27.78 11.5146C 33.0106 9.75392 38.6668 9.70966 43.9243 11.3882C 49.1818 13.0668 53.7658 16.3804 57.0085 20.8463L 64.6291 14.0901C 60.0491 8.13136 53.7224 3.75189 46.5326 1.56337C 39.3427 -0.62516 31.6489 -0.513466 24.5256 1.88293L 24.5256 1.88293Z"/>
<path id="path4_fill" d="M 6.26058 1.82755e-07C 38.038 1.9928 62.7933 28.3426 62.8014 60.1824C 62.7648 92.0014 39.0281 118.779 7.27145 120.77L 44.0754 75.7929L 28.105 70.6049L -3.78912e-05 60.859C 16.06 56.8081 27.7361 49.7601 39.8981 39.3205L 6.26058 1.82755e-07Z"/>
<path id="path5_fill" d="M 56.5407 -5.38111e-06C 24.7633 1.9928 0.00796795 28.3425 -5.83191e-05 60.1824C 0.0365381 92.0013 24.6004 118.595 56.357 120.586L 15.3553 63.2483L 56.5407 -5.38111e-06Z"/>
<path id="path6_fill" d="M 18.2871 36.5742C 28.3868 36.5742 36.5741 28.3868 36.5741 18.2871C 36.5741 8.18741 28.3868 -1.37026e-05 18.2871 -1.37026e-05C 8.18741 -1.37026e-05 5.58661e-05 8.18741 5.58661e-05 18.2871C 5.58661e-05 28.3868 8.18741 36.5742 18.2871 36.5742Z"/>
<path id="path7_fill" d="M 32.25 413L 32.25 140L 113.438 140C 124.688 140.125 135.688 141.625 146.438 144.5C 157.188 147.25 166.75 151.562 175.125 157.438C 183.5 163.312 190.188 170.812 195.188 179.938C 200.188 189.062 202.625 200 202.5 212.75C 202.375 219.875 201.188 226.375 198.938 232.25C 196.812 238.125 193.812 243.438 189.938 248.188C 186.188 252.812 181.75 256.875 176.625 260.375C 171.5 263.875 166.062 266.875 160.312 269.375C 167.562 271.5 174.188 274.562 180.188 278.562C 186.312 282.438 191.562 287.188 195.938 292.812C 200.312 298.312 203.688 304.562 206.062 311.562C 208.562 318.562 209.812 326.125 209.812 334.25C 209.938 347 207.5 358.25 202.5 368C 197.5 377.75 190.812 385.938 182.438 392.562C 174.062 399.062 164.375 404.062 153.375 407.562C 142.5 411.062 131.25 412.875 119.625 413L 32.25 413ZM 67.125 285.312L 67.125 383.562L 120.562 383.562C 127.812 383.438 134.688 382.25 141.188 380C 147.688 377.625 153.438 374.375 158.438 370.25C 163.438 366.125 167.375 361.062 170.25 355.062C 173.25 349.062 174.75 342.25 174.75 334.625C 174.875 326.875 173.562 320 170.812 314C 168.188 308 164.5 302.938 159.75 298.812C 155 294.562 149.438 291.312 143.062 289.062C 136.688 286.812 129.812 285.562 122.438 285.312L 67.125 285.312ZM 67.125 256.438L 115.5 256.438C 122 256.312 128.375 255.312 134.625 253.438C 140.875 251.438 146.438 248.625 151.312 245C 156.188 241.25 160.125 236.688 163.125 231.312C 166.125 225.938 167.625 219.688 167.625 212.562C 167.625 204.938 166.125 198.438 163.125 193.062C 160.25 187.688 156.312 183.312 151.312 179.938C 146.438 176.438 140.75 173.875 134.25 172.25C 127.875 170.625 121.312 169.75 114.562 169.625L 67.125 169.625L 67.125 256.438ZM 413.438 286.812L 299.438 286.812L 299.438 383.562L 432.375 383.562L 432.375 413L 264.75 413L 264.75 140L 430.688 140L 430.688 169.625L 299.438 169.625L 299.438 257.375L 413.438 257.375L 413.438 286.812ZM 678 169.625L 593.625 169.625L 593.625 413L 559.875 413L 559.875 169.625L 475.5 169.625L 475.5 140L 678 140L 678 169.625ZM 902.062 292.25C 901.938 302 901.062 311.875 899.438 321.875C 897.938 331.75 895.562 341.312 892.312 350.562C 889.062 359.812 884.875 368.438 879.75 376.438C 874.75 384.438 868.75 391.438 861.75 397.438C 854.75 403.438 846.688 408.188 837.562 411.688C 828.562 415.062 818.438 416.75 807.188 416.75C 795.938 416.75 785.75 415.062 776.625 411.688C 767.625 408.188 759.625 403.438 752.625 397.438C 745.625 391.438 739.562 384.438 734.438 376.438C 729.312 368.312 725.062 359.625 721.688 350.375C 718.438 341.125 716 331.562 714.375 321.688C 712.75 311.812 711.875 302 711.75 292.25L 711.75 261.125C 711.875 251.375 712.688 241.562 714.188 231.688C 715.812 221.688 718.25 212.062 721.5 202.812C 724.875 193.562 729.062 184.938 734.062 176.938C 739.188 168.812 745.25 161.75 752.25 155.75C 759.25 149.625 767.25 144.875 776.25 141.5C 785.375 138 795.562 136.25 806.812 136.25C 818.062 136.25 828.25 138 837.375 141.5C 846.5 144.875 854.562 149.562 861.562 155.562C 868.562 161.562 874.562 168.625 879.562 176.75C 884.688 184.75 888.875 193.375 892.125 202.625C 895.5 211.875 897.938 221.5 899.438 231.5C 901.062 241.5 901.938 251.375 902.062 261.125L 902.062 292.25ZM 867.75 260.75C 867.625 254.25 867.188 247.5 866.438 240.5C 865.688 233.375 864.375 226.375 862.5 219.5C 860.75 212.5 858.375 205.875 855.375 199.625C 852.375 193.25 848.625 187.688 844.125 182.938C 839.625 178.062 834.312 174.25 828.188 171.5C 822.062 168.625 814.938 167.188 806.812 167.188C 798.812 167.188 791.75 168.625 785.625 171.5C 779.5 174.375 774.188 178.25 769.688 183.125C 765.188 187.875 761.438 193.438 758.438 199.812C 755.438 206.062 753 212.688 751.125 219.688C 749.375 226.562 748.062 233.562 747.188 240.688C 746.438 247.688 746 254.375 745.875 260.75L 745.875 292.25C 746 298.625 746.438 305.375 747.188 312.5C 748.062 319.625 749.438 326.688 751.312 333.688C 753.188 340.562 755.625 347.188 758.625 353.562C 761.625 359.938 765.375 365.562 769.875 370.438C 774.375 375.188 779.688 379 785.812 381.875C 791.938 384.75 799.062 386.188 807.188 386.188C 815.312 386.188 822.438 384.75 828.562 381.875C 834.812 379 840.125 375.188 844.5 370.438C 849 365.562 852.688 360 855.562 353.75C 858.562 347.375 860.938 340.75 862.688 333.875C 864.562 326.875 865.812 319.812 866.438 312.688C 867.188 305.562 867.625 298.75 867.75 292.25L 867.75 260.75ZM 1020.56 286.25L 990.188 320.75L 990.188 413L 954.75 413L 954.75 140L 990.188 140L 990.188 273.312L 1016.62 240.312L 1096.69 140L 1138.88 140L 1043.44 259.438L 1145.25 413L 1103.06 413L 1020.56 286.25ZM 1335.94 286.812L 1221.94 286.812L 1221.94 383.562L 1354.88 383.562L 1354.88 413L 1187.25 413L 1187.25 140L 1353.19 140L 1353.19 169.625L 1221.94 169.625L 1221.94 257.375L 1335.94 257.375L 1335.94 286.812ZM 1587.38 413L 1552.12 413L 1446.19 209L 1445.62 413L 1410.56 413L 1410.56 140L 1445.81 140L 1551.75 343.625L 1552.31 140L 1587.38 140L 1587.38 413Z"/>
</defs>
</svg>
