<svg width="512" height="511" viewBox="0 0 512 511" version="1.1" xmlns="http://www.w3.org/2000/svg" xmlns:xlink="http://www.w3.org/1999/xlink">
<title>logo-alone</title>
<desc>Created using Figma</desc>
<g id="Canvas" transform="translate(-13637 327)">
<g id="logo-alone">
<g id="g5025">
<g id="g5035">
<g id="g4183">
<g id="path4903">
<use xlink:href="#path0_fill" transform="matrix(4.22495 0 0 4.22495 13646.2 -318.779)" fill="#DEF7ED"/>
<use xlink:href="#path1_stroke" transform="matrix(4.22495 0 0 4.22495 13646.2 -318.779)" fill="#18A66F"/>
</g>
<g id="path4903-3">
<use xlink:href="#path2_fill" transform="matrix(4.22495 0 0 4.22495 13682.5 -282.439)" fill="#1CC886"/>
</g>
<g id="path4903-3-8">
<use xlink:href="#path3_fill" transform="matrix(4.22495 0 0 4.22495 13751.5 -224.225)" fill="#0C5338"/>
</g>
<g id="path4903-3-1" opacity="0.35">
<use xlink:href="#path4_fill" transform="matrix(4.22495 0 0 4.22495 13883.7 -327)" fill="#FFFFFF"/>
</g>
<g id="path4903-3-1-5" opacity="0.35">
<use xlink:href="#path5_fill" transform="matrix(4.22495 0 0 4.22495 13637 -326.934)"/>
</g>
<g id="path5007">
<use xlink:href="#path6_fill" transform="matrix(4.22495 0 0 4.22495 13830.2 -145.619)" fill="#6BDBB0"/>
</g>
</g>
</g>
</g>
</g>
</g>
<defs>
<path id="path0_fill" d="M 58.4451 116.89C 90.7235 116.89 116.89 90.7235 116.89 58.4452C 116.89 26.1668 90.7235 -3.09749e-05 58.4451 -3.09749e-05C 26.1668 -3.09749e-05 2.56182e-05 26.1668 2.56182e-05 58.4452C 2.56182e-05 90.7235 26.1668 116.89 58.4451 116.89Z"/>
<path id="path1_stroke" d="M 115.89 58.4452C 115.89 90.1712 90.1712 115.89 58.4451 115.89L 58.4451 117.89C 91.2758 117.89 117.89 91.2758 117.89 58.4452L 115.89 58.4452ZM 58.4451 115.89C 26.7191 115.89 1.00003 90.1712 1.00003 58.4452L -0.999974 58.4452C -0.999974 91.2758 25.6145 117.89 58.4451 117.89L 58.4451 115.89ZM 1.00003 58.4452C 1.00003 26.7191 26.7191 0.999969 58.4451 0.999969L 58.4451 -1.00003C 25.6145 -1.00003 -0.999974 25.6145 -0.999974 58.4452L 1.00003 58.4452ZM 58.4451 0.999969C 90.1712 0.999969 115.89 26.7191 115.89 58.4452L 117.89 58.4452C 117.89 25.6145 91.2758 -1.00003 58.4451 -1.00003L 58.4451 0.999969Z"/>
<path id="path2_fill" d="M 49.844 99.6879C 77.372 99.6879 99.6879 77.372 99.6879 49.844C 99.6879 22.3159 77.372 0 49.844 0C 22.3159 0 0 22.3159 0 49.844C 0 77.372 22.3159 99.6879 49.844 99.6879Z"/>
<path id="path3_fill" d="M 24.5256 1.88293C 15.4619 4.94561 7.98602 11.4833 3.74256 20.0579C -0.500901 28.6325 -1.1643 38.5415 1.89813 47.6053C 4.96081 56.6689 11.4984 64.1448 20.073 68.3882C 28.6475 72.6317 38.5566 73.2952 47.6203 70.2328C 55.7655 67.4657 62.6537 61.8789 67.0424 54.4802L 57.3066 50.8487C 54.1468 55.3996 49.6113 58.8176 44.3659 60.6011C 37.8566 62.8004 30.7403 62.3239 24.5823 59.2764C 18.4244 56.2289 13.7292 50.86 11.5297 44.3508C 9.33039 37.8416 9.8069 30.7252 12.8544 24.5673C 15.9019 18.4093 21.2708 13.7141 27.78 11.5146C 33.0106 9.75392 38.6668 9.70966 43.9243 11.3882C 49.1818 13.0668 53.7658 16.3804 57.0085 20.8463L 64.6291 14.0901C 60.0491 8.13136 53.7224 3.75189 46.5326 1.56337C 39.3427 -0.62516 31.6489 -0.513466 24.5256 1.88293L 24.5256 1.88293Z"/>
<path id="path4_fill" d="M 6.26058 1.82755e-07C 38.038 1.9928 62.7933 28.3426 62.8014 60.1824C 62.7648 92.0014 39.0281 118.779 7.27145 120.77L 44.0754 75.7929L 28.105 70.6049L -3.78912e-05 60.859C 16.06 56.8081 27.7361 49.7601 39.8981 39.3205L 6.26058 1.82755e-07Z"/>
<path id="path5_fill" d="M 56.5407 -5.38111e-06C 24.7633 1.9928 0.00796795 28.3425 -5.83191e-05 60.1824C 0.0365381 92.0013 24.6004 118.595 56.357 120.586L 15.3553 63.2483L 56.5407 -5.38111e-06Z"/>
<path id="path6_fill" d="M 18.2871 36.5742C 28.3868 36.5742 36.5741 28.3868 36.5741 18.2871C 36.5741 8.18741 28.3868 -1.37026e-05 18.2871 -1.37026e-05C 8.18741 -1.37026e-05 5.58661e-05 8.18741 5.58661e-05 18.2871C 5.58661e-05 28.3868 8.18741 36.5742 18.2871 36.5742Z"/>
</defs>
</svg>
